{
.appVersion = "1246";
DisplayStrings = (
FRISQUET,
"/R.alt age against the machine",
"friende ",
"/R.alt.small",
"/fi.liga"
);
copyright = "Created by Frank ADEBIAYE with FontForge 2.0 (http://fontforge.sf.net)";
customParameters = (
{
name = vendorID;
value = PfEd;
},
{
name = panose;
value = (
2,
0,
6,
3,
0,
0,
0,
0,
0,
0
);
},
{
name = unicodeRanges;
value = (
0,
1,
2,
3,
4,
31
);
},
{
name = codePageRanges;
value = (
1252,
1250,
1254,
1257
);
},
{
name = fsType;
value = (
);
},
{
name = blueShift;
value = 0;
},
{
name = glyphOrder;
value = (
.notdef,
space,
exclam,
quotedbl,
numbersign,
dollar,
percent,
ampersand,
quotesingle,
parenleft,
parenright,
asterisk,
plus,
comma,
hyphen,
period,
slash,
zero,
one,
two,
three,
four,
five,
six,
seven,
eight,
nine,
colon,
semicolon,
less,
equal,
greater,
question,
at,
A,
B,
C,
D,
E,
F,
G,
H,
I,
J,
K,
L,
M,
N,
O,
P,
Q,
R,
S,
T,
U,
V,
W,
X,
Y,
Z,
bracketleft,
backslash,
bracketright,
asciicircum,
underscore,
grave,
a,
b,
c,
d,
e,
f,
g,
h,
i,
j,
k,
l,
m,
n,
o,
p,
q,
r,
s,
t,
u,
v,
w,
x,
y,
z,
braceleft,
bar,
braceright,
asciitilde,
uni007F,
uni0080,
uni0081,
uni0082,
uni0083,
uni0084,
uni0085,
uni0086,
uni0087,
uni0088,
uni0089,
uni008A,
uni008B,
uni008C,
uni008D,
uni008E,
uni008F,
uni0090,
uni0091,
uni0092,
uni0093,
uni0094,
uni0095,
uni0096,
uni0097,
uni0098,
uni0099,
uni009A,
uni009B,
uni009C,
uni009D,
uni009E,
uni009F,
uni00A0,
exclamdown,
cent,
sterling,
currency,
yen,
brokenbar,
section,
dieresis,
copyright,
ordfeminine,
guillemotleft,
logicalnot,
uni00AD,
registered,
macron,
degree,
plusminus,
uni00B2,
uni00B3,
acute,
uni00B5,
paragraph,
periodcentered,
cedilla,
uni00B9,
ordmasculine,
guillemotright,
onequarter,
onehalf,
threequarters,
questiondown,
Agrave,
Aacute,
Acircumflex,
Atilde,
Adieresis,
Aring,
AE,
Ccedilla,
Egrave,
Eacute,
Ecircumflex,
Edieresis,
Igrave,
Iacute,
Icircumflex,
Idieresis,
Eth,
Ntilde,
Ograve,
Oacute,
Ocircumflex,
Otilde,
Odieresis,
multiply,
Oslash,
Ugrave,
Uacute,
Ucircumflex,
Udieresis,

glyphs = (
{
glyphname = .notdef;
lastChange = "2019-07-05 07:07:32 +0000";
layers = (
{
hints = (
{
horizontal = 1;
place = "{0, 50}";
type = Stem;
},
{
horizontal = 1;
place = "{483, 50}";
type = Stem;
},
{
place = "{50, 50}";
type = Stem;
},
{
place = "{400, 50}";
type = Stem;
}
);
layerId = "35624636-21CC-465F-9DE1-D1867EA72944";
paths = (
{
closed = 1;
nodes = (
"455 640 LINE",
"834 640 LINE",
"834 725 LINE",
"455 725 LINE"
);
},
{
closed = 1;
nodes = (
"361 640 LINE",
"430 640 LINE",
"430 725 LINE",
"420 725 LINE",
"420 648 LINE",
"369 648 LINE",
"369 725 LINE",
"361 725 LINE"
);
},
{
closed = 1;
nodes = (
"271 640 LINE",
"336 640 LINE",
"336 725 LINE",
"271 725 LINE"
);
},
{
closed = 1;
nodes = (
"58 640 LINE",
"66 640 LINE",
"66 725 LINE",
"58 725 LINE"
);
},
{
closed = 1;
nodes = (
"326 716 LINE",
"326 648 LINE",
"280 648 LINE",
"280 716 LINE"
);
},
{
closed = 1;
nodes = (
"245 677 LINE",
"245 725 LINE",
"238 725 LINE",
"238 687 LINE",
"187 687 LINE",
"187 725 LINE",
"178 725 LINE",
"178 677 LINE",
"208 677 LINE",
"208 640 LINE",
"215 640 LINE",
"215 677 LINE"
);
},
{
closed = 1;
nodes = (
"136 677 LINE",
"136 687 LINE",
"101 687 LINE",
"101 716 LINE",
"152 716 LINE",
"152 725 LINE",
"93 725 LINE",
"93 640 LINE",
"101 640 LINE",
"101 677 LINE"
);
},
{
closed = 1;
nodes = (
"650 597 LINE",
"650 511 LINE",
"659 511 LINE",
"659 546 LINE",
"715 546 LINE",
"715 511 LINE",
"723 511 LINE",
"723 554 LINE",
"698 554 LINE",
"698 597 LINE"
);
},
{
closed = 1;
nodes = (
"621 520 LINE",
"573 520 LINE",
"573 589 LINE",
"621 589 LINE"
);
},
{
closed = 1;
nodes = (
"463 564 LINE",
"476 564 LINE",
"476 536 LINE",
"488 536 LINE",
"488 511 LINE",
"498 511 LINE",
"498 536 LINE",
"511 536 LINE",
"511 564 LINE",
"523 564 LINE",
"523 589 LINE",
"532 589 LINE",
"532 511 LINE",
"540 511 LINE",
"540 597 LINE",
"515 597 LINE",
"515 571 LINE",
"501 571 LINE",
"501 546 LINE",
"485 546 LINE",
"485 571 LINE",
"472 571 LINE",
"472 597 LINE",
"447 597 LINE",
"447 511 LINE",
"455 511 LINE",
"455 589 LINE",
"463 589 LINE"
);
},
{
closed = 1;
nodes = (
"412 589 LINE",
"412 597 LINE",
"344 597 LINE",
"344 589 LINE",
"374 589 LINE",
"374 511 LINE",
"382 511 LINE",
"382 589 LINE"
);
},
{
closed = 1;
nodes = (
"276 564 LINE",
"289 564 LINE",
"289 536 LINE",
"301 536 LINE",
"301 511 LINE",
"326 511 LINE",
"326 597 LINE",
"318 597 LINE",
"318 520 LINE",
"310 520 LINE",
"310 546 LINE",
"296 546 LINE",
"296 571 LINE",
"285 571 LINE",
"285 597 LINE",
"259 597 LINE",
"259 511 LINE",
"267 511 LINE",
"267 589 LINE",
"276 589 LINE"
);
},
{
closed = 1;
nodes = (
"211 597 LINE",
"181 597 LINE",
"181 571 LINE",
"170 571 LINE",
"170 546 LINE",
"156 546 LINE",
"156 511 LINE",
"164 511 LINE",
"164 536 LINE",
"228 536 LINE",
"228 511 LINE",
"238 511 LINE",
"238 546 LINE",
"225 546 LINE",
"225 571 LINE",
"211 571 LINE"
);
},
{
closed = 1;
nodes = (
"829 499 LINE",
"829 524 LINE",
"817 524 LINE",
"817 511 LINE",
"822 511 LINE",
"822 499 LINE"
);
},
{
closed = 1;
nodes = (
"740 511 LINE",
"799 511 LINE",
"799 520 LINE",
"749 520 LINE",
"749 551 LINE",
"783 551 LINE",
"783 559 LINE",
"749 559 LINE",
"749 589 LINE",
"799 589 LINE",
"799 597 LINE",
"740 597 LINE"
);
},
{
closed = 1;
nodes = (
"566 511 LINE",
"630 511 LINE",
"630 597 LINE",
"566 597 LINE"
);
},
{
closed = 1;
nodes = (
"58 511 LINE",
"136 511 LINE",
"136 597 LINE",
"126 597 LINE",
"126 520 LINE",
"101 520 LINE",
"101 567 LINE",
"93 567 LINE",
"93 520 LINE",
"66 520 LINE",
"66 597 LINE",
"58 597 LINE"
);
},
{
closed = 1;
nodes = (
"762 468 LINE",
"762 384 LINE",
"770 384 LINE",
"770 418 LINE",
"826 418 LINE",
"826 384 LINE",
"834 384 LINE",
"834 427 LINE",
"809 427 LINE",
"809 468 LINE"
);
},
{
closed = 1;
nodes = (
"728 393 LINE",
"681 393 LINE",
"681 461 LINE",
"728 461 LINE"
);
},
{
closed = 1;
nodes = (
"455 435 LINE",
"468 435 LINE",
"468 410 LINE",
"481 410 LINE",
"481 384 LINE",
"488 384 LINE",
"488 410 LINE",
"501 410 LINE",
"501 435 LINE",
"515 435 LINE",
"515 461 LINE",
"523 461 LINE",
"523 384 LINE",
"532 384 LINE",
"532 468 LINE",
"505 468 LINE",
"505 445 LINE",
"493 445 LINE",
"493 418 LINE",
"476 418 LINE",
"476 445 LINE",
"463 445 LINE",
"463 468 LINE",
"437 468 LINE",
"437 384 LINE",
"447 384 LINE",
"447 461 LINE",
"455 461 LINE"
);
},
{
closed = 1;
nodes = (
"225 468 LINE",
"225 384 LINE",
"232 384 LINE",
"232 418 LINE",
"289 418 LINE",
"289 384 LINE",
"296 384 LINE",
"296 427 LINE",
"271 427 LINE",
"271 468 LINE"
);
},
{
closed = 1;
nodes = (
"190 393 LINE",
"144 393 LINE",
"144 461 LINE",
"190 461 LINE"
);
},
{
closed = 1;
nodes = (
"341 410 LINE",
"361 410 LINE",
"361 384 LINE",
"382 384 LINE",
"382 393 LINE",
"369 393 LINE",
"369 418 LINE",
"348 418 LINE",
"348 435 LINE",
"369 435 LINE",
"369 461 LINE",
"382 461 LINE",
"382 468 LINE",
"361 468 LINE",
"361 445 LINE",
"341 445 LINE",
"341 430 LINE",
"326 430 LINE",
"326 468 LINE",
"318 468 LINE",
"318 384 LINE",
"326 384 LINE",
"326 422 LINE",
"341 422 LINE"
);
},
{
closed = 1;
nodes = (
"101 422 LINE",
"101 430 LINE",
"66 430 LINE",
"66 461 LINE",
"119 461 LINE",
"119 468 LINE",
"58 468 LINE",
"58 384 LINE",
"66 384 LINE",
"66 422 LINE"
);
},
{
closed = 1;
nodes = (
"672 384 LINE",
"736 384 LINE",
"736 468 LINE",
"672 468 LINE"
);
},
{
closed = 1;
nodes = (
"562 384 LINE",
"621 384 LINE",
"621 393 LINE",
"569 393 LINE",
"569 422 LINE",
"604 422 LINE",
"604 430 LINE",
"569 430 LINE",
"569 461 LINE",
"621 461 LINE",
"621 468 LINE",
"562 468 LINE"
);
},
{
closed = 1;
nodes = (
"136 384 LINE",
"199 384 LINE",
"199 468 LINE",
"136 468 LINE"
);
},
{
closed = 1;
nodes = (
"630 256 LINE",
"834 256 LINE",
"834 341 LINE",
"630 341 LINE"
);
},
{
closed = 1;
nodes = (
"613 333 LINE",
"613 341 LINE",
"546 341 LINE",
"546 333 LINE",
"573 333 LINE",
"573 256 LINE",
"582 256 LINE",
"582 333 LINE"
);
},
{
closed = 1;
nodes = (
"374 333 LINE",
"374 341 LINE",
"306 341 LINE",
"306 333 LINE",
"336 333 LINE",
"336 256 LINE",
"344 256 LINE",
"344 333 LINE"
);
},
{
closed = 1;
nodes = (
"242 308 LINE",
"255 308 LINE",
"255 282 LINE",
"267 282 LINE",
"267 256 LINE",
"292 256 LINE",
"292 341 LINE",
"285 341 LINE",
"285 265 LINE",
"276 265 LINE",
"276 290 LINE",
"262 290 LINE",
"262 315 LINE",
"250 315 LINE",
"250 341 LINE",
"225 341 LINE",
"225 256 LINE",
"232 256 LINE",
"232 333 LINE",
"242 333 LINE"
);
},
{
closed = 1;
nodes = (
"190 265 LINE",
"144 265 LINE",
"144 333 LINE",
"190 333 LINE"
);
},
{
closed = 1;
nodes = (
"430 341 LINE",
"400 341 LINE",
"400 315 LINE",
"387 315 LINE",
"387 290 LINE",
"374 290 LINE",
"374 256 LINE",
"382 256 LINE",
"382 282 LINE",
"447 282 LINE",
"447 256 LINE",
"455 256 LINE",
"455 290 LINE",
"442 290 LINE",
"442 315 LINE",
"430 315 LINE"
);
},
{
closed = 1;
nodes = (
"472 256 LINE",
"528 256 LINE",
"528 265 LINE",
"481 265 LINE",
"481 333 LINE",
"528 333 LINE",
"528 341 LINE",
"472 341 LINE"
);
},
{
closed = 1;
nodes = (
"136 256 LINE",
"199 256 LINE",
"199 341 LINE",
"136 341 LINE"
);
},
{
closed = 1;
nodes = (
"58 256 LINE",
"114 256 LINE",
"114 265 LINE",
"66 265 LINE",
"66 333 LINE",
"114 333 LINE",
"114 341 LINE",
"58 341 LINE"
);
},
{
closed = 1;
nodes = (
"654 179 LINE",
"668 179 LINE",
"668 154 LINE",
"681 154 LINE",
"681 128 LINE",
"706 128 LINE",
"706 213 LINE",
"698 213 LINE",
"698 137 LINE",
"689 137 LINE",
"689 162 LINE",
"677 162 LINE",
"677 188 LINE",
"664 188 LINE",
"664 213 LINE",
"637 213 LINE",
"637 128 LINE",
"647 128 LINE",
"647 205 LINE",
"654 205 LINE"
);
},
{
closed = 1;
nodes = (
"536 205 LINE",
"536 213 LINE",
"468 213 LINE",
"468 205 LINE",
"498 205 LINE",
"498 128 LINE",
"505 128 LINE",
"505 205 LINE"
);
},
{
closed = 1;
nodes = (
"621 167 LINE",
"621 213 LINE",
"613 213 LINE",
"613 174 LINE",
"562 174 LINE",
"562 213 LINE",
"553 213 LINE",
"553 167 LINE",
"582 167 LINE",
"582 128 LINE",
"591 128 LINE",
"591 167 LINE"
);
},
{
closed = 1;
nodes = (
"348 154 LINE",
"348 179 LINE",
"361 179 LINE",
"361 205 LINE",
"374 205 LINE",
"374 213 LINE",
"352 213 LINE",
"352 188 LINE",
"341 188 LINE",
"341 162 LINE",
"323 162 LINE",
"323 188 LINE",
"310 188 LINE",
"310 213 LINE",
"289 213 LINE",
"289 205 LINE",
"301 205 LINE",
"301 179 LINE",
"314 179 LINE",
"314 154 LINE",
"326 154 LINE",
"326 128 LINE",
"336 128 LINE",
"336 154 LINE"
);
},
{
closed = 1;
nodes = (
"114 154 LINE",
"114 179 LINE",
"126 179 LINE",
"126 205 LINE",
"139 205 LINE",
"139 213 LINE",
"119 213 LINE",
"119 188 LINE",
"106 188 LINE",
"106 162 LINE",
"88 162 LINE",
"88 188 LINE",
"75 188 LINE",
"75 213 LINE",
"54 213 LINE",
"54 205 LINE",
"66 205 LINE",
"66 179 LINE",
"79 179 LINE",
"79 154 LINE",
"93 154 LINE",
"93 128 LINE",
"101 128 LINE",
"101 154 LINE"
);
},
{
closed = 1;
nodes = (
"728 128 LINE",
"788 128 LINE",
"788 137 LINE",
"736 137 LINE",
"736 167 LINE",
"770 167 LINE",
"770 174 LINE",
"736 174 LINE",
"736 205 LINE",
"788 205 LINE",
"788 213 LINE",
"728 213 LINE"
);
},
{
closed = 1;
nodes = (
"391 128 LINE",
"450 128 LINE",
"450 137 LINE",
"400 137 LINE",
"400 167 LINE",
"433 167 LINE",
"433 174 LINE",
"400 174 LINE",
"400 205 LINE",
"450 205 LINE",
"450 213 LINE",
"391 213 LINE"
);
},
{
closed = 1;
nodes = (
"242 128 LINE",
"301 128 LINE",
"301 137 LINE",
"250 137 LINE",
"250 213 LINE",
"242 213 LINE"
);
},
{
closed = 1;
nodes = (
"156 128 LINE",
"215 128 LINE",
"215 137 LINE",
"164 137 LINE",
"164 167 LINE",
"199 167 LINE",
"199 174 LINE",
"164 174 LINE",
"164 205 LINE",
"215 205 LINE",
"215 213 LINE",
"156 213 LINE"
);
},
{
closed = 1;
nodes = (
"267 0 LINE",
"834 0 LINE",
"834 86 LINE",
"267 86 LINE"
);
},
{
closed = 1;
nodes = (
"164 86 LINE",
"164 0 LINE",
"174 0 LINE",
"174 33 LINE",
"228 33 LINE",
"228 0 LINE",
"238 0 LINE",
"238 43 LINE",
"211 43 LINE",
"211 86 LINE"
);
},
{
closed = 1;
nodes = (
"126 38 LINE",
"126 46 LINE",
"93 46 LINE",
"93 76 LINE",
"144 76 LINE",
"144 86 LINE",
"84 86 LINE",
"84 0 LINE",
"93 0 LINE",
"93 38 LINE"
);
},
{
closed = 1;
nodes = (
"50 0 LINE",
"63 0 LINE",
"63 12 LINE",
"50 12 LINE"
);
},
{
closed = 1;
nodes = (
"190 589 LINE",
"203 589 LINE",
"203 564 LINE",
"215 564 LINE",
"215 546 LINE",
"178 546 LINE",
"178 564 LINE",
"190 564 LINE"
);
},
{
closed = 1;
nodes = (
"659 554 LINE",
"659 589 LINE",
"689 589 LINE",
"689 554 LINE"
);
},
{
closed = 1;
nodes = (
"770 427 LINE",
"770 461 LINE",
"799 461 LINE",
"799 427 LINE"
);
},
{
closed = 1;
nodes = (
"232 427 LINE",
"232 461 LINE",
"262 461 LINE",
"262 427 LINE"
);
},
{
closed = 1;
nodes = (
"407 333 LINE",
"420 333 LINE",
"420 308 LINE",
"433 308 LINE",
"433 290 LINE",
"395 290 LINE",
"395 308 LINE",
"407 308 LINE"
);
},
{
closed = 1;
nodes = (
"174 43 LINE",
"174 76 LINE",
"203 76 LINE",
"203 43 LINE"
);
}
);
width = 884;
}
);
note = .notdef;
},
{
glyphname = exclam;
lastChange = "2019-07-12 12:15:52 +0000";
layers = (
{
components = (
{
name = period;
transform = "{1, 0, 0, 1, -50, 0}";
}
);
layerId = "35624636-21CC-465F-9DE1-D1867EA72944";
paths = (
{
closed = 1;
nodes = (
"145 722 LINE",
"145 719 LINE",
"145 341 LINE",
"145 338 LINE",
"147 338 LINE",
"187 338 LINE",
"227 338 LINE",
"230 338 LINE",
"230 341 LINE",
"230 719 LINE",
"230 722 LINE",
"227 722 LINE",
"147 722 LINE"
);
}
);
width = 375;
}
);
unicode = 0021;
},
{
glyphname = quotedbl;
lastChange = "2019-07-04 20:58:47 +0000";
layers = (
{
layerId = "35624636-21CC-465F-9DE1-D1867EA72944";
paths = (
{
closed = 1;
nodes = (
"141 488 LINE",
"141 720 LINE",
"141 723 LINE",
"138 723 LINE",
"58 723 LINE",
"55 723 LINE",
"55 720 LINE",
"55 488 LINE"
);
},
{
closed = 1;
nodes = (
"301 488 LINE",
"301 720 LINE",
"301 723 LINE",
"298 723 LINE",
"218 723 LINE",
"215 723 LINE",
"215 720 LINE",
"215 488 LINE"
);
}
);
width = 356;
}
);
unicode = 0022;
},
{
glyphname = numbersign;
lastChange = "2019-07-06 07:15:12 +0000";
layers = (
{
layerId = "35624636-21CC-465F-9DE1-D1867EA72944";
paths = (
{
closed = 1;
nodes = (
"49 4 LINE",
"52 3 LINE",
"52 0 LINE",
"132 0 LINE",
"132 3 LINE",
"135 2 LINE",
"343 719 LINE",
"340 721 LINE",
"340 723 LINE",
"261 723 LINE",
"261 721 LINE",
"259 722 LINE"
);
},
{
closed = 1;
nodes = (
"269 4 LINE",
"272 3 LINE",
"272 0 LINE",
"352 0 LINE",
"352 3 LINE",
"355 2 LINE",
"563 719 LINE",
"560 721 LINE",
"560 723 LINE",
"481 723 LINE",
"481 721 LINE",
"479 722 LINE"
);
},
{
closed = 1;
nodes = (
"37 427 LINE",
"592 427 LINE",
"607 513 LINE",
"52 513 LINE"
);
},
{
closed = 1;
nodes = (
"0 214 LINE",
"555 214 LINE",
"570 300 LINE",
"15 300 LINE"
);
}
);
width = 600;
}
);
unicode = 0023;
},
{
glyphname = dollar;
lastChange = "2019-07-04 13:35:08 +0000";
layers = (
{
components = (
{
name = s;
transform = "{1, 0, 0, 1, 0, 102}";
}
);
layerId = "35624636-21CC-465F-9DE1-D1867EA72944";
paths = (
{
closed = 1;
nodes = (
"206 1 LINE",
"292 1 LINE",
"292 158 LINE",
"206 158 LINE"
);
},
{
closed = 1;
nodes = (
"206 566 LINE",
"292 566 LINE",
"292 723 LINE",
"206 723 LINE"
);
}
);
width = 500;
}
);
unicode = 0024;
},
{
glyphname = percent;
lastChange = "2019-07-04 13:38:33 +0000";
layers = (
{
components = (
{
name = period;
transform = "{1, 0, 0, 1, -50, 448}";
},
{
name = period;
transform = "{1, 0, 0, 1, 218, 0}";
}
);
layerId = "35624636-21CC-465F-9DE1-D1867EA72944";
paths = (
{
closed = 1;
nodes = (
"119 4 LINE",
"122 3 LINE",
"122 0 LINE",
"202 0 LINE",
"202 3 LINE",
"205 2 LINE",
"523 719 LINE",
"520 721 LINE",
"520 723 LINE",
"441 723 LINE",
"441 721 LINE",
"439 722 LINE"
);
}
);
width = 643;
}
);
unicode = 0025;
},
{
glyphname = ampersand;
lastChange = "2019-07-16 11:52:55 +0000";
layers = (
{
hints = (
{
horizontal = 1;
place = "{0, 85.5}";
type = Stem;
},
{
horizontal = 1;
place = "{319.5, 85.5}";
type = Stem;
},
{
horizontal = 1;
place = "{637.88, 85.5}";
type = Stem;
},
{
place = "{503.62, 85.5}";
type = Stem;
},
{
place = "{144.75, 84.38}";
type = Stem;
},
{
place = "{185.25, 85.5}";
type = Stem;
}
);
layerId = "35624636-21CC-465F-9DE1-D1867EA72944";
paths = (
{
closed = 1;
nodes = (
"306 245 LINE",
"306 86 LINE",
"230 86 LINE SMOOTH",
"229 86 OFFCURVE",
"228 85 OFFCURVE",
"227 86 CURVE SMOOTH",
"164 87 OFFCURVE",
"113 139 OFFCURVE",
"113 202 CURVE SMOOTH",
"113 267 OFFCURVE",
"165 320 OFFCURVE",
"230 320 CURVE SMOOTH",
"270 320 LINE",
"249 320 LINE",
"487 320 LINE",
"487 405 LINE",
"270 405 LINE SMOOTH",
"206 405 OFFCURVE",
"153 457 OFFCURVE",
"153 521 CURVE SMOOTH",
"153 586 OFFCURVE",
"206 638 OFFCURVE",
"270 638 CURVE SMOOTH",
"329 638 LINE",
"414 638 LINE",
"414 723 LINE",
"270 723 LINE SMOOTH",
"158 723 OFFCURVE",
"68 633 OFFCURVE",
"68 521 CURVE SMOOTH",
"68 465 OFFCURVE",
"91 414 OFFCURVE",
"128 377 CURVE",
"68 342 OFFCURVE",
"28 276 OFFCURVE",
"28 202 CURVE SMOOTH",
"28 92 OFFCURVE",
"117 2 OFFCURVE",
"227 0 CURVE SMOOTH",
"228 0 OFFCURVE",
"229 0 OFFCURVE",
"230 0 CURVE SMOOTH",
"310 0 LINE",
"306 0 LINE",
"309 0 LINE",
"312 0 LINE",
"349 0 LINE",
"389 0 LINE",
"392 0 LINE",
"392 3 LINE",
"392 245 LINE"
);
},
{
closed = 1;
nodes = (
"392 245 LINE",
"392 483 LINE",
"306 483 LINE",
"306 245 LINE"
);
}
);
width = 532;
},
{
associatedMasterId = "35624636-21CC-465F-9DE1-D1867EA72944";
layerId = "CA7D3A90-186B-4165-A649-B453B60FD290";
name = "Jul 5 19, 08:51";
paths = (
{
closed = 1;
nodes = (
"367 202 LINE",
"367 137 OFFCURVE",
"314 86 OFFCURVE",
"251 86 CURVE SMOOTH",
"186 86 OFFCURVE",
"133 137 OFFCURVE",
"133 202 CURVE SMOOTH",
"133 267 OFFCURVE",
"186 318 OFFCURVE",
"251 318 CURVE",
"374.03 361.41 LINE",
"421.58 398.68 OFFCURVE",
"452.5 456.53 OFFCURVE",
"452.5 521.44 CURVE SMOOTH",
"452.5 632.11 OFFCURVE",
"361.23 723.38 OFFCURVE",
"250.56 723.38 CURVE SMOOTH",
"138.78 723.38 OFFCURVE",
"47.5 632.11 OFFCURVE",
"47.5 521.44 CURVE SMOOTH",
"47.5 456.52 OFFCURVE",
"78.31 398.67 OFFCURVE",
"125.97 361.41 CURVE",
"78.28 324.55 OFFCURVE",
"47.5 266.88 OFFCURVE",
"47.5 201.94 CURVE SMOOTH",
"47.5 90.16 OFFCURVE",
"138.8 0 OFFCURVE",
"250.56 0 CURVE SMOOTH",
"361.22 0 OFFCURVE",
"452.5 90.16 OFFCURVE",
"452.5 201.94 CURVE"
);
},
{
closed = 1;
nodes = (
"314.25 637.88 OFFCURVE",
"367 585.14 OFFCURVE",
"367 521.44 CURVE SMOOTH",
"367 456.59 OFFCURVE",
"314.26 403.88 OFFCURVE",
"250.56 403.88 CURVE SMOOTH",
"185.72 403.88 OFFCURVE",
"133 456.6 OFFCURVE",
"133 521.44 CURVE SMOOTH",
"133 585.13 OFFCURVE",
"185.72 637.88 OFFCURVE",
"250.56 637.88 CURVE SMOOTH"
);
},
{
closed = 1;
nodes = (
"341 259 LINE",
"456 2 LINE",
"459 3 LINE",
"459 0 LINE",
"539 0 LINE",
"539 3 LINE",
"542 4 LINE",
"415 287 LINE"
);
}
);
width = 600;
}
);
unicode = 0026;
},
{
glyphname = quotesingle;
lastChange = "2019-07-12 12:38:51 +0000";
layers = (
{
hints = (
{
horizontal = 1;
place = "{483.81, 79.88}";
type = Stem;
},
{
place = "{169.69, 79.87}";
type = Stem;
}
);
layerId = "35624636-21CC-465F-9DE1-D1867EA72944";
paths = (
{
closed = 1;
nodes = (
"152 723 LINE",
"152 720 LINE",
"149 720 LINE",
"149 656 OFFCURVE",
"97 604 OFFCURVE",
"32 604 CURVE",
"32 601 LINE",
"30 601 LINE",
"30 521 LINE",
"32 521 LINE",
"32 518 LINE",
"144 518 OFFCURVE",
"234 608 OFFCURVE",
"234 720 CURVE",
"232 720 LINE",
"232 723 LINE"
);
}
);
width = 264;
}
);
leftKerningGroup = quote;
leftMetricsKey = comma;
note = quotesingle;
rightKerningGroup = quote;
rightMetricsKey = comma;
unicode = 0027;
},
{
glyphname = parenleft;
lastChange = "2019-07-05 13:24:50 +0000";
layers = (
{
layerId = "35624636-21CC-465F-9DE1-D1867EA72944";
paths = (
{
closed = 1;
nodes = (
"269 783 LINE SMOOTH",
"160 783 OFFCURVE",
"70 694 OFFCURVE",
"70 584 CURVE SMOOTH",
"70 581 LINE",
"70 142 LINE",
"70 139 LINE SMOOTH",
"70 30 OFFCURVE",
"161 -60 OFFCURVE",
"272 -60 CURVE",
"272 26 LINE",
"207 26 OFFCURVE",
"156 78 OFFCURVE",
"156 142 CURVE SMOOTH",
"156 581 LINE",
"156 584 LINE SMOOTH",
"156 647 OFFCURVE",
"207 698 OFFCURVE",
"269 698 CURVE SMOOTH",
"272 698 LINE",
"272 783 LINE"
);
}
);
width = 342;
}
);
leftMetricsKey = bracketleft;
rightMetricsKey = bracketleft;
unicode = 0028;
},
{
glyphname = asterisk;
lastChange = "2019-07-12 12:16:11 +0000";
layers = (
{
layerId = "35624636-21CC-465F-9DE1-D1867EA72944";
paths = (
{
closed = 1;
nodes = (
"371 642 LINE",
"261 612 LINE",
"261 722 LINE",
"180 722 LINE",
"180 612 LINE",
"70 643 LINE",
"50 566 LINE",
"150 536 LINE",
"93 443 LINE",
"165 405 LINE",
"221 504 LINE",
"276 405 LINE",
"348 443 LINE",
"291 536 LINE",
"391 565 LINE"
);
}
);
width = 441;
}
);
unicode = 002A;
},
{
glyphname = hyphen;
lastChange = "2019-07-02 11:25:17 +0000";
layers = (
{
layerId = "35624636-21CC-465F-9DE1-D1867EA72944";
paths = (
{
closed = 1;
nodes = (
"90 323 LINE",
"90 320 LINE",
"90 240 LINE",
"90 238 LINE",
"93 238 LINE",
"363 238 LINE",
"365 238 LINE",
"365 240 LINE",
"365 320 LINE",
"365 323 LINE",
"363 323 LINE",
"93 323 LINE"
);
}
);
width = 455;
}
);
unicode = 002D;
},
{
glyphname = period;
lastChange = "2019-07-12 12:41:02 +0000";
layers = (
{
layerId = "35624636-21CC-465F-9DE1-D1867EA72944";
paths = (
{
closed = 1;
nodes = (
"162 275 OFFCURVE",
"100 213 OFFCURVE",
"100 137 CURVE SMOOTH",
"100 61 OFFCURVE",
"162 0 OFFCURVE",
"237 0 CURVE SMOOTH",
"313 0 OFFCURVE",
"375 61 OFFCURVE",
"375 137 CURVE SMOOTH",
"375 213 OFFCURVE",
"313 275 OFFCURVE",
"237 275 CURVE SMOOTH"
);
},
{
closed = 1;
nodes = (
"265 189 OFFCURVE",
"289 165 OFFCURVE",
"289 137 CURVE SMOOTH",
"289 109 OFFCURVE",
"265 86 OFFCURVE",
"237 86 CURVE SMOOTH",
"209 86 OFFCURVE",
"185 109 OFFCURVE",
"185 137 CURVE SMOOTH",
"185 165 OFFCURVE",
"209 189 OFFCURVE",
"237 189 CURVE SMOOTH"
);
}
);
width = 475;
}
);
leftKerningGroup = period;
rightKerningGroup = period;
unicode = 002E;
},
{
glyphname = slash;
lastChange = "2019-07-12 12:24:15 +0000";
layers = (
{
layerId = "35624636-21CC-465F-9DE1-D1867EA72944";
paths = (
{
closed = 1;
nodes = (
"20 -155 LINE",
"23 -156 LINE",
"23 -159 LINE",
"98 -159 LINE",
"98 -156 LINE",
"101 -157 LINE",
"312 796 LINE",
"309 798 LINE",
"309 800 LINE",
"235 800 LINE",
"235 798 LINE",
"233 799 LINE"
);
}
);
width = 337;
}
);
leftMetricsKey = A;
rightMetricsKey = V;
unicode = 002F;
},
{
glyphname = zero;
layers = (
{
hints = (
{
horizontal = 1;
place = "{0, 85.5}";
type = Stem;
},
{
horizontal = 1;
place = "{637.88, 85.5}";
type = Stem;
},
{
place = "{48.06, 85.5}";
type = Stem;
},
{
place = "{367.56, 84.38}";
type = Stem;
},
{
horizontal = 1;
place = "{721.69, -20}";
target = down;
type = TopGhost;
}
);
layerId = "35624636-21CC-465F-9DE1-D1867EA72944";
paths = (
{
closed = 1;
nodes = (
"138 723 OFFCURVE",
"48 632 OFFCURVE",
"48 521 CURVE SMOOTH",
"48 202 LINE",
"48 199 LINE SMOOTH",
"49 157 OFFCURVE",
"62 118 OFFCURVE",
"85 86 CURVE",
"48 4 LINE",
"51 3 LINE",
"51 0 LINE",
"131 0 LINE",
"131 3 LINE",
"134 2 LINE",
"146 29 LINE",
"176 11 OFFCURVE",
"212 0 OFFCURVE",
"249.99 0.02 CURVE SMOOTH",
"361.75 0.02 OFFCURVE",
"451.93 90.2 OFFCURVE",
"451.93 201.96 CURVE SMOOTH",
"451.93 521.46 LINE SMOOTH",
"452 564 OFFCURVE",
"438 604 OFFCURVE",
"415 637 CURVE",
"452 719 LINE",
"449 721 LINE",
"449 723 LINE",
"370 723 LINE",
"370 721 LINE",
"368 722 LINE",
"355 694 LINE",
"325 712 OFFCURVE",
"289 723 OFFCURVE",
"250 723 CURVE SMOOTH"
);
},
{
closed = 1;
nodes = (
"276 638 OFFCURVE",
"301 629 OFFCURVE",
"320 615 CURVE",
"134 196 LINE",
"134 198 OFFCURVE",
"134 200 OFFCURVE",
"134 202 CURVE SMOOTH",
"134 521 LINE",
"134 524 LINE SMOOTH",
"135 587 OFFCURVE",
"187 638 OFFCURVE",
"250 638 CURVE SMOOTH"
);
},
{
closed = 1;
nodes = (
"367 529 LINE",
"367 527 OFFCURVE",
"368 524 OFFCURVE",
"368 521 CURVE SMOOTH",
"368 202 LINE",
"368 199 LINE SMOOTH",
"366 136 OFFCURVE",
"314 86 OFFCURVE",
"250 86 CURVE SMOOTH",
"224 86 OFFCURVE",
"200 94 OFFCURVE",
"181 109 CURVE"
);
}
);
width = 500;
}
);
note = zero;
unicode = 0030;
},
{
glyphname = one;
layers = (
{
hints = (
{
horizontal = 1;
place = "{0, 21}";
target = up;
type = BottomGhost;
},
{
horizontal = 1;
place = "{723.38, -20}";
target = down;
type = TopGhost;
},
{
place = "{211.98, 85.5}";
type = Stem;
}
);
layerId = "35624636-21CC-465F-9DE1-D1867EA72944";
paths = (
{
closed = 1;
nodes = (
"211.98 723.38 LINE",
"211.98 721.13 LINE",
"52.51 442.69 LINE",
"55.04 441.28 LINE",
"55.04 438.75 LINE",
"134.92 438.75 LINE",
"134.92 441.28 LINE",
"137.45 439.87 LINE",
"211.98 570.09 LINE",
"211.98 2.81 LINE",
"211.98 0 LINE",
"214.79 0 LINE",
"254.17 0 LINE",
"294.67 0 LINE",
"297.48 0 LINE",
"297.48 2.81 LINE",
"297.48 720.56 LINE",
"297.48 723.37 LINE",
"294.67 723.37 LINE",
"214.8 723.37 LINE"
);
}
);
width = 350;
}
);
note = one;
unicode = 0031;
},
{
glyphname = two;
lastChange = "2019-07-12 11:57:03 +0000";
layers = (
{
associatedMasterId = "35624636-21CC-465F-9DE1-D1867EA72944";
hints = (
{
horizontal = 1;
place = "{0, 85.5}";
type = Stem;
},
{
horizontal = 1;
place = "{637.88, 85.5}";
type = Stem;
},
{
place = "{50.31, 79.88}";
type = Stem;
},
{
place = "{367, 85.5}";
type = Stem;
}
);
layerId = "40A27515-3E5D-4B8C-A8D7-64E80B0DE0E7";
name = "Jul 5 19, 09:58";
paths = (
{
closed = 1;
nodes = (
"88 723 LINE",
"88 721 LINE",
"88 641 LINE",
"88 638 LINE",
"88 404 LINE",
"88 401 LINE",
"88 321 LINE",
"88 318 LINE",
"91 318 LINE",
"130 318 LINE",
"171 318 LINE",
"174 318 LINE",
"251 318 LINE",
"253 318 LINE SMOOTH",
"316 317 OFFCURVE",
"367 266 OFFCURVE",
"367 202 CURVE SMOOTH",
"367 137 OFFCURVE",
"314 86 OFFCURVE",
"251 86 CURVE SMOOTH",
"186 86 OFFCURVE",
"133 137 OFFCURVE",
"133 202 CURVE",
"130 202 LINE",
"130 205 LINE",
"50 205 LINE",
"50 202 LINE",
"48 202 LINE",
"48 90 OFFCURVE",
"139 0 OFFCURVE",
"251 0 CURVE SMOOTH",
"361 0 OFFCURVE",
"453 90 OFFCURVE",
"453 202 CURVE SMOOTH",
"453 313 OFFCURVE",
"363 402 OFFCURVE",
"253 404 CURVE SMOOTH",
"251 404 LINE",
"174 404 LINE",
"174 638 LINE",
"251 638 LINE",
"409 638 LINE",
"412 638 LINE",
"412 641 LINE",
"412 721 LINE",
"412 723 LINE",
"409 723 LINE",
"91 723 LINE"
);
}
);
width = 500;
},
{
associatedMasterId = "35624636-21CC-465F-9DE1-D1867EA72944";
hints = (
{
horizontal = 1;
place = "{0, 85.5}";
type = Stem;
},
{
horizontal = 1;
place = "{637.88, 85.5}";
type = Stem;
},
{
place = "{50.31, 79.88}";
type = Stem;
},
{
place = "{367, 85.5}";
type = Stem;
}
);
layerId = "DA23FBC3-015C-44EC-AD01-A13E49DD285C";
name = "Jul 12 19, 13:57";
paths = (
{
closed = 1;
nodes = (
"453 633 OFFCURVE",
"361 723 OFFCURVE",
"251 723 CURVE SMOOTH",
"139 723 OFFCURVE",
"47 635 OFFCURVE",
"48 518 CURVE",
"133 518 LINE",
"133 588 OFFCURVE",
"187 637 OFFCURVE",
"251 637 CURVE SMOOTH",
"314 637 OFFCURVE",
"367 586 OFFCURVE",
"367 521 CURVE",
"453 521 LINE"
);
},
{
closed = 1;
nodes = (
"367 521 LINE",
"367 456 OFFCURVE",
"314 405 OFFCURVE",
"251 405 CURVE",
"251 319 LINE",
"361 319 OFFCURVE",
"453 409 OFFCURVE",
"453 521 CURVE"
);
},
{
closed = 1;
nodes = (
"135 203 LINE",
"135 268 OFFCURVE",
"188 319 OFFCURVE",
"251 319 CURVE",
"251 405 LINE",
"141 405 OFFCURVE",
"49 315 OFFCURVE",
"49 203 CURVE"
);
},
{
closed = 1;
nodes = (
"50 0 LINE",
"434 0 LINE",
"434 83 LINE",
"50 83 LINE"
);
},
{
closed = 1;
nodes = (
"49 53 LINE",
"135 53 LINE",
"135 212 LINE",
"49 212 LINE"
);
}
);
width = 500;
},
{
hints = (
{
horizontal = 1;
place = "{0, 85.5}";
type = Stem;
},
{
horizontal = 1;
place = "{637.88, 85.5}";
type = Stem;
},
{
place = "{50.31, 79.88}";
type = Stem;
},
{
place = "{367, 85.5}";
type = Stem;
}
);
layerId = "35624636-21CC-465F-9DE1-D1867EA72944";
paths = (
{
closed = 1;
nodes = (
"452 520 LINE",
"453 521 LINE",
"453 632 OFFCURVE",
"361 723 OFFCURVE",
"251 723 CURVE SMOOTH",
"139 723 OFFCURVE",
"48 632 OFFCURVE",
"48 521 CURVE",
"50 521 LINE",
"50 519 LINE",
"130 519 LINE",
"130 521 LINE",
"133 521 LINE",
"133 585 OFFCURVE",
"186 638 OFFCURVE",
"251 638 CURVE SMOOTH",
"314 638 OFFCURVE",
"366 586 OFFCURVE",
"367 523 CURVE",
"48 5 LINE",
"50 3 LINE",
"50 0 LINE",
"127 0 LINE",
"130 0 LINE",
"290 0 LINE",
"450 0 LINE",
"452 0 LINE",
"452 3 LINE",
"452 83 LINE",
"452 86 LINE",
"450 86 LINE",
"184 86 LINE"
);
}
);
width = 500;
}
);
note = two;
unicode = 0032;
},
{
glyphname = three;
lastChange = "2019-07-15 08:36:01 +0000";
layers = (
{
background = {
paths = (
{
closed = 1;
nodes = (
"226 318 LINE SMOOTH",
"336 318 OFFCURVE",
"425 409 OFFCURVE",
"425 520 CURVE",
"340 517 LINE",
"338 455 OFFCURVE",
"288 404 OFFCURVE",
"226 404 CURVE SMOOTH",
"224 404 LINE",
"223 404 LINE",
"175 404 LINE",
"172 404 LINE",
"172 401 LINE",
"172 321 LINE",
"172 318 LINE",
"175 318 LINE",
"224 318 LINE"
);
},
{
closed = 1;
nodes = (
"169 404 LINE",
"167 404 LINE",
"167 401 LINE",
"167 321 LINE",
"167 318 LINE",
"170 318 LINE",
"231 318 LINE",
"250 318 LINE SMOOTH",
"315 318 OFFCURVE",
"367 267 OFFCURVE",
"367 202 CURVE SMOOTH",
"367 137 OFFCURVE",
"315 86 OFFCURVE",
"250 86 CURVE SMOOTH",
"186 86 OFFCURVE",
"134 137 OFFCURVE",
"134 202 CURVE",
"131 202 LINE",
"131 205 LINE",
"51 205 LINE",
"51 202 LINE",
"48 202 LINE",
"48 90 OFFCURVE",
"138 0 OFFCURVE",
"250 0 CURVE SMOOTH",
"362 0 OFFCURVE",
"452 90 OFFCURVE",
"452 202 CURVE SMOOTH",
"452 311 OFFCURVE",
"366 400 OFFCURVE",
"257 404 CURVE SMOOTH",
"255 404 LINE"
);
},
{
closed = 1;
nodes = (
"422 723 LINE",
"91 723 LINE",
"89 723 LINE",
"89 721 LINE",
"89 641 LINE",
"89 638 LINE",
"91 638 LINE",
"231 638 LINE",
"422 638 LINE"
);
},
{
closed = 1;
nodes = (
"340 520 LINE",
"425 520 LINE",
"425 677 LINE",
"340 677 LINE"
);
}
);
};
hints = (
{
horizontal = 1;
place = "{0, 85.5}";
type = Stem;
},
{
horizontal = 1;
place = "{318.38, 85.5}";
type = Stem;
},
{
horizontal = 1;
place = "{637.88, 85.5}";
type = Stem;
},
{
place = "{50.88, 79.87}";
type = Stem;
},
{
place = "{367.49, 84.45}";
type = Stem;
}
);
layerId = "35624636-21CC-465F-9DE1-D1867EA72944";
paths = (
{
closed = 1;
nodes = (
"89 638 LINE",
"315 638 LINE",
"167 404 LINE",
"167 318 LINE",
"250 318 LINE SMOOTH",
"315 318 OFFCURVE",
"367 267 OFFCURVE",
"367 202 CURVE SMOOTH",
"367 137 OFFCURVE",
"315 86 OFFCURVE",
"250 86 CURVE SMOOTH",
"186 86 OFFCURVE",
"134 137 OFFCURVE",
"134 202 CURVE",
"134 205 LINE",
"48 205 LINE",
"48 202 LINE",
"48 90 OFFCURVE",
"138 0 OFFCURVE",
"250 0 CURVE SMOOTH",
"362 0 OFFCURVE",
"452 90 OFFCURVE",
"452 202 CURVE SMOOTH",
"452 311 OFFCURVE",
"366 400 OFFCURVE",
"257 404 CURVE SMOOTH",
"255 404 LINE",
"453 723 LINE",
"89 723 LINE"
);
}
);
width = 500;
},
{
associatedMasterId = "35624636-21CC-465F-9DE1-D1867EA72944";
background = {
paths = (
{
closed = 1;
nodes = (
"226 318 LINE SMOOTH",
"336 318 OFFCURVE",
"425 409 OFFCURVE",
"425 520 CURVE",
"340 517 LINE",
"338 455 OFFCURVE",
"288 404 OFFCURVE",
"226 404 CURVE SMOOTH",
"224 404 LINE",
"223 404 LINE",
"175 404 LINE",
"172 404 LINE",
"172 401 LINE",
"172 321 LINE",
"172 318 LINE",
"175 318 LINE",
"224 318 LINE"
);
},
{
closed = 1;
nodes = (
"169 404 LINE",
"167 404 LINE",
"167 401 LINE",
"167 321 LINE",
"167 318 LINE",
"170 318 LINE",
"231 318 LINE",
"250 318 LINE SMOOTH",
"315 318 OFFCURVE",
"367 267 OFFCURVE",
"367 202 CURVE SMOOTH",
"367 137 OFFCURVE",
"315 86 OFFCURVE",
"250 86 CURVE SMOOTH",
"186 86 OFFCURVE",
"134 137 OFFCURVE",
"134 202 CURVE",
"131 202 LINE",
"131 205 LINE",
"51 205 LINE",
"51 202 LINE",
"48 202 LINE",
"48 90 OFFCURVE",
"138 0 OFFCURVE",
"250 0 CURVE SMOOTH",
"362 0 OFFCURVE",
"452 90 OFFCURVE",
"452 202 CURVE SMOOTH",
"452 311 OFFCURVE",
"366 400 OFFCURVE",
"257 404 CURVE SMOOTH",
"255 404 LINE"
);
},
{
closed = 1;
nodes = (
"422 723 LINE",
"91 723 LINE",
"89 723 LINE",
"89 721 LINE",
"89 641 LINE",
"89 638 LINE",
"91 638 LINE",
"231 638 LINE",
"422 638 LINE"
);
}
);
};
hints = (
{
horizontal = 1;
place = "{0, 85.5}";
type = Stem;
},
{
horizontal = 1;
place = "{318.38, 85.5}";
type = Stem;
},
{
horizontal = 1;
place = "{637.88, 85.5}";
type = Stem;
},
{
place = "{50.88, 79.87}";
type = Stem;
},
{
place = "{367.49, 84.45}";
type = Stem;
}
);
layerId = "04C07505-85A6-4542-843D-84C717C6BA44";
name = "Jul 5 19, 15:20";
paths = (
{
closed = 1;
nodes = (
"89 721 LINE",
"89 641 LINE",
"89 638 LINE",
"91 638 LINE",
"231 638 LINE",
"315 638 LINE",
"169 404 LINE",
"167 404 LINE",
"167 401 LINE",
"167 321 LINE",
"167 318 LINE",
"170 318 LINE",
"231 318 LINE",
"250 318 LINE SMOOTH",
"315 318 OFFCURVE",
"367 267 OFFCURVE",
"367 202 CURVE SMOOTH",
"367 137 OFFCURVE",
"315 86 OFFCURVE",
"250 86 CURVE SMOOTH",
"186 86 OFFCURVE",
"134 137 OFFCURVE",
"134 202 CURVE",
"131 202 LINE",
"131 205 LINE",
"51 205 LINE",
"51 202 LINE",
"48 202 LINE",
"48 90 OFFCURVE",
"138 0 OFFCURVE",
"250 0 CURVE SMOOTH",
"362 0 OFFCURVE",
"452 90 OFFCURVE",
"452 202 CURVE SMOOTH",
"452 311 OFFCURVE",
"366 400 OFFCURVE",
"257 404 CURVE SMOOTH",
"255 404 LINE",
"451 719 LINE",
"449 721 LINE",
"449 723 LINE",
"373 723 LINE",
"370 723 LINE",
"91 723 LINE",
"89 723 LINE"
);
}
);
width = 500;
}
);
note = three;
unicode = 0033;
},
{
glyphname = four;
layers = (
{
hints = (
{
horizontal = 1;
place = "{0, 21}";
target = up;
type = BottomGhost;
},
{
horizontal = 1;
place = "{238.5, 85.5}";
type = Stem;
},
{
horizontal = 1;
place = "{723.38, -20}";
target = down;
type = TopGhost;
},
{
place = "{327.48, 85.5}";
type = Stem;
}
);
layerId = "35624636-21CC-465F-9DE1-D1867EA72944";
paths = (
{
closed = 1;
nodes = (
"327.48 723.38 LINE",
"327.48 720.57 LINE",
"327.48 324.01 LINE",
"126.67 324.01 LINE",
"252.95 639.57 LINE",
"250.42 640.7 LINE",
"250.42 643.51 LINE",
"170.55 643.51 LINE",
"170.55 640.7 LINE",
"167.74 641.82 LINE",
"8.27 242.45 LINE",
"10.8 241.32 LINE",
"10.8 238.51 LINE",
"87.86 238.51 LINE",
"90.67 238.51 LINE",
"289.8 238.51 LINE",
"327.49 238.51 LINE",
"327.49 2.82 LINE",
"327.49 0.01 LINE",
"330.3 0.01 LINE",
"369.68 0.01 LINE",
"410.18 0.01 LINE",
"412.99 0.01 LINE",
"412.99 2.82 LINE",
"412.99 238.51 LINE",
"488.93 238.51 LINE",
"491.74 238.51 LINE",
"491.74 241.32 LINE",
"491.74 321.2 LINE",
"491.74 324.01 LINE",
"488.93 324.01 LINE",
"412.99 324.01 LINE",
"412.99 720.57 LINE",
"412.99 723.38 LINE",
"410.18 723.38 LINE",
"330.31 723.38 LINE"
);
}
);
width = 500;
}
);
note = four;
unicode = 0034;
},
{
glyphname = five;
lastChange = "2019-07-12 12:13:04 +0000";
layers = (
{
associatedMasterId = "35624636-21CC-465F-9DE1-D1867EA72944";
hints = (
{
horizontal = 1;
place = "{0, 85.5}";
type = Stem;
},
{
horizontal = 1;
place = "{318.38, 85.5}";
type = Stem;
},
{
horizontal = 1;
place = "{637.88, 85.5}";
type = Stem;
},
{
place = "{88, 85.5}";
type = Stem;
},
{
place = "{367, 85.5}";
type = Stem;
},
{
place = "{50.31, 79.88}";
type = Stem;
}
);
layerId = "A46C6D06-CE3D-4971-B2B0-839FA17B6666";
name = "Jul 12 19, 13:30";
paths = (
{
closed = 1;
nodes = (
"58 723 LINE",
"58 399 LINE",
"253 399 LINE",
"253 484 LINE",
"144 484 LINE",
"144 638 LINE",
"412 638 LINE",
"412 723 LINE"
);
},
{
closed = 1;
nodes = (
"248 484 OFFCURVE",
"248 398 OFFCURVE",
"251 398 CURVE SMOOTH",
"316 398 OFFCURVE",
"369 347 OFFCURVE",
"369 282 CURVE SMOOTH",
"369 199 LINE SMOOTH",
"367 137 OFFCURVE",
"315 86 OFFCURVE",
"251 86 CURVE SMOOTH",
"188 86 OFFCURVE",
"135 138 OFFCURVE",
"135 202 CURVE",
"50 199 LINE",
"51 89 OFFCURVE",
"142 0 OFFCURVE",
"251 0 CURVE SMOOTH",
"362 0 OFFCURVE",
"453 89 OFFCURVE",
"455 199 CURVE SMOOTH",
"455 169 OFFCURVE",
"455 202 OFFCURVE",
"455 282 CURVE SMOOTH",
"455 394 OFFCURVE",
"363 484 OFFCURVE",
"251 484 CURVE SMOOTH"
);
}
);
width = 500;
},
{
hints = (
{
horizontal = 1;
place = "{0, 85.5}";
type = Stem;
},
{
horizontal = 1;
place = "{318.38, 85.5}";
type = Stem;
},
{
horizontal = 1;
place = "{637.88, 85.5}";
type = Stem;
},
{
place = "{88, 85.5}";
type = Stem;
},
{
place = "{367, 85.5}";
type = Stem;
},
{
place = "{50.31, 79.88}";
type = Stem;
}
);
layerId = "35624636-21CC-465F-9DE1-D1867EA72944";
paths = (
{
closed = 1;
nodes = (
"88 723 LINE",
"88 318 LINE",
"253.37 318.4 LINE SMOOTH",
"315.82 316.91 OFFCURVE",
"367 265.85 OFFCURVE",
"367 201.96 CURVE SMOOTH",
"367 137 OFFCURVE",
"314 86 OFFCURVE",
"251 86 CURVE SMOOTH",
"187 86 OFFCURVE",
"133 135 OFFCURVE",
"133 205 CURVE",
"48 205 LINE",
"47 88 OFFCURVE",
"139 0 OFFCURVE",
"251 0 CURVE SMOOTH",
"361 0 OFFCURVE",
"453 90 OFFCURVE",
"453 202 CURVE SMOOTH",
"453 313 OFFCURVE",
"363 402 OFFCURVE",
"253.38 403.9 CURVE SMOOTH",
"174 404 LINE",
"174 638 LINE",
"412 638 LINE",
"412 723 LINE"
);
}
);
width = 500;
}
);
note = five;
unicode = 0035;
},
{
glyphname = six;
layers = (
{
hints = (
{
horizontal = 1;
place = "{0, 85.5}";
type = Stem;
},
{
horizontal = 1;
place = "{358.88, 85.5}";
type = Stem;
},
{
horizontal = 1;
place = "{637.88, 85.5}";
type = Stem;
},
{
place = "{48.06, 85.5}";
type = Stem;
},
{
place = "{366.44, 85.5}";
type = Stem;
}
);
layerId = "35624636-21CC-465F-9DE1-D1867EA72944";
paths = (
{
closed = 1;
nodes = (
"139.16 723.38 OFFCURVE",
"49.57 633.64 OFFCURVE",
"48.06 524.26 CURVE SMOOTH",
"48.06 521.45 LINE",
"48.06 201.95 LINE",
"48.06 199.14 LINE SMOOTH",
"49.56 88.69 OFFCURVE",
"139.18 0.01 OFFCURVE",
"250 0.01 CURVE SMOOTH",
"361.76 0.01 OFFCURVE",
"451.94 90.19 OFFCURVE",
"451.94 201.95 CURVE SMOOTH",
"451.94 241.32 LINE",
"451.94 244.13 LINE SMOOTH",
"450.43 354.6 OFFCURVE",
"360.84 444.38 OFFCURVE",
"250 444.38 CURVE SMOOTH",
"206.56 444.38 OFFCURVE",
"166.43 430.35 OFFCURVE",
"133.56 406.97 CURVE",
"133.56 521.44 LINE",
"133.56 524.25 LINE SMOOTH",
"135.06 586.71 OFFCURVE",
"186.11 637.88 OFFCURVE",
"250 637.88 CURVE SMOOTH",
"314.85 637.88 OFFCURVE",
"366.44 585.17 OFFCURVE",
"366.44 521.44 CURVE",
"369.25 521.44 LINE",
"369.25 518.63 LINE",
"449.13 518.63 LINE",
"449.13 521.44 LINE",
"451.94 521.44 LINE",
"451.94 632.09 OFFCURVE",
"361.78 723.38 OFFCURVE",
"250 723.38 CURVE SMOOTH"
);
},
{
closed = 1;
nodes = (
"314.85 358.88 OFFCURVE",
"366.44 306.2 OFFCURVE",
"366.44 241.32 CURVE SMOOTH",
"366.44 201.95 LINE SMOOTH",
"366.44 137.07 OFFCURVE",
"314.88 85.51 OFFCURVE",
"250 85.51 CURVE SMOOTH",
"185.12 85.51 OFFCURVE",
"133.56 137.07 OFFCURVE",
"133.56 201.95 CURVE SMOOTH",
"133.56 241.32 LINE SMOOTH",
"133.56 306.2 OFFCURVE",
"185.15 358.88 OFFCURVE",
"250 358.88 CURVE SMOOTH"
);
}
);
width = 500;
}
);
note = six;
unicode = 0036;
},
{
glyphname = seven;
lastChange = "2019-07-16 11:34:13 +0000";
layers = (
{
hints = (
{
horizontal = 1;
place = "{0.31, 21}";
target = up;
type = BottomGhost;
},
{
horizontal = 1;
place = "{638.19, 85.5}";
type = Stem;
}
);
layerId = "35624636-21CC-465F-9DE1-D1867EA72944";
paths = (
{
closed = 1;
nodes = (
"142 0 LINE",
"454 723 LINE",
"48 723 LINE",
"48 637 LINE",
"320 637 LINE",
"46 0 LINE"
);
}
);
width = 500;
}
);
note = seven;
unicode = 0037;
},
{
glyphname = eight;
layers = (
{
hints = (
{
horizontal = 1;
place = "{0, 85.5}";
type = Stem;
},
{
horizontal = 1;
place = "{318.38, 85.5}";
type = Stem;
},
{
horizontal = 1;
place = "{637.88, 85.5}";
type = Stem;
},
{
place = "{47.5, 85.5}";
type = Stem;
},
{
place = "{367, 85.5}";
type = Stem;
}
);
layerId = "35624636-21CC-465F-9DE1-D1867EA72944";
paths = (
{
closed = 1;
nodes = (
"138.78 723.38 OFFCURVE",
"47.5 632.11 OFFCURVE",
"47.5 521.44 CURVE SMOOTH",
"47.5 456.52 OFFCURVE",
"78.31 398.67 OFFCURVE",
"125.97 361.41 CURVE",
"78.28 324.55 OFFCURVE",
"47.5 266.88 OFFCURVE",
"47.5 201.94 CURVE SMOOTH",
"47.5 90.16 OFFCURVE",
"138.8 0 OFFCURVE",
"250.56 0 CURVE SMOOTH",
"361.22 0 OFFCURVE",
"452.5 90.16 OFFCURVE",
"452.5 201.94 CURVE SMOOTH",
"452.5 266.88 OFFCURVE",
"421.62 324.55 OFFCURVE",
"374.03 361.41 CURVE",
"421.58 398.68 OFFCURVE",
"452.5 456.53 OFFCURVE",
"452.5 521.44 CURVE SMOOTH",
"452.5 632.11 OFFCURVE",
"361.23 723.38 OFFCURVE",
"250.56 723.38 CURVE SMOOTH"
);
},
{
closed = 1;
nodes = (
"314.25 637.88 OFFCURVE",
"367 585.14 OFFCURVE",
"367 521.44 CURVE SMOOTH",
"367 456.59 OFFCURVE",
"314.26 403.88 OFFCURVE",
"250.56 403.88 CURVE SMOOTH",
"185.72 403.88 OFFCURVE",
"133 456.6 OFFCURVE",
"133 521.44 CURVE SMOOTH",
"133 585.13 OFFCURVE",
"185.72 637.88 OFFCURVE",
"250.56 637.88 CURVE SMOOTH"
);
},
{
closed = 1;
nodes = (
"314.29 318.38 OFFCURVE",
"367 266.79 OFFCURVE",
"367 201.94 CURVE SMOOTH",
"367 137.09 OFFCURVE",
"314.29 85.5 OFFCURVE",
"250.56 85.5 CURVE SMOOTH",
"185.68 85.5 OFFCURVE",
"133 137.09 OFFCURVE",
"133 201.94 CURVE SMOOTH",
"133 266.78 OFFCURVE",
"185.68 318.38 OFFCURVE",
"250.56 318.38 CURVE SMOOTH"
);
}
);
width = 500;
}
);
note = eight;
unicode = 0038;
},
{
glyphname = nine;
layers = (
{
hints = (
{
horizontal = 1;
place = "{0, 85.5}";
type = Stem;
},
{
horizontal = 1;
place = "{279, 85.5}";
type = Stem;
},
{
horizontal = 1;
place = "{637.88, 85.5}";
type = Stem;
},
{
place = "{48.06, 84.38}";
type = Stem;
},
{
place = "{366.44, 85.5}";
type = Stem;
}
);
layerId = "35624636-21CC-465F-9DE1-D1867EA72944";
paths = (
{
closed = 1;
nodes = (
"139.16 723.38 OFFCURVE",
"49.57 633.64 OFFCURVE",
"48.06 524.26 CURVE SMOOTH",
"48.06 521.45 LINE",
"48.06 480.95 LINE",
"48.06 478.14 LINE SMOOTH",
"49.52 367.65 OFFCURVE",
"139.15 279.02 OFFCURVE",
"250 279.02 CURVE SMOOTH",
"293.44 279.02 OFFCURVE",
"333.51 292.68 OFFCURVE",
"366.44 315.86 CURVE",
"366.44 201.95 LINE",
"366.44 199.14 LINE SMOOTH",
"364.9 135.65 OFFCURVE",
"312.78 85.52 OFFCURVE",
"250 85.52 CURVE SMOOTH",
"185.12 85.52 OFFCURVE",
"132.44 137.11 OFFCURVE",
"132.44 201.96 CURVE",
"129.63 201.96 LINE",
"129.63 204.77 LINE",
"50.88 204.77 LINE",
"50.88 201.96 LINE",
"48.07 201.96 LINE",
"48.07 90.2 OFFCURVE",
"138.25 0.02 OFFCURVE",
"250.01 0.02 CURVE SMOOTH",
"361.77 0.02 OFFCURVE",
"451.95 90.2 OFFCURVE",
"451.95 201.96 CURVE SMOOTH",
"451.95 521.46 LINE SMOOTH",
"451.95 522.39 OFFCURVE",
"451.96 523.34 OFFCURVE",
"451.95 524.27 CURVE SMOOTH",
"450.44 633.66 OFFCURVE",
"360.85 723.4 OFFCURVE",
"250.01 723.4 CURVE SMOOTH"
);
},
{
closed = 1;
nodes = (
"313.7 637.9 OFFCURVE",
"366.45 585.16 OFFCURVE",
"366.45 521.46 CURVE SMOOTH",
"366.45 480.96 LINE SMOOTH",
"366.45 416.11 OFFCURVE",
"313.74 364.52 OFFCURVE",
"250.01 364.52 CURVE SMOOTH",
"185.13 364.52 OFFCURVE",
"132.45 416.11 OFFCURVE",
"132.45 480.96 CURVE SMOOTH",
"132.45 521.46 LINE",
"132.45 524.27 LINE SMOOTH",
"133.98 586.69 OFFCURVE",
"186.12 637.9 OFFCURVE",
"250.01 637.9 CURVE SMOOTH"
);
},
{
closed = 1;
nodes = (
"126.82 518.65 LINE"
);
},
{
closed = 1;
nodes = (
"53.7 518.65 LINE"
);
}
);
width = 500;
}
);
note = nine;
unicode = 0039;
},
{
glyphname = colon;
lastChange = "2019-07-02 10:54:40 +0000";
layers = (
{
layerId = "35624636-21CC-465F-9DE1-D1867EA72944";
paths = (
{
closed = 1;
nodes = (
"160 275 OFFCURVE",
"98 213 OFFCURVE",
"98 137 CURVE SMOOTH",
"98 61 OFFCURVE",
"160 0 OFFCURVE",
"235 0 CURVE SMOOTH",
"311 0 OFFCURVE",
"373 61 OFFCURVE",
"373 137 CURVE SMOOTH",
"373 213 OFFCURVE",
"311 275 OFFCURVE",
"235 275 CURVE SMOOTH"
);
},
{
closed = 1;
nodes = (
"267 195 OFFCURVE",
"293 169 OFFCURVE",
"293 137 CURVE SMOOTH",
"293 105 OFFCURVE",
"267 80 OFFCURVE",
"235 80 CURVE SMOOTH",
"204 80 OFFCURVE",
"177 105 OFFCURVE",
"177 137 CURVE SMOOTH",
"177 169 OFFCURVE",
"204 195 OFFCURVE",
"235 195 CURVE SMOOTH"
);
},
{
closed = 1;
nodes = (
"160 470 OFFCURVE",
"98 408 OFFCURVE",
"98 332 CURVE SMOOTH",
"98 256 OFFCURVE",
"160 195 OFFCURVE",
"235 195 CURVE SMOOTH",
"311 195 OFFCURVE",
"373 256 OFFCURVE",
"373 332 CURVE SMOOTH",
"373 408 OFFCURVE",
"311 470 OFFCURVE",
"235 470 CURVE SMOOTH"
);
},
{
closed = 1;
nodes = (
"267 390 OFFCURVE",
"293 364 OFFCURVE",
"293 332 CURVE SMOOTH",
"293 300 OFFCURVE",
"267 275 OFFCURVE",
"235 275 CURVE SMOOTH",
"204 275 OFFCURVE",
"177 300 OFFCURVE",
"177 332 CURVE SMOOTH",
"177 364 OFFCURVE",
"204 390 OFFCURVE",
"235 390 CURVE SMOOTH"
);
}
);
width = 601;
}
);
unicode = 003A;
},
{
glyphname = question;
lastChange = "2019-07-04 20:08:19 +0000";
layers = (
{
components = (
{
name = period;
}
);
layerId = "35624636-21CC-465F-9DE1-D1867EA72944";
paths = (
{
closed = 1;
nodes = (
"255 319 LINE",
"257 319 LINE SMOOTH",
"366 323 OFFCURVE",
"452 412 OFFCURVE",
"452 521 CURVE SMOOTH",
"452 633 OFFCURVE",
"362 723 OFFCURVE",
"250 723 CURVE SMOOTH",
"138 723 OFFCURVE",
"48 633 OFFCURVE",
"48 521 CURVE",
"51 521 LINE",
"51 518 LINE",
"131 518 LINE",
"131 521 LINE",
"134 521 LINE",
"134 586 OFFCURVE",
"186 637 OFFCURVE",
"250 637 CURVE SMOOTH",
"315 637 OFFCURVE",
"367 586 OFFCURVE",
"367 521 CURVE SMOOTH",
"367 456 OFFCURVE",
"315 405 OFFCURVE",
"250 405 CURVE SMOOTH",
"231 405 LINE",
"170 405 LINE",
"167 405 LINE",
"167 402 LINE",
"167 322 LINE",
"167 319 LINE",
"169 319 LINE"
);
}
);
width = 500;
}
);
unicode = 003F;
},
{
glyphname = at;
lastChange = "2019-07-12 11:21:09 +0000";
layers = (
{
layerId = "35624636-21CC-465F-9DE1-D1867EA72944";
paths = (
{
closed = 1;
nodes = (
"497 0 OFFCURVE",
"579 82 OFFCURVE",
"579 184 CURVE SMOOTH",
"579 282 OFFCURVE",
"497 365 OFFCURVE",
"397 365 CURVE SMOOTH",
"297 365 OFFCURVE",
"214 282 OFFCURVE",
"214 184 CURVE SMOOTH",
"214 82 OFFCURVE",
"297 0 OFFCURVE",
"397 0 CURVE SMOOTH"
);
},
{
closed = 1;
nodes = (
"344 84 OFFCURVE",
"299 128 OFFCURVE",
"299 184 CURVE SMOOTH",
"299 235 OFFCURVE",
"344 280 OFFCURVE",
"396 280 CURVE SMOOTH",
"451 280 OFFCURVE",
"495 235 OFFCURVE",
"495 184 CURVE SMOOTH",
"495 128 OFFCURVE",
"451 84 OFFCURVE",
"396 84 CURVE SMOOTH"
);
},
{
closed = 1;
nodes = (
"533 142 LINE",
"632 142 LINE",
"632 227 LINE",
"533 227 LINE"
);
},
{
closed = 1;
nodes = (
"269 583 LINE SMOOTH",
"160 583 OFFCURVE",
"70 494 OFFCURVE",
"70 384 CURVE SMOOTH",
"70 39 LINE SMOOTH",
"70 -70 OFFCURVE",
"161 -160 OFFCURVE",
"272 -160 CURVE SMOOTH",
"524 -160 LINE",
"524 -74 LINE",
"272 -74 LINE SMOOTH",
"207 -74 OFFCURVE",
"156 -22 OFFCURVE",
"156 42 CURVE SMOOTH",
"156 384 LINE SMOOTH",
"156 447 OFFCURVE",
"207 498 OFFCURVE",
"269 498 CURVE SMOOTH",
"498 498 LINE SMOOTH",
"560 498 OFFCURVE",
"601 447 OFFCURVE",
"601 384 CURVE SMOOTH",
"601 -1 LINE",
"687 -1 LINE",
"687 384 LINE SMOOTH",
"687 494 OFFCURVE",
"607 583 OFFCURVE",
"498 583 CURVE SMOOTH"
);
}
);
width = 757;
},
{
associatedMasterId = "35624636-21CC-465F-9DE1-D1867EA72944";
layerId = "8FB9D382-C9A3-48FA-AEB7-09C1B668D7A6";
name = "Jul 2 19, 13:30";
paths = (
{
closed = 1;
nodes = (
"189 484 OFFCURVE",
"98 394 OFFCURVE",
"98 282 CURVE SMOOTH",
"98 170 OFFCURVE",
"189 80 OFFCURVE",
"299 80 CURVE SMOOTH",
"411 80 OFFCURVE",
"503 170 OFFCURVE",
"503 282 CURVE SMOOTH",
"503 394 OFFCURVE",
"411 484 OFFCURVE",
"299 484 CURVE SMOOTH"
);
},
{
closed = 1;
nodes = (
"367 404 OFFCURVE",
"423 350 OFFCURVE",
"423 282 CURVE SMOOTH",
"423 214 OFFCURVE",
"367 160 OFFCURVE",
"299 160 CURVE SMOOTH",
"233 160 OFFCURVE",
"177 214 OFFCURVE",
"177 282 CURVE SMOOTH",
"177 350 OFFCURVE",
"233 404 OFFCURVE",
"299 404 CURVE SMOOTH"
);
}
);
width = 600;
},
{
associatedMasterId = "35624636-21CC-465F-9DE1-D1867EA72944";
layerId = "090ED33D-C76A-4C4E-A547-394BED9AD7FD";
name = "Jul 2 19, 13:37";
paths = (
{
closed = 1;
nodes = (
"132 -121 OFFCURVE",
"302 2 OFFCURVE",
"441 209 CURVE SMOOTH",
"579 415 OFFCURVE",
"631 618 OFFCURVE",
"552 671 CURVE SMOOTH",
"474 724 OFFCURVE",
"305 602 OFFCURVE",
"165 395 CURVE SMOOTH",
"26 189 OFFCURVE",
"-25 -15 OFFCURVE",
"54 -68 CURVE SMOOTH"
);
},
{
closed = 1;
nodes = (
"4 -5 OFFCURVE",
"55 190 OFFCURVE",
"185 382 CURVE SMOOTH",
"315 574 OFFCURVE",
"476 693 OFFCURVE",
"539 651 CURVE SMOOTH",
"602 609 OFFCURVE",
"551 413 OFFCURVE",
"421 222 CURVE SMOOTH",
"291 31 OFFCURVE",
"130 -91 OFFCURVE",
"67 -48 CURVE SMOOTH"
);
},
{
closed = 1;
nodes = (
"631 -15 OFFCURVE",
"580 189 OFFCURVE",
"441 395 CURVE SMOOTH",
"301 602 OFFCURVE",
"132 724 OFFCURVE",
"54 671 CURVE SMOOTH",
"-25 618 OFFCURVE",
"27 415 OFFCURVE",
"165 209 CURVE SMOOTH",
"304 2 OFFCURVE",
"474 -121 OFFCURVE",
"552 -68 CURVE SMOOTH"
);
},
{
closed = 1;
nodes = (
"476 -91 OFFCURVE",
"315 31 OFFCURVE",
"185 222 CURVE SMOOTH",
"55 413 OFFCURVE",
"4 609 OFFCURVE",
"67 651 CURVE SMOOTH",
"130 693 OFFCURVE",
"291 574 OFFCURVE",
"421 382 CURVE SMOOTH",
"551 190 OFFCURVE",
"602 -5 OFFCURVE",
"539 -48 CURVE SMOOTH"
);
}
);
width = 619;
},
{
associatedMasterId = "35624636-21CC-465F-9DE1-D1867EA72944";
layerId = "54B07227-1B97-46F7-9FA5-B4F3C9147D7B";
name = "Jul 4 19, 15:42";
paths = (
{
closed = 1;
nodes = (
"249 723 LINE SMOOTH",
"140 722 OFFCURVE",
"52 634 OFFCURVE",
"50 524 CURVE SMOOTH",
"50 521 LINE",
"50 202 LINE",
"50 199 LINE SMOOTH",
"52 90 OFFCURVE",
"141 0 OFFCURVE",
"252 0 CURVE SMOOTH",
"451 0 LINE",
"454 0 LINE",
"454 3 LINE",
"454 83 LINE",
"454 86 LINE",
"451 86 LINE",
"351 86 LINE",
"252 86 LINE SMOOTH",
"187 86 OFFCURVE",
"136 138 OFFCURVE",
"136 202 CURVE SMOOTH",
"136 521 LINE",
"136 524 LINE SMOOTH",
"137 587 OFFCURVE",
"187 636 OFFCURVE",
"249 638 CURVE SMOOTH",
"252 638 LINE",
"352 638 LINE",
"451 638 LINE",
"454 638 LINE",
"454 641 LINE",
"454 721 LINE",
"454 723 LINE",
"451 723 LINE",
"252 723 LINE"
);
},
{
closed = 1;
nodes = (
"657 259 LINE",
"657 521 LINE",
"657 524 LINE SMOOTH",
"657 634 OFFCURVE",
"567 723 OFFCURVE",
"458 723 CURVE SMOOTH",
"455 723 LINE",
"256 723 LINE",
"253 723 LINE",
"253 721 LINE",
"253 641 LINE",
"253 638 LINE",
"256 638 LINE",
"355 638 LINE",
"455 638 LINE",
"458 638 LINE SMOOTH",
"520 638 OFFCURVE",
"571 587 OFFCURVE",
"571 524 CURVE SMOOTH",
"571 521 LINE",
"571 259 LINE"
);
}
);
width = 619;
},
{
associatedMasterId = "35624636-21CC-465F-9DE1-D1867EA72944";
layerId = "6A32DF09-4214-4637-A62F-8290827CDD8A";
name = "Jul 12 19, 13:20";
paths = (
{
closed = 1;
nodes = (
"269 583 LINE SMOOTH",
"160 583 OFFCURVE",
"70 494 OFFCURVE",
"70 384 CURVE SMOOTH",
"70 381 LINE",
"70 42 LINE",
"70 39 LINE SMOOTH",
"70 -70 OFFCURVE",
"161 -160 OFFCURVE",
"272 -160 CURVE SMOOTH",
"471 -160 LINE",
"474 -160 LINE",
"474 -157 LINE",
"474 -77 LINE",
"474 -74 LINE",
"471 -74 LINE",
"371 -74 LINE",
"272 -74 LINE SMOOTH",
"207 -74 OFFCURVE",
"156 -22 OFFCURVE",
"156 42 CURVE SMOOTH",
"156 381 LINE",
"156 384 LINE SMOOTH",
"156 447 OFFCURVE",
"207 498 OFFCURVE",
"269 498 CURVE SMOOTH",
"272 498 LINE",
"342 498 LINE",
"441 498 LINE",
"444 498 LINE",
"444 501 LINE",
"444 581 LINE",
"444 583 LINE",
"441 583 LINE",
"272 583 LINE"
);
},
{
closed = 1;
nodes = (
"647 -1 LINE",
"647 381 LINE",
"647 384 LINE SMOOTH",
"647 494 OFFCURVE",
"557 583 OFFCURVE",
"448 583 CURVE SMOOTH",
"445 583 LINE",
"276 583 LINE",
"273 583 LINE",
"273 581 LINE",
"273 501 LINE",
"273 498 LINE",
"276 498 LINE",
"345 498 LINE",
"445 498 LINE",
"448 498 LINE SMOOTH",
"510 498 OFFCURVE",
"561 447 OFFCURVE",
"561 384 CURVE SMOOTH",
"561 381 LINE",
"561 -1 LINE"
);
},
{
closed = 1;
nodes = (
"326 404 OFFCURVE",
"235 314 OFFCURVE",
"235 202 CURVE SMOOTH",
"235 90 OFFCURVE",
"326 0 OFFCURVE",
"436 0 CURVE SMOOTH",
"548 0 OFFCURVE",
"640 90 OFFCURVE",
"640 202 CURVE SMOOTH",
"640 314 OFFCURVE",
"548 404 OFFCURVE",
"436 404 CURVE SMOOTH"
);
},
{
closed = 1;
nodes = (
"504 324 OFFCURVE",
"560 270 OFFCURVE",
"560 202 CURVE SMOOTH",
"560 134 OFFCURVE",
"504 80 OFFCURVE",
"436 80 CURVE SMOOTH",
"370 80 OFFCURVE",
"314 134 OFFCURVE",
"314 202 CURVE SMOOTH",
"314 270 OFFCURVE",
"370 324 OFFCURVE",
"436 324 CURVE SMOOTH"
);
}
);
width = 717;
}
);
leftMetricsKey = H;
rightMetricsKey = H;
unicode = 0040;
},
{
glyphname = A;
lastChange = "2019-07-12 11:29:02 +0000";
layers = (
{
anchors = (
{
name = top;
position = "{222, 723}";
}
);
associatedMasterId = "35624636-21CC-465F-9DE1-D1867EA72944";
hints = (
{
horizontal = 1;
place = "{1, 21}";
target = up;
type = BottomGhost;
},
{
horizontal = 1;
place = "{239.5, 85.5}";
type = Stem;
},
{
horizontal = 1;
place = "{724.38, -20}";
target = down;
type = TopGhost;
},
{
place = "{369.81, 79.88}";
type = Stem;
}
);
layerId = "E6342E8A-1EF0-41AE-9EEC-DD9D67C8FF62";
name = "Jul 6 19, 09:08";
paths = (
{
closed = 1;
nodes = (
"182 724 LINE",
"182 722 LINE",
"179 722 LINE",
"20 4 LINE",
"22 4 LINE",
"22 1 LINE",
"102 1 LINE",
"102 4 LINE",
"105 3 LINE",
"158 240 LINE",
"286 240 LINE",
"339 3 LINE",
"342 4 LINE",
"342 1 LINE",
"422 1 LINE",
"422 4 LINE",
"424 4 LINE",
"265 722 LINE",
"262 721 LINE",
"262 722 LINE",
"262 724 LINE"
);
},
{
closed = 1;
nodes = (
"222 529 LINE",
"267 325 LINE",
"177 325 LINE"
);
}
);
width = 444;
},
{
anchors = (
{
name = top;
position = "{243, 723}";
}
);
associatedMasterId = "35624636-21CC-465F-9DE1-D1867EA72944";
hints = (
{
horizontal = 1;
place = "{1, 21}";
target = up;
type = BottomGhost;
},
{
horizontal = 1;
place = "{239.5, 85.5}";
type = Stem;
},
{
horizontal = 1;
place = "{724.38, -20}";
target = down;
type = TopGhost;
},
{
place = "{369.81, 79.88}";
type = Stem;
}
);
layerId = "67B4B351-B624-4334-802E-79AE05AA4E5D";
name = "Jul 12 19, 13:29";
paths = (
{
closed = 1;
nodes = (
"464 0 LINE",
"464 520 LINE SMOOTH",
"464 632 OFFCURVE",
"374 722 OFFCURVE",
"262 722 CURVE SMOOTH",
"150 722 OFFCURVE",
"60 632 OFFCURVE",
"60 520 CURVE SMOOTH",
"60 0 LINE",
"144 0 LINE",
"144 520 LINE SMOOTH",
"144 585 OFFCURVE",
"197 637 OFFCURVE",
"262 637 CURVE SMOOTH",
"327 637 OFFCURVE",
"380 585 OFFCURVE",
"380 520 CURVE SMOOTH",
"380 0 LINE"
);
},
{
closed = 1;
nodes = (
"396 345 LINE",
"130 345 LINE",
"89 260 LINE",
"437 260 LINE"
);
}
);
width = 524;
},
{
anchors = (
{
name = top;
position = "{223, 723}";
}
);
hints = (
{
horizontal = 1;
place = "{1, 21}";
target = up;
type = BottomGhost;
},
{
horizontal = 1;
place = "{239.5, 85.5}";
type = Stem;
},
{
horizontal = 1;
place = "{724.38, -20}";
target = down;
type = TopGhost;
},
{
place = "{369.81, 79.88}";
type = Stem;
}
);
layerId = "35624636-21CC-465F-9DE1-D1867EA72944";
paths = (
{
closed = 1;
nodes = (
"284 255 LINE",
"162 255 LINE",
"143 170 LINE",
"303 170 LINE"
);
},
{
closed = 1;
nodes = (
"181 723 LINE",
"20 0 LINE",
"106 0 LINE",
"223 529 LINE",
"340 0 LINE",
"426 0 LINE",
"265 723 LINE"
);
}
);
width = 446;
}
);
leftKerningGroup = A;
note = A;
rightKerningGroup = A;
unicode = 0041;
},
{
glyphname = B;
lastChange = "2019-07-12 12:24:49 +0000";
layers = (
{
hints = (
{
horizontal = 1;
place = "{0, 85.5}";
type = Stem;
},
{
horizontal = 1;
place = "{319.5, 85.5}";
type = Stem;
},
{
horizontal = 1;
place = "{637.88, 85.5}";
type = Stem;
},
{
place = "{28.38, 85.5}";
type = Stem;
},
{
place = "{387.25, 84.38}";
type = Stem;
},
{
place = "{346.75, 85.5}";
type = Stem;
}
);
layerId = "35624636-21CC-465F-9DE1-D1867EA72944";
paths = (
{
closed = 1;
nodes = (
"70 723 LINE",
"70 0 LINE",
"312 0 LINE",
"313 0 OFFCURVE",
"314 0 OFFCURVE",
"315 0 CURVE SMOOTH",
"425 2 OFFCURVE",
"514 92 OFFCURVE",
"514 202 CURVE SMOOTH",
"514 276 OFFCURVE",
"474 342 OFFCURVE",
"414 377 CURVE",
"451 414 OFFCURVE",
"474 465 OFFCURVE",
"474 521 CURVE SMOOTH",
"474 633 OFFCURVE",
"384 723 OFFCURVE",
"272 723 CURVE"
);
},
{
closed = 1;
nodes = (
"156 638 LINE",
"272 638 LINE SMOOTH",
"336 638 OFFCURVE",
"389 586 OFFCURVE",
"389 521 CURVE SMOOTH",
"389 457 OFFCURVE",
"336 405 OFFCURVE",
"272 405 CURVE SMOOTH",
"156 405 LINE"
);
},
{
closed = 1;
nodes = (
"312 320 LINE",
"377 320 OFFCURVE",
"429 267 OFFCURVE",
"429 202 CURVE SMOOTH",
"429 139 OFFCURVE",
"378 87 OFFCURVE",
"315 86 CURVE SMOOTH",
"314 85 OFFCURVE",
"313 86 OFFCURVE",
"312 86 CURVE SMOOTH",
"156 86 LINE",
"156 320 LINE"
);
}
);
width = 564;
}
);
leftKerningGroup = H;
leftMetricsKey = H;
note = B;
unicode = 0042;
},
{
glyphname = C;
lastChange = "2019-07-10 15:57:05 +0000";
layers = (
{
anchors = (
{
name = bottom;
position = "{315, 0}";
}
);
associatedMasterId = "35624636-21CC-465F-9DE1-D1867EA72944";
hints = (
{
horizontal = 1;
place = "{0, 85.5}";
type = Stem;
},
{
horizontal = 1;
place = "{637.88, 85.5}";
type = Stem;
},
{
place = "{48.06, 85.5}";
type = Stem;
}
);
layerId = "47FBF09A-5EE7-4BA6-A56B-21E101783641";
name = "Jul 5 19, 15:38";
paths = (
{
closed = 1;
nodes = (
"252 84 LINE",
"188 84 OFFCURVE",
"136 137 OFFCURVE",
"136 202 CURVE SMOOTH",
"136 520 LINE",
"136 523 LINE SMOOTH",
"137 587 OFFCURVE",
"189 637 OFFCURVE",
"252 637 CURVE SMOOTH",
"317 637 OFFCURVE",
"370 585 OFFCURVE",
"370 520 CURVE SMOOTH",
"370 465 LINE",
"454 465 LINE",
"454 520 LINE SMOOTH",
"454 632 OFFCURVE",
"364 722 OFFCURVE",
"252 722 CURVE SMOOTH",
"249 722 OFFCURVE",
"245 722 OFFCURVE",
"242 722 CURVE SMOOTH",
"135 717 OFFCURVE",
"50 629 OFFCURVE",
"50 520 CURVE SMOOTH",
"50 202 LINE",
"50 199 LINE SMOOTH",
"52 89 OFFCURVE",
"141 0 OFFCURVE",
"252 0 CURVE"
);
},
{
closed = 1;
nodes = (
"281 0 LINE",
"429 0 LINE",
"429 84 LINE",
"281 84 LINE"
);
}
);
width = 480;
},
{
anchors = (
{
name = bottom;
position = "{315, 0}";
}
);
hints = (
{
horizontal = 1;
place = "{0, 85.5}";
type = Stem;
},
{
horizontal = 1;
place = "{637.88, 85.5}";
type = Stem;
},
{
place = "{48.06, 85.5}";
type = Stem;
}
);
layerId = "35624636-21CC-465F-9DE1-D1867EA72944";
paths = (
{
closed = 1;
nodes = (
"249 723 LINE SMOOTH",
"140 722 OFFCURVE",
"52 634 OFFCURVE",
"50 524 CURVE SMOOTH",
"50 199 LINE SMOOTH",
"52 90 OFFCURVE",
"141 0 OFFCURVE",
"252 0 CURVE SMOOTH",
"450 0 LINE",
"450 86 LINE",
"252 86 LINE SMOOTH",
"187 86 OFFCURVE",
"136 138 OFFCURVE",
"136 202 CURVE SMOOTH",
"136 524 LINE SMOOTH",
"137 587 OFFCURVE",
"187 636 OFFCURVE",
"249 638 CURVE SMOOTH",
"450 638 LINE",
"450 723 LINE"
);
}
);
width = 480;
}
);
leftMetricsKey = O;
note = C;
unicode = 0043;
},
{
glyphname = D;
lastChange = "2019-07-10 15:58:24 +0000";
layers = (
{
hints = (
{
horizontal = 1;
place = "{0, 85.5}";
type = Stem;
},
{
horizontal = 1;
place = "{637.88, 85.5}";
type = Stem;
},
{
place = "{48.06, 85.5}";
type = Stem;
},
{
place = "{366.44, 85.5}";
type = Stem;
}
);
layerId = "35624636-21CC-465F-9DE1-D1867EA72944";
paths = (
{
closed = 1;
nodes = (
"70 723 LINE",
"70 0 LINE",
"268 0 LINE SMOOTH",
"379 0 OFFCURVE",
"470 90 OFFCURVE",
"470 199 CURVE",
"470 524 LINE SMOOTH",
"470 634 OFFCURVE",
"380 723 OFFCURVE",
"271 723 CURVE SMOOTH"
);
},
{
closed = 1;
nodes = (
"156 638 LINE",
"271 638 LINE SMOOTH",
"333 638 OFFCURVE",
"384 587 OFFCURVE",
"384 524 CURVE SMOOTH",
"384 199 LINE",
"384 137 OFFCURVE",
"332 86 OFFCURVE",
"268 86 CURVE SMOOTH",
"156 86 LINE"
);
}
);
width = 520;
}
);
leftKerningGroup = H;
leftMetricsKey = H;
note = D;
rightKerningGroup = O;
rightMetricsKey = O;
unicode = 0044;
},
{
glyphname = E;
lastChange = "2019-07-12 07:16:12 +0000";
layers = (
{
anchors = (
{
name = top;
position = "{271, 723}";
}
);
hints = (
{
horizontal = 1;
place = "{0, 85.5}";
type = Stem;
},
{
horizontal = 1;
place = "{319.5, 85.5}";
type = Stem;
},
{
horizontal = 1;
place = "{637.88, 85.5}";
type = Stem;
},
{
place = "{48.06, 85.5}";
type = Stem;
}
);
layerId = "35624636-21CC-465F-9DE1-D1867EA72944";
paths = (
{
closed = 1;
nodes = (
"70 723 LINE",
"70 0 LINE",
"454 0 LINE",
"454 83 LINE",
"454 86 LINE",
"451 86 LINE",
"156 86 LINE",
"156 320 LINE",
"375 320 LINE",
"375 405 LINE",
"156 405 LINE",
"156 638 LINE",
"454 638 LINE",
"454 723 LINE"
);
}
);
width = 474;
}
);
leftKerningGroup = H;
leftMetricsKey = H;
note = E;
unicode = 0045;
},
{
glyphname = F;
lastChange = "2019-07-12 11:27:10 +0000";
layers = (
{
hints = (
{
horizontal = 1;
place = "{0, 21}";
target = up;
type = BottomGhost;
},
{
horizontal = 1;
place = "{319.5, 85.5}";
type = Stem;
},
{
horizontal = 1;
place = "{637.88, 85.5}";
type = Stem;
},
{
place = "{47.5, 85.5}";
type = Stem;
}
);
layerId = "35624636-21CC-465F-9DE1-D1867EA72944";
paths = (
{
closed = 1;
nodes = (
"70 723 LINE",
"70 0 LINE",
"155 0 LINE",
"155 320 LINE",
"395 320 LINE",
"395 405 LINE",
"155 405 LINE",
"155 638 LINE",
"475 638 LINE",
"475 723 LINE"
);
}
);
width = 485;
}
);
leftKerningGroup = H;
leftMetricsKey = H;
note = F;
rightKerningGroup = F;
rightMetricsKey = "=E-10";
unicode = 0046;
},
{
glyphname = G;
lastChange = "2019-07-10 16:00:38 +0000";
layers = (
{
hints = (
{
horizontal = 1;
place = "{0.19, 85.5}";
type = Stem;
},
{
horizontal = 1;
place = "{319.69, 85.5}";
type = Stem;
},
{
horizontal = 1;
place = "{638.06, 85.5}";
type = Stem;
},
{
place = "{48.06, 84.38}";
type = Stem;
},
{
place = "{366.44, 85.5}";
type = Stem;
}
);
layerId = "35624636-21CC-465F-9DE1-D1867EA72944";
paths = (
{
closed = 1;
nodes = (
"249 724 LINE SMOOTH",
"140 722 OFFCURVE",
"52 634 OFFCURVE",
"50 524 CURVE SMOOTH",
"50 199 LINE SMOOTH",
"52 90 OFFCURVE",
"141 0 OFFCURVE",
"252 0 CURVE SMOOTH",
"454 0 LINE",
"454 405 LINE",
"209 405 LINE",
"209 320 LINE",
"368 320 LINE",
"368 86 LINE",
"252 86 LINE SMOOTH",
"187 86 OFFCURVE",
"134 138 OFFCURVE",
"134 202 CURVE SMOOTH",
"134 524 LINE SMOOTH",
"136 587 OFFCURVE",
"187 637 OFFCURVE",
"249 638 CURVE SMOOTH",
"454 638 LINE",
"454 724 LINE"
);
}
);
width = 504;
}
);
leftKerningGroup = O;
leftMetricsKey = O;
note = G;
rightMetricsKey = O;
unicode = 0047;
},
{
glyphname = H;
lastChange = "2019-07-10 16:01:21 +0000";
layers = (
{
hints = (
{
horizontal = 1;
place = "{0, 21}";
target = up;
type = BottomGhost;
},
{
horizontal = 1;
place = "{319.5, 85.5}";
type = Stem;
},
{
horizontal = 1;
place = "{723.38, -20}";
target = down;
type = TopGhost;
},
{
place = "{48.06, 84.38}";
type = Stem;
},
{
place = "{366.44, 85.5}";
type = Stem;
}
);
layerId = "35624636-21CC-465F-9DE1-D1867EA72944";
paths = (
{
closed = 1;
nodes = (
"70 723 LINE",
"70 0 LINE",
"154 0 LINE",
"154 320 LINE",
"388 320 LINE",
"388 0 LINE",
"474 0 LINE",
"474 723 LINE",
"388 723 LINE",
"388 405 LINE",
"154 405 LINE",
"154 723 LINE"
);
}
);
width = 544;
}
);
leftKerningGroup = H;
note = H;
rightKerningGroup = H;
unicode = 0048;
},
{
glyphname = I;
lastChange = "2019-07-10 16:02:22 +0000";
layers = (
{
anchors = (
{
name = top;
position = "{113, 723}";
}
);
hints = (
{
horizontal = 1;
place = "{0.19, 21}";
target = up;
type = BottomGhost;
},
{
place = "{57.25, 85.5}";
type = Stem;
},
{
horizontal = 1;
place = "{723.56, -20}";
target = down;
type = TopGhost;
}
);
layerId = "35624636-21CC-465F-9DE1-D1867EA72944";
paths = (
{
closed = 1;
nodes = (
"70 723 LINE",
"70 0 LINE",
"156 0 LINE",
"156 723 LINE"
);
}
);
width = 226;
}
);
leftKerningGroup = H;
leftMetricsKey = H;
note = I;
rightMetricsKey = H;
unicode = 0049;
},
{
glyphname = J;
lastChange = "2019-07-12 07:14:29 +0000";
layers = (
{
hints = (
{
horizontal = 1;
place = "{0, 85.5}";
type = Stem;
},
{
horizontal = 1;
place = "{723.38, -20}";
target = down;
type = TopGhost;
},
{
place = "{50.88, 78.75}";
type = Stem;
},
{
place = "{366.44, 85.5}";
type = Stem;
}
);
layerId = "35624636-21CC-465F-9DE1-D1867EA72944";
paths = (
{
closed = 1;
nodes = (
"328 723 LINE",
"328 155 LINE",
"414 155 LINE",
"414 723 LINE"
);
},
{
closed = 1;
nodes = (
"328 155 LINE",
"328 116 OFFCURVE",
"297 86 OFFCURVE",
"258 86 CURVE SMOOTH",
"220 86 OFFCURVE",
"187 116 OFFCURVE",
"187 155 CURVE",
"103 155 LINE",
"103 69 OFFCURVE",
"173 0 OFFCURVE",
"258 0 CURVE SMOOTH",
"344 0 OFFCURVE",
"414 69 OFFCURVE",
"414 155 CURVE"
);
},
{
closed = 1;
nodes = (
"103 155 LINE",
"187 155 LINE",
"187 327 LINE",
"103 327 LINE"
);
}
);
width = 474;
},
{
associatedMasterId = "35624636-21CC-465F-9DE1-D1867EA72944";
hints = (
{
horizontal = 1;
place = "{0, 85.5}";
type = Stem;
},
{
horizontal = 1;
place = "{723.38, -20}";
target = down;
type = TopGhost;
},
{
place = "{50.88, 78.75}";
type = Stem;
},
{
place = "{366.44, 85.5}";
type = Stem;
}
);
layerId = "ED3C2396-6E4E-4DD8-BFFC-9D7F640CA362";
name = "Jul 12 19, 09:13";
paths = (
{
closed = 1;
nodes = (
"328 723 LINE",
"328 202 LINE SMOOTH",
"328 137 OFFCURVE",
"276 86 OFFCURVE",
"212 86 CURVE SMOOTH",
"147 86 OFFCURVE",
"94 137 OFFCURVE",
"94 202 CURVE SMOOTH",
"94 205 LINE",
"10 205 LINE",
"10 202 LINE SMOOTH",
"10 90 OFFCURVE",
"100 0 OFFCURVE",
"212 0 CURVE SMOOTH",
"323 0 OFFCURVE",
"414 90 OFFCURVE",
"414 202 CURVE SMOOTH",
"414 723 LINE"
);
}
);
width = 474;
},
{
associatedMasterId = "35624636-21CC-465F-9DE1-D1867EA72944";
hints = (
{
horizontal = 1;
place = "{0, 85.5}";
type = Stem;
},
{
horizontal = 1;
place = "{723.38, -20}";
target = down;
type = TopGhost;
},
{
place = "{50.88, 78.75}";
type = Stem;
},
{
place = "{366.44, 85.5}";
type = Stem;
}
);
layerId = "EEA529D2-C994-47E7-9DBB-DA704F8BE1CC";
name = "Jul 12 19, 09:14";
paths = (
{
closed = 1;
nodes = (
"328 723 LINE",
"328 202 LINE SMOOTH",
"328 137 OFFCURVE",
"276 86 OFFCURVE",
"212 86 CURVE SMOOTH",
"147 86 OFFCURVE",
"94 137 OFFCURVE",
"94 202 CURVE SMOOTH",
"94 205 LINE",
"10 205 LINE",
"10 202 LINE SMOOTH",
"10 90 OFFCURVE",
"100 0 OFFCURVE",
"212 0 CURVE SMOOTH",
"323 0 OFFCURVE",
"414 90 OFFCURVE",
"414 202 CURVE SMOOTH",
"414 723 LINE"
);
}
);
width = 474;
}
);
note = J;
rightMetricsKey = U;
unicode = 004A;
},
{
glyphname = K;
lastChange = "2019-07-10 16:02:58 +0000";
layers = (
{
hints = (
{
horizontal = 1;
place = "{0, 21}";
target = up;
type = BottomGhost;
},
{
horizontal = 1;
place = "{722.25, -20}";
target = down;
type = TopGhost;
},
{
place = "{48.06, 85.5}";
type = Stem;
}
);
layerId = "35624636-21CC-465F-9DE1-D1867EA72944";
paths = (
{
closed = 1;
nodes = (
"70 723 LINE",
"70 0 LINE",
"156 0 LINE",
"272 263 LINE",
"391 0 LINE",
"477 0 LINE",
"315 360 LINE",
"477 723 LINE",
"392 723 LINE",
"156 196 LINE",
"156 723 LINE"
);
}
);
width = 484;
}
);
leftKerningGroup = H;
leftMetricsKey = H;
note = K;
unicode = 004B;
},
{
glyphname = L;
lastChange = "2019-07-11 15:51:36 +0000";
layers = (
{
hints = (
{
horizontal = 1;
place = "{0, 85.5}";
type = Stem;
},
{
place = "{48.06, 85.5}";
type = Stem;
},
{
horizontal = 1;
place = "{723.38, -20}";
target = down;
type = TopGhost;
}
);
layerId = "35624636-21CC-465F-9DE1-D1867EA72944";
paths = (
{
closed = 1;
nodes = (
"70 723 LINE",
"70 0 LINE",
"474 0 LINE",
"474 86 LINE",
"156 86 LINE",
"156 723 LINE"
);
}
);
width = 494;
}
);
leftMetricsKey = H;
note = L;
rightKerningGroup = L;
unicode = 004C;
},
{
glyphname = M;
lastChange = "2019-07-12 12:36:57 +0000";
layers = (
{
hints = (
{
horizontal = 1;
place = "{0.75, 21}";
target = up;
type = BottomGhost;
},
{
horizontal = 1;
place = "{724.13, -20}";
target = down;
type = TopGhost;
},
{
place = "{692.2, 78.75}";
type = Stem;
}
);
layerId = "35624636-21CC-465F-9DE1-D1867EA72944";
paths = (
{
closed = 1;
nodes = (
"500 723 LINE",
"382 196 LINE",
"264 723 LINE",
"181 723 LINE",
"20 0 LINE",
"104 0 LINE",
"223 529 LINE",
"342 0 LINE",
"422 0 LINE",
"541 529 LINE",
"660 0 LINE",
"744 0 LINE",
"583 723 LINE"
);
}
);
width = 764;
},
{
associatedMasterId = "35624636-21CC-465F-9DE1-D1867EA72944";
hints = (
{
horizontal = 1;
place = "{0.75, 21}";
target = up;
type = BottomGhost;
},
{
horizontal = 1;
place = "{724.13, -20}";
target = down;
type = TopGhost;
},
{
place = "{692.2, 78.75}";
type = Stem;
}
);
layerId = "2FA288A5-6704-4D74-8198-72DB4E6C44C1";
name = "Jul 10 19, 18:04";
paths = (
{
closed = 1;
nodes = (
"181 724 LINE",
"181 721 LINE",
"178 722 LINE",
"20 4 LINE",
"22 4 LINE",
"22 1 LINE",
"101 1 LINE",
"101 4 LINE",
"104 3 LINE",
"221 530 LINE",
"338 3 LINE",
"341 4 LINE",
"341 1 LINE",
"421 1 LINE",
"421 4 LINE",
"423 3 LINE",
"540 529 LINE",
"657 3 LINE",
"660 4 LINE",
"660 1 LINE",
"739 1 LINE",
"739 4 LINE",
"741 4 LINE",
"583 722 LINE",
"580 721 LINE",
"580 724 LINE",
"500 724 LINE",
"500 721 LINE",
"498 722 LINE",
"381 196 LINE",
"263 722 LINE",
"261 721 LINE",
"261 724 LINE"
);
}
);
width = 761;
}
);
leftKerningGroup = A;
leftMetricsKey = W;
note = M;
rightKerningGroup = A;
rightMetricsKey = W;
unicode = 004D;
},
{
glyphname = N;
lastChange = "2019-07-10 16:05:30 +0000";
layers = (
{
anchors = (
{
name = top;
position = "{272, 724}";
}
);
hints = (
{
horizontal = 1;
place = "{0, 21}";
target = up;
type = BottomGhost;
},
{
horizontal = 1;
place = "{722.25, -20}";
target = down;
type = TopGhost;
},
{
place = "{48.06, 84.38}";
type = Stem;
},
{
place = "{366.44, 85.5}";
type = Stem;
}
);
layerId = "35624636-21CC-465F-9DE1-D1867EA72944";
paths = (
{
closed = 1;
nodes = (
"70 723 LINE",
"70 0 LINE",
"154 0 LINE",
"154 528 LINE",
"389 0 LINE",
"474 0 LINE",
"474 723 LINE",
"388 723 LINE",
"388 195 LINE",
"152 723 LINE"
);
}
);
width = 544;
}
);
leftKerningGroup = H;
leftMetricsKey = H;
note = N;
rightKerningGroup = H;
rightMetricsKey = H;
unicode = 004E;
},
{
glyphname = O;
lastChange = "2019-07-10 16:07:46 +0000";
layers = (
{
anchors = (
{
name = top;
position = "{252, 722}";
}
);
hints = (
{
horizontal = 1;
place = "{0, 84.38}";
type = Stem;
},
{
horizontal = 1;
place = "{636.75, 85.5}";
type = Stem;
},
{
place = "{48.06, 85.5}";
type = Stem;
},
{
place = "{367.56, 84.38}";
type = Stem;
}
);
layerId = "35624636-21CC-465F-9DE1-D1867EA72944";
paths = (
{
closed = 1;
nodes = (
"140 722 OFFCURVE",
"50 632 OFFCURVE",
"50 520 CURVE SMOOTH",
"50 199 LINE SMOOTH",
"52 89 OFFCURVE",
"141 0 OFFCURVE",
"252 0 CURVE SMOOTH",
"363 0 OFFCURVE",
"452 89 OFFCURVE",
"454 199 CURVE SMOOTH",
"454 520 LINE SMOOTH",
"454 632 OFFCURVE",
"364 722 OFFCURVE",
"252 722 CURVE SMOOTH"
);
},
{
closed = 1;
nodes = (
"370 137 OFFCURVE",
"317 84 OFFCURVE",
"252 84 CURVE SMOOTH",
"187 84 OFFCURVE",
"134 137 OFFCURVE",
"134 202 CURVE SMOOTH",
"134 520 LINE SMOOTH",
"134 585 OFFCURVE",
"187 637 OFFCURVE",
"252 637 CURVE SMOOTH",
"317 637 OFFCURVE",
"370 585 OFFCURVE",
"370 520 CURVE SMOOTH",
"370 202 LINE SMOOTH"
);
}
);
width = 504;
}
);
note = O;
unicode = 004F;
},
{
glyphname = P;
lastChange = "2019-07-11 15:40:11 +0000";
layers = (
{
hints = (
{
horizontal = 1;
place = "{-2.81, 21}";
target = up;
type = BottomGhost;
},
{
horizontal = 1;
place = "{235.69, 85.5}";
type = Stem;
},
{
horizontal = 1;
place = "{635.06, 85.5}";
type = Stem;
},
{
place = "{48.06, 84.38}";
type = Stem;
},
{
place = "{366.44, 85.5}";
type = Stem;
}
);
layerId = "35624636-21CC-465F-9DE1-D1867EA72944";
paths = (
{
closed = 1;
nodes = (
"70 723 LINE",
"70 0 LINE",
"154 0 LINE",
"154 316 LINE",
"273 316 LINE SMOOTH",
"385 316 OFFCURVE",
"475 407 OFFCURVE",
"475 519 CURVE SMOOTH",
"475 630 OFFCURVE",
"385 723 OFFCURVE",
"273 723 CURVE SMOOTH"
);
},
{
closed = 1;
nodes = (
"154 402 LINE",
"154 635 LINE",
"273 635 LINE SMOOTH",
"338 635 OFFCURVE",
"390 583 OFFCURVE",
"390 519 CURVE SMOOTH",
"390 454 OFFCURVE",
"338 402 OFFCURVE",
"273 402 CURVE SMOOTH"
);
}
);
width = 505;
}
);
leftKerningGroup = H;
leftMetricsKey = H;
note = P;
rightKerningGroup = P;
unicode = 0050;
},
{
glyphname = Q;
lastChange = "2019-07-12 10:47:22 +0000";
layers = (
{
associatedMasterId = "35624636-21CC-465F-9DE1-D1867EA72944";
components = (
{
name = O;
transform = "{1, 0, 0, -1, 0, 723}";
},
{
alignment = -1;
name = acute;
transform = "{1, 0, 0, -1, 21, 567}";
}
);
hints = (
{
horizontal = 1;
place = "{0, 84.38}";
type = Stem;
},
{
horizontal = 1;
place = "{636.75, 85.5}";
type = Stem;
},
{
place = "{47.5, 85.5}";
type = Stem;
},
{
place = "{367, 85.5}";
type = Stem;
}
);
layerId = "F7BA11DE-7BB7-4EA6-A01E-409A79F826D0";
name = "Jul 5 19, 15:49";
width = 504;
},
{
components = (
{
name = O;
}
);
hints = (
{
horizontal = 1;
place = "{0, 84.38}";
type = Stem;
},
{
horizontal = 1;
place = "{636.75, 85.5}";
type = Stem;
},
{
place = "{47.5, 85.5}";
type = Stem;
},
{
place = "{367, 85.5}";
type = Stem;
}
);
layerId = "35624636-21CC-465F-9DE1-D1867EA72944";
paths = (
{
closed = 1;
nodes = (
"292 363 LINE",
"212 363 LINE",
"373 0 LINE",
"452 0 LINE"
);
},
{
closed = 1;
nodes = (
"50 199 LINE",
"51 89 OFFCURVE",
"142 0 OFFCURVE",
"251 0 CURVE SMOOTH",
"362 0 OFFCURVE",
"453 89 OFFCURVE",
"455 199 CURVE",
"369 199 LINE",
"367 137 OFFCURVE",
"315 86 OFFCURVE",
"251 86 CURVE SMOOTH",
"188 86 OFFCURVE",
"135 138 OFFCURVE",
"135 202 CURVE"
);
}
);
width = 505;
}
);
leftKerningGroup = O;
leftMetricsKey = O;
note = Q;
rightKerningGroup = O;
rightMetricsKey = O;
unicode = 0051;
},
{
glyphname = R;
lastChange = "2019-07-16 12:21:11 +0000";
layers = (
{
associatedMasterId = "35624636-21CC-465F-9DE1-D1867EA72944";
components = (
{
name = P;
}
);
hints = (
{
horizontal = 1;
place = "{0, 21}";
target = up;
type = BottomGhost;
},
{
horizontal = 1;
place = "{238.5, 85.5}";
type = Stem;
},
{
horizontal = 1;
place = "{636.75, 85.5}";
type = Stem;
},
{
place = "{47.5, 85.5}";
type = Stem;
},
{
place = "{369.81, 79.88}";
type = Stem;
}
);
layerId = "A5C86FD9-682F-4274-B1DF-DB70BF131D4A";
name = "Jul 16 19, 14:17";
paths = (
{
closed = 1;
nodes = (
"84 636 LINE",
"368 0 LINE",
"455 0 LINE",
"158 664 LINE"
);
}
);
width = 495;
},
{
backgroundImage = {
crop = "{{0, 0}, {334, 533}}";
imagePath = "/Users/Anton/Desktop/Capture d’écran 2019-07-16 à 14.15.16.png";
};
hints = (
{
horizontal = 1;
place = "{0, 21}";
target = up;
type = BottomGhost;
},
{
horizontal = 1;
place = "{238.5, 85.5}";
type = Stem;
},
{
horizontal = 1;
place = "{636.75, 85.5}";
type = Stem;
},
{
place = "{47.5, 85.5}";
type = Stem;
},
{
place = "{369.81, 79.88}";
type = Stem;
}
);
layerId = "35624636-21CC-465F-9DE1-D1867EA72944";
paths = (
{
closed = 1;
nodes = (
"152 722 LINE",
"232 722 LINE SMOOTH",
"365 722 OFFCURVE",
"475 614 OFFCURVE",
"475 481 CURVE SMOOTH",
"475 392 OFFCURVE",
"426 314 OFFCURVE",
"355 272 CURVE",
"475 4 LINE",
"472 3 LINE",
"472 0 LINE",
"392 0 LINE",
"392 3 LINE",
"389 2 LINE",
"281 244 LINE",
"265 241 OFFCURVE",
"249 239 OFFCURVE",
"232 239 CURVE SMOOTH",
"193 239 LINE",
"155 239 LINE",
"155 3 LINE",
"155 0 LINE",
"152 0 LINE",
"113 0 LINE",
"72 0 LINE",
"70 0 LINE",
"70 3 LINE",
"70 719 LINE",
"70 722 LINE",
"72 722 LINE"
);
},
{
closed = 1;
nodes = (
"361 379 OFFCURVE",
"389 427 OFFCURVE",
"389 481 CURVE SMOOTH",
"389 567 OFFCURVE",
"318 637 OFFCURVE",
"232 637 CURVE SMOOTH",
"193 637 LINE",
"192 637 LINE",
"320 351 LINE"
);
},
{
closed = 1;
nodes = (
"232 324 LINE SMOOTH",
"236 324 OFFCURVE",
"241 324 OFFCURVE",
"245 325 CURVE",
"155 527 LINE",
"155 324 LINE"
);
}
);
width = 522;
}
);
leftKerningGroup = H;
leftMetricsKey = H;
note = R;
unicode = 0052;
},
{
glyphname = S;
lastChange = "2019-07-10 16:08:12 +0000";
layers = (
{
hints = (
{
horizontal = 1;
place = "{0, 85.5}";
type = Stem;
},
{
horizontal = 1;
place = "{319.5, 85.5}";
type = Stem;
},
{
horizontal = 1;
place = "{637.88, 85.5}";
type = Stem;
},
{
place = "{47.5, 85.5}";
type = Stem;
},
{
place = "{367, 85.5}";
type = Stem;
}
);
layerId = "35624636-21CC-465F-9DE1-D1867EA72944";
paths = (
{
closed = 1;
nodes = (
"239 723 LINE SMOOTH",
"129 722 OFFCURVE",
"40 632 OFFCURVE",
"40 521 CURVE SMOOTH",
"40 410 OFFCURVE",
"131 320 OFFCURVE",
"241 320 CURVE SMOOTH",
"306 320 OFFCURVE",
"359 267 OFFCURVE",
"359 202 CURVE SMOOTH",
"359 139 OFFCURVE",
"308 87 OFFCURVE",
"244 86 CURVE SMOOTH",
"243 85 OFFCURVE",
"242 86 OFFCURVE",
"241 86 CURVE SMOOTH",
"42 86 LINE",
"40 86 LINE",
"40 83 LINE",
"40 3 LINE",
"40 0 LINE",
"42 0 LINE",
"241 0 LINE SMOOTH",
"242 0 OFFCURVE",
"243 0 OFFCURVE",
"244 0 CURVE SMOOTH",
"355 2 OFFCURVE",
"445 92 OFFCURVE",
"445 202 CURVE SMOOTH",
"445 314 OFFCURVE",
"353 405 OFFCURVE",
"241 405 CURVE SMOOTH",
"178 405 OFFCURVE",
"125 457 OFFCURVE",
"125 521 CURVE SMOOTH",
"125 585 OFFCURVE",
"176 636 OFFCURVE",
"239 638 CURVE SMOOTH",
"241 638 LINE",
"342 638 LINE",
"442 638 LINE",
"445 638 LINE",
"445 641 LINE",
"445 721 LINE",
"445 723 LINE",
"442 723 LINE",
"241 723 LINE"
);
}
);
width = 485;
}
);
note = S;
unicode = 0053;
},
{
glyphname = T;
lastChange = "2019-07-12 12:17:00 +0000";
layers = (
{
hints = (
{
horizontal = 1;
place = "{0, 21}";
target = up;
type = BottomGhost;
},
{
horizontal = 1;
place = "{637.88, 85.5}";
type = Stem;
},
{
place = "{207.25, 85.5}";
type = Stem;
}
);
layerId = "35624636-21CC-465F-9DE1-D1867EA72944";
paths = (
{
closed = 1;
nodes = (
"20 723 LINE",
"20 638 LINE",
"179 638 LINE",
"179 0 LINE",
"265 0 LINE",
"265 638 LINE",
"425 638 LINE",
"425 723 LINE"
);
}
);
width = 445;
}
);
leftKerningGroup = T;
note = T;
rightKerningGroup = T;
unicode = 0054;
},
{
glyphname = U;
lastChange = "2019-07-12 11:57:59 +0000";
layers = (
{
anchors = (
{
name = top;
position = "{262, 723}";
}
);
hints = (
{
horizontal = 1;
place = "{0, 85.5}";
type = Stem;
},
{
horizontal = 1;
place = "{723.38, -20}";
target = down;
type = TopGhost;
},
{
place = "{48.06, 84.38}";
type = Stem;
},
{
place = "{366.44, 85.5}";
type = Stem;
}
);
layerId = "35624636-21CC-465F-9DE1-D1867EA72944";
paths = (
{
closed = 1;
nodes = (
"380 723 LINE",
"380 202 LINE SMOOTH",
"380 137 OFFCURVE",
"327 84 OFFCURVE",
"262 84 CURVE SMOOTH",
"197 84 OFFCURVE",
"144 137 OFFCURVE",
"144 202 CURVE SMOOTH",
"144 723 LINE",
"60 723 LINE",
"60 199 LINE SMOOTH",
"60 89 OFFCURVE",
"151 0 OFFCURVE",
"262 0 CURVE SMOOTH",
"373 0 OFFCURVE",
"464 89 OFFCURVE",
"464 199 CURVE SMOOTH",
"464 723 LINE"
);
}
);
width = 524;
},
{
anchors = (
{
name = top;
position = "{262, 723}";
}
);
associatedMasterId = "35624636-21CC-465F-9DE1-D1867EA72944";
hints = (
{
horizontal = 1;
place = "{0, 85.5}";
type = Stem;
},
{
horizontal = 1;
place = "{723.38, -20}";
target = down;
type = TopGhost;
},
{
place = "{48.06, 84.38}";
type = Stem;
},
{
place = "{366.44, 85.5}";
type = Stem;
}
);
layerId = "71FBE429-F9BC-4400-B429-20CAD9DEED25";
name = "Jul 10 19, 18:09";
paths = (
{
closed = 1;
nodes = (
"60 723 LINE",
"60 721 LINE",
"60 199 LINE SMOOTH",
"62 90 OFFCURVE",
"151 0 OFFCURVE",
"262 0 CURVE SMOOTH",
"373 0 OFFCURVE",
"462 90 OFFCURVE",
"464 199 CURVE SMOOTH",
"464 200 OFFCURVE",
"464 201 OFFCURVE",
"464 202 CURVE SMOOTH",
"464 721 LINE",
"464 723 LINE",
"461 723 LINE",
"381 723 LINE",
"378 723 LINE",
"378 721 LINE",
"378 202 LINE SMOOTH",
"378 138 OFFCURVE",
"326 86 OFFCURVE",
"262 86 CURVE SMOOTH",
"197 86 OFFCURVE",
"144 138 OFFCURVE",
"144 202 CURVE SMOOTH",
"144 721 LINE",
"144 723 LINE",
"142 723 LINE",
"63 723 LINE"
);
}
);
width = 524;
}
);
leftMetricsKey = "=O+10";
note = U;
rightMetricsKey = "=O+10";
unicode = 0055;
},
{
glyphname = V;
lastChange = "2019-07-11 15:52:37 +0000";
layers = (
{
hints = (
{
horizontal = 1;
place = "{0.75, 21}";
target = up;
type = BottomGhost;
},
{
horizontal = 1;
place = "{724.13, -20}";
target = down;
type = TopGhost;
}
);
layerId = "35624636-21CC-465F-9DE1-D1867EA72944";
paths = (
{
closed = 1;
nodes = (
"431 723 LINE",
"345 723 LINE",
"228 194 LINE",
"111 723 LINE",
"25 723 LINE",
"186 0 LINE",
"270 0 LINE"
);
}
);
width = 456;
}
);
leftKerningGroup = V;
note = V;
rightKerningGroup = V;
unicode = 0056;
},
{
glyphname = W;
lastChange = "2019-07-12 12:24:15 +0000";
layers = (
{
hints = (
{
horizontal = 1;
place = "{0.75, 21}";
target = up;
type = BottomGhost;
},
{
horizontal = 1;
place = "{724.13, -20}";
target = down;
type = TopGhost;
},
{
horizontal = 1;
place = "{0.75, 21}";
target = up;
type = BottomGhost;
},
{
horizontal = 1;
place = "{724.13, -20}";
target = down;
type = TopGhost;
}
);
layerId = "35624636-21CC-465F-9DE1-D1867EA72944";
paths = (
{
closed = 1;
nodes = (
"426 723 LINE",
"340 723 LINE",
"223 194 LINE",
"106 723 LINE",
"20 723 LINE",
"181 0 LINE",
"265 0 LINE"
);
},
{
closed = 1;
nodes = (
"746 723 LINE",
"660 723 LINE",
"543 194 LINE",
"426 723 LINE",
"340 723 LINE",
"501 0 LINE",
"585 0 LINE"
);
}
);
width = 766;
}
);
leftKerningGroup = V;
leftMetricsKey = A;
note = W;
rightKerningGroup = V;
rightMetricsKey = A;
unicode = 0057;
},
{
glyphname = X;
lastChange = "2019-07-10 16:12:31 +0000";
layers = (
{
hints = (
{
horizontal = 1;
place = "{0.31, 21}";
target = up;
type = BottomGhost;
},
{
horizontal = 1;
place = "{722.56, -20}";
target = down;
type = TopGhost;
}
);
layerId = "35624636-21CC-465F-9DE1-D1867EA72944";
paths = (
{
closed = 1;
nodes = (
"329 723 LINE",
"211 458 LINE",
"93 723 LINE",
"7 723 LINE",
"168 361 LINE",
"7 0 LINE",
"93 0 LINE",
"211 265 LINE",
"329 0 LINE",
"415 0 LINE",
"254 361 LINE",
"415 723 LINE"
);
}
);
width = 422;
}
);
leftMetricsKey = "=|K";
note = X;
rightMetricsKey = K;
unicode = 0058;
},
{
glyphname = Y;
lastChange = "2019-07-12 12:01:48 +0000";
layers = (
{
anchors = (
{
name = top;
position = "{209, 723}";
}
);
hints = (
{
horizontal = 1;
place = "{0, 21}";
target = up;
type = BottomGhost;
},
{
horizontal = 1;
place = "{722.25, -20}";
target = down;
type = TopGhost;
},
{
place = "{206.69, 85.5}";
type = Stem;
}
);
layerId = "35624636-21CC-465F-9DE1-D1867EA72944";
paths = (
{
closed = 1;
nodes = (
"167 372 LINE",
"167 0 LINE",
"252 0 LINE",
"252 373 LINE"
);
},
{
closed = 1;
nodes = (
"327 723 LINE",
"209 458 LINE",
"91 723 LINE",
"5 723 LINE",
"209 265 LINE",
"413 723 LINE"
);
}
);
width = 418;
},
{
anchors = (
{
name = top;
position = "{202, 723}";
}
);
associatedMasterId = "35624636-21CC-465F-9DE1-D1867EA72944";
hints = (
{
horizontal = 1;
place = "{0, 21}";
target = up;
type = BottomGhost;
},
{
horizontal = 1;
place = "{722.25, -20}";
target = down;
type = TopGhost;
},
{
place = "{206.69, 85.5}";
type = Stem;
}
);
layerId = "4E1C9661-D834-4D25-953B-D49E9320FCEB";
name = "Jul 10 19, 18:11";
paths = (
{
closed = 1;
nodes = (
"3 722 LINE",
"3 719 LINE",
"0 718 LINE",
"159 359 LINE",
"159 3 LINE",
"159 0 LINE",
"162 0 LINE",
"202 0 LINE",
"241 0 LINE",
"244 0 LINE",
"244 3 LINE",
"244 360 LINE",
"404 718 LINE",
"401 719 LINE",
"401 722 LINE",
"321 722 LINE",
"321 719 LINE",
"319 721 LINE",
"201 457 LINE",
"84 721 LINE",
"82 719 LINE",
"82 722 LINE"
);
}
);
width = 404;
}
);
leftKerningGroup = Y;
leftMetricsKey = "=V-20";
note = Y;
rightKerningGroup = Y;
rightMetricsKey = "=V-20";
unicode = 0059;
},
{
glyphname = Z;
lastChange = "2019-07-15 08:33:58 +0000";
layers = (
{
associatedMasterId = "35624636-21CC-465F-9DE1-D1867EA72944";
hints = (
{
horizontal = 1;
place = "{0.19, 84.37}";
type = Stem;
},
{
horizontal = 1;
place = "{636.94, 85.5}";
type = Stem;
}
);
layerId = "A050452C-BD13-4D0C-B6CD-C1D249D75F10";
name = "Jul 15 19, 10:33";
paths = (
{
closed = 1;
nodes = (
"19 723 LINE",
"19 638 LINE",
"338 638 LINE",
"19 85 LINE",
"19 0 LINE",
"425 0 LINE",
"425 85 LINE",
"105 85 LINE",
"425 637 LINE",
"425 723 LINE"
);
}
);
width = 444;
},
{
hints = (
{
horizontal = 1;
place = "{0.19, 84.37}";
type = Stem;
},
{
horizontal = 1;
place = "{636.94, 85.5}";
type = Stem;
}
);
layerId = "35624636-21CC-465F-9DE1-D1867EA72944";
paths = (
{
closed = 1;
nodes = (
"20 723 LINE",
"20 638 LINE",
"301 638 LINE",
"18 0 LINE",
"424 0 LINE",
"424 85 LINE",
"142 85 LINE",
"425 723 LINE"
);
}
);
width = 444;
}
);
note = Z;
unicode = 005A;
},
{
glyphname = bracketleft;
lastChange = "2019-07-05 08:35:13 +0000";
layers = (
{
layerId = "35624636-21CC-465F-9DE1-D1867EA72944";
paths = (
{
closed = 1;
nodes = (
"70 808 LINE",
"70 -131 LINE",
"231 -131 LINE",
"231 -45 LINE",
"156 -45 LINE",
"156 722 LINE",
"231 722 LINE",
"231 808 LINE"
);
}
);
width = 301;
}
);
leftMetricsKey = H;
rightMetricsKey = H;
unicode = 005B;
},
{
glyphname = underscore;
lastChange = "2019-07-04 19:42:23 +0000";
layers = (
{
layerId = "35624636-21CC-465F-9DE1-D1867EA72944";
paths = (
{
closed = 1;
nodes = (
"50 -87 LINE",
"566 -87 LINE",
"566 0 LINE",
"50 0 LINE"
);
}
);
width = 616;
}
);
unicode = 005F;
},
{
glyphname = a;
lastChange = "2019-07-15 08:43:55 +0000";
layers = (
{
anchors = (
{
name = top;
position = "{233, 484}";
}
);
associatedMasterId = "35624636-21CC-465F-9DE1-D1867EA72944";
hints = (
{
horizontal = 1;
place = "{0, 85.5}";
type = Stem;
},
{
horizontal = 1;
place = "{399.38, 84.37}";
type = Stem;
},
{
place = "{48.06, 85.5}";
type = Stem;
},
{
place = "{367.56, 84.38}";
type = Stem;
}
);
layerId = "59756998-403D-47FB-8464-4909C19F734A";
name = " ";
paths = (
{
closed = 1;
nodes = (
"314.85 399.38 OFFCURVE",
"367.56 346.66 OFFCURVE",
"367.56 281.82 CURVE SMOOTH",
"367.56 201.95 LINE SMOOTH",
"367.56 138.26 OFFCURVE",
"314.84 85.51 OFFCURVE",
"250 85.51 CURVE SMOOTH",
"186.31 85.51 OFFCURVE",
"133.56 138.25 OFFCURVE",
"133.56 201.95 CURVE SMOOTH",
"133.56 281.82 LINE SMOOTH",
"133.56 346.67 OFFCURVE",
"186.3 399.38 OFFCURVE",
"250 399.38 CURVE SMOOTH"
);
},
{
closed = 1;
nodes = (
"239.59 483.76 LINE SMOOTH",
"134 478 OFFCURVE",
"49.52 391.61 OFFCURVE",
"48.06 284.64 CURVE SMOOTH",
"48.05 283.7 OFFCURVE",
"48.06 282.77 OFFCURVE",
"48.06 281.83 CURVE SMOOTH",
"48.06 201.96 LINE",
"48.06 199.15 LINE SMOOTH",
"49.57 89.76 OFFCURVE",
"139.16 0.02 OFFCURVE",
"250 0.02 CURVE SMOOTH",
"293.89 0.02 OFFCURVE",
"334.52 14.22 OFFCURVE",
"367.56 37.99 CURVE",
"367.56 2.83 LINE",
"367.56 0.02 LINE",
"370.37 0.02 LINE",
"409.75 0.02 LINE",
"449.13 0.02 LINE",
"451.94 0.02 LINE",
"451.94 2.83 LINE",
"451.94 480.96 LINE",
"451.94 483.77 LINE",
"449.13 483.77 LINE",
"370.38 483.77 LINE",
"367.57 483.77 LINE",
"367.57 480.96 LINE",
"367.57 446.37 LINE",
"334.52 470.07 OFFCURVE",
"294 484 OFFCURVE",
"250 484 CURVE SMOOTH"
);
}
);
width = 500;
},
{
anchors = (
{
name = top;
position = "{251, 484}";
}
);
associatedMasterId = "35624636-21CC-465F-9DE1-D1867EA72944";
hints = (
{
horizontal = 1;
place = "{0, 85.5}";
type = Stem;
},
{
horizontal = 1;
place = "{399.38, 84.37}";
type = Stem;
},
{
place = "{48.06, 85.5}";
type = Stem;
},
{
place = "{367.56, 84.38}";
type = Stem;
}
);
layerId = "9F75E6A0-3DC7-432C-BC65-FA25A5A91305";
name = "Jul 12 19, 09:20";
paths = (
{
closed = 1;
nodes = (
"317 399 OFFCURVE",
"370 347 OFFCURVE",
"370 282 CURVE SMOOTH",
"370 202 LINE SMOOTH",
"370 138 OFFCURVE",
"317 86 OFFCURVE",
"252 86 CURVE SMOOTH",
"188 86 OFFCURVE",
"136 138 OFFCURVE",
"136 202 CURVE SMOOTH",
"136 282 LINE SMOOTH",
"136 347 OFFCURVE",
"188 399 OFFCURVE",
"252 399 CURVE SMOOTH"
);
},
{
closed = 1;
nodes = (
"242 484 LINE SMOOTH",
"136 478 OFFCURVE",
"52 392 OFFCURVE",
"50 285 CURVE SMOOTH",
"50 293 OFFCURVE",
"50 282 OFFCURVE",
"50 199 CURVE SMOOTH",
"52 90 OFFCURVE",
"141 0 OFFCURVE",
"252 0 CURVE SMOOTH",
"296 0 OFFCURVE",
"337 14 OFFCURVE",
"370 38 CURVE",
"370 0 LINE",
"454 0 LINE",
"454 481 LINE",
"454 484 LINE",
"451 484 LINE",
"372 484 LINE",
"370 484 LINE",
"370 481 LINE",
"370 446 LINE",
"337 470 OFFCURVE",
"296 484 OFFCURVE",
"252 484 CURVE SMOOTH"
);
}
);
width = 514;
},
{
anchors = (
{
name = top;
position = "{251, 484}";
}
);
associatedMasterId = "35624636-21CC-465F-9DE1-D1867EA72944";
hints = (
{
horizontal = 1;
place = "{0, 85.5}";
type = Stem;
},
{
horizontal = 1;
place = "{399.38, 84.37}";
type = Stem;
},
{
place = "{48.06, 85.5}";
type = Stem;
},
{
place = "{367.56, 84.38}";
type = Stem;
}
);
layerId = "9C0FF3E8-DECA-45AE-847E-ACF9E0E0DC2D";
name = "Jul 12 19, 12:22";
paths = (
{
closed = 1;
nodes = (
"417 0 LINE",
"504 0 LINE",
"504 285 LINE SMOOTH",
"502 393 OFFCURVE",
"414 484 OFFCURVE",
"305 484 CURVE SMOOTH",
"30 484 LINE",
"30 398 LINE",
"305 398 LINE SMOOTH",
"367 398 OFFCURVE",
"417 346 OFFCURVE",
"418 285 CURVE SMOOTH",
"418 284 LINE",
"417 284 LINE"
);
},
{
closed = 1;
nodes = (
"109 236 LINE",
"55 183 OFFCURVE",
"55 95 OFFCURVE",
"109 41 CURVE SMOOTH",
"162 -12 OFFCURVE",
"249 -12 OFFCURVE",
"303 42 CURVE SMOOTH",
"306 45 OFFCURVE",
"246 104 OFFCURVE",
"244 101 CURVE SMOOTH",
"228 77 OFFCURVE",
"189 82 OFFCURVE",
"169 101 CURVE SMOOTH",
"148 121 OFFCURVE",
"149 156 OFFCURVE",
"169 176 CURVE"
);
},
{
closed = 1;
nodes = (
"169 176 LINE",
"306 334 LINE",
"272 420 LINE",
"109 236 LINE"
);
},
{
closed = 1;
nodes = (
"305 42 LINE",
"415 164 LINE",
"320 180 LINE",
"245 102 LINE"
);
}
);
width = 564;
},
{
anchors = (
{
name = top;
position = "{247, 484}";
}
);
associatedMasterId = "35624636-21CC-465F-9DE1-D1867EA72944";
hints = (
{
horizontal = 1;
place = "{0, 85.5}";
type = Stem;
},
{
horizontal = 1;
place = "{399.38, 84.37}";
type = Stem;
},
{
place = "{48.06, 85.5}";
type = Stem;
},
{
place = "{367.56, 84.38}";
type = Stem;
}
);
layerId = "013084BA-6AD2-44E5-B09E-DC69CD3FB7F5";
name = "Jul 12 19, 12:29";
paths = (
{
closed = 1;
nodes = (
"413 0 LINE",
"500 0 LINE",
"500 285 LINE SMOOTH",
"498 393 OFFCURVE",
"410 484 OFFCURVE",
"301 484 CURVE SMOOTH",
"76 484 LINE",
"76 398 LINE",
"301 398 LINE SMOOTH",
"363 398 OFFCURVE",
"413 346 OFFCURVE",
"414 285 CURVE SMOOTH",
"414 284 LINE",
"413 284 LINE"
);
},
{
closed = 1;
nodes = (
"333 0 OFFCURVE",
"415 82 OFFCURVE",
"415 183 CURVE SMOOTH",
"415 283 OFFCURVE",
"333 365 OFFCURVE",
"233 365 CURVE SMOOTH",
"132 365 OFFCURVE",
"50 283 OFFCURVE",
"50 183 CURVE SMOOTH",
"50 82 OFFCURVE",
"132 0 OFFCURVE",
"233 0 CURVE SMOOTH"
);
},
{
closed = 1;
nodes = (
"176 79 OFFCURVE",
"129 126 OFFCURVE",
"129 183 CURVE SMOOTH",
"129 239 OFFCURVE",
"176 286 OFFCURVE",
"233 286 CURVE SMOOTH",
"289 286 OFFCURVE",
"336 239 OFFCURVE",
"336 183 CURVE SMOOTH",
"336 126 OFFCURVE",
"289 79 OFFCURVE",
"233 79 CURVE SMOOTH"
);
}
);
width = 560;
},
{
anchors = (
{
name = top;
position = "{315, 484}";
}
);
associatedMasterId = "35624636-21CC-465F-9DE1-D1867EA72944";
hints = (
{
horizontal = 1;
place = "{0, 85.5}";
type = Stem;
},
{
horizontal = 1;
place = "{399.38, 84.37}";
type = Stem;
},
{
place = "{48.06, 85.5}";
type = Stem;
},
{
place = "{367.56, 84.38}";
type = Stem;
}
);
layerId = "DF21883C-4755-4D5A-9D4E-8296A823CBB4";
name = "Jul 12 19, 12:40";
paths = (
{
closed = 1;
nodes = (
"283 0 OFFCURVE",
"358 75 OFFCURVE",
"358 167 CURVE SMOOTH",
"358 257 OFFCURVE",
"283 332 OFFCURVE",
"192 332 CURVE SMOOTH",
"101 332 OFFCURVE",
"26 257 OFFCURVE",
"26 167 CURVE SMOOTH",
"26 75 OFFCURVE",
"101 0 OFFCURVE",
"192 0 CURVE SMOOTH"
);
},
{
closed = 1;
nodes = (
"148 84 OFFCURVE",
"111 121 OFFCURVE",
"111 167 CURVE SMOOTH",
"111 210 OFFCURVE",
"148 247 OFFCURVE",
"192 247 CURVE SMOOTH",
"237 247 OFFCURVE",
"274 210 OFFCURVE",
"274 167 CURVE SMOOTH",
"274 121 OFFCURVE",
"237 84 OFFCURVE",
"192 84 CURVE SMOOTH"
);
},
{
closed = 1;
nodes = (
"483 0 LINE",
"483 285 LINE SMOOTH",
"483 395 OFFCURVE",
"393 484 OFFCURVE",
"284 484 CURVE SMOOTH",
"83 484 LINE",
"83 399 LINE",
"284 399 LINE SMOOTH",
"346 399 OFFCURVE",
"397 348 OFFCURVE",
"397 285 CURVE SMOOTH",
"397 0 LINE"
);
},
{
closed = 1;
nodes = (
"272 125 LINE",
"418 125 LINE",
"418 214 LINE",
"272 214 LINE"
);
}
);
width = 543;
},
{
associatedMasterId = "35624636-21CC-465F-9DE1-D1867EA72944";
components = (
{
name = period;
transform = "{1, 0, 0, 1, -43, 0}";
}
);
hints = (
{
horizontal = 1;
place = "{0, 85.5}";
type = Stem;
},
{
horizontal = 1;
place = "{399.38, 84.37}";
type = Stem;
},
{
place = "{48.06, 85.5}";
type = Stem;
},
{
place = "{367.56, 84.38}";
type = Stem;
}
);
layerId = "44B15CB2-01FA-4307-9CC4-2EBC80204068";
name = "Jul 12 19, 12:54";
paths = (
{
closed = 1;
nodes = (
"368 267 OFFCURVE",
"368 18 OFFCURVE",
"368 82 CURVE SMOOTH",
"368 202 LINE SMOOTH"
);
},
{
closed = 1;
nodes = (
"368 37 LINE",
"368 1 LINE",
"454 1 LINE",
"454 283 LINE SMOOTH",
"454 394 OFFCURVE",
"364 485 OFFCURVE",
"252 485 CURVE SMOOTH",
"140 485 OFFCURVE",
"50 394 OFFCURVE",
"50 280 CURVE",
"134 280 LINE",
"134 350 OFFCURVE",
"189 399 OFFCURVE",
"252 399 CURVE SMOOTH",
"315 399 OFFCURVE",
"367 348 OFFCURVE",
"368 286 CURVE SMOOTH",
"368 247 LINE"
);
},
{
closed = 1;
nodes = (
"197 189 LINE",
"441 189 LINE",
"441 275 LINE",
"197 275 LINE"
);
}
);
width = 514;
},
{
associatedMasterId = "35624636-21CC-465F-9DE1-D1867EA72944";
components = (
{
name = period;
transform = "{1, 0, 0, 1, 3, 0}";
}
);
hints = (
{
horizontal = 1;
place = "{0, 85.5}";
type = Stem;
},
{
horizontal = 1;
place = "{399.38, 84.37}";
type = Stem;
},
{
place = "{48.06, 85.5}";
type = Stem;
},
{
place = "{367.56, 84.38}";
type = Stem;
}
);
layerId = "0B072893-4596-4C7C-A18A-5DE0F960DA1B";
name = "Jul 12 19, 12:56";
paths = (
{
closed = 1;
nodes = (
"368 267 OFFCURVE",
"368 18 OFFCURVE",
"368 82 CURVE SMOOTH",
"368 202 LINE SMOOTH"
);
},
{
closed = 1;
nodes = (
"368 37 LINE",
"368 1 LINE",
"454 1 LINE",
"454 283 LINE SMOOTH",
"454 394 OFFCURVE",
"364 485 OFFCURVE",
"252 485 CURVE SMOOTH",
"140 485 OFFCURVE",
"50 394 OFFCURVE",
"50 280 CURVE",
"134 280 LINE",
"134 350 OFFCURVE",
"189 399 OFFCURVE",
"252 399 CURVE SMOOTH",
"315 399 OFFCURVE",
"367 348 OFFCURVE",
"368 286 CURVE SMOOTH",
"368 247 LINE"
);
}
);
width = 514;
},
{
associatedMasterId = "35624636-21CC-465F-9DE1-D1867EA72944";
hints = (
{
horizontal = 1;
place = "{0, 85.5}";
type = Stem;
},
{
horizontal = 1;
place = "{399.38, 84.37}";
type = Stem;
},
{
place = "{48.06, 85.5}";
type = Stem;
},
{
place = "{367.56, 84.38}";
type = Stem;
}
);
layerId = "EE6504EA-4314-4604-8783-B7F1674BC43D";
name = "Jul 12 19, 12:57";
paths = (
{
closed = 1;
nodes = (
"393 0 LINE",
"480 0 LINE",
"480 285 LINE SMOOTH",
"480 393 OFFCURVE",
"390 484 OFFCURVE",
"281 484 CURVE SMOOTH",
"56 484 LINE",
"56 398 LINE",
"281 398 LINE SMOOTH",
"343 398 OFFCURVE",
"394 346 OFFCURVE",
"394 285 CURVE SMOOTH",
"394 284 LINE",
"393 284 LINE"
);
},
{
closed = 1;
nodes = (
"313 0 OFFCURVE",
"395 82 OFFCURVE",
"395 183 CURVE SMOOTH",
"395 283 OFFCURVE",
"313 365 OFFCURVE",
"213 365 CURVE SMOOTH",
"112 365 OFFCURVE",
"30 283 OFFCURVE",
"30 183 CURVE SMOOTH",
"30 82 OFFCURVE",
"112 0 OFFCURVE",
"213 0 CURVE SMOOTH"
);
},
{
closed = 1;
nodes = (
"156 79 OFFCURVE",
"109 126 OFFCURVE",
"109 183 CURVE SMOOTH",
"109 239 OFFCURVE",
"156 286 OFFCURVE",
"213 286 CURVE SMOOTH",
"269 286 OFFCURVE",
"316 239 OFFCURVE",
"316 183 CURVE SMOOTH",
"316 126 OFFCURVE",
"269 79 OFFCURVE",
"213 79 CURVE SMOOTH"
);
}
);
width = 514;
},
{
associatedMasterId = "35624636-21CC-465F-9DE1-D1867EA72944";
hints = (
{
horizontal = 1;
place = "{0, 85.5}";
type = Stem;
},
{
horizontal = 1;
place = "{399.38, 84.37}";
type = Stem;
},
{
place = "{48.06, 85.5}";
type = Stem;
},
{
place = "{367.56, 84.38}";
type = Stem;
}
);
layerId = "BDE5378B-25EB-46FF-8E34-07209457A971";
name = "Jul 12 19, 13:03";
paths = (
{
closed = 1;
nodes = (
"333 0 OFFCURVE",
"415 82 OFFCURVE",
"415 183 CURVE SMOOTH",
"415 283 OFFCURVE",
"333 365 OFFCURVE",
"233 365 CURVE SMOOTH",
"132 365 OFFCURVE",
"50 283 OFFCURVE",
"50 183 CURVE SMOOTH",
"50 82 OFFCURVE",
"132 0 OFFCURVE",
"233 0 CURVE SMOOTH"
);
},
{
closed = 1;
nodes = (
"176 79 OFFCURVE",
"129 126 OFFCURVE",
"129 183 CURVE SMOOTH",
"129 239 OFFCURVE",
"176 286 OFFCURVE",
"233 286 CURVE SMOOTH",
"289 286 OFFCURVE",
"336 239 OFFCURVE",
"336 183 CURVE SMOOTH",
"336 126 OFFCURVE",
"289 79 OFFCURVE",
"233 79 CURVE SMOOTH"
);
},
{
closed = 1;
nodes = (
"500 0 LINE",
"500 285 LINE SMOOTH",
"500 395 OFFCURVE",
"410 484 OFFCURVE",
"301 484 CURVE SMOOTH",
"70 484 LINE",
"70 399 LINE",
"301 399 LINE SMOOTH",
"363 399 OFFCURVE",
"414 348 OFFCURVE",
"414 285 CURVE SMOOTH",
"414 0 LINE"
);
}
);
width = 560;
},
{
anchors = (
{
name = top;
position = "{283, 484}";
}
);
associatedMasterId = "35624636-21CC-465F-9DE1-D1867EA72944";
components = (
{
name = period;
transform = "{1, 0, 0, 1, -50, 0}";
}
);
hints = (
{
horizontal = 1;
place = "{0, 85.5}";
type = Stem;
},
{
horizontal = 1;
place = "{399.38, 84.37}";
type = Stem;
},
{
place = "{48.06, 85.5}";
type = Stem;
},
{
place = "{367.56, 84.38}";
type = Stem;
}
);
layerId = "71BD8CEE-9D8B-41CD-8F74-B3450FD496AB";
name = "Jul 12 19, 13:59";
paths = (
{
closed = 1;
nodes = (
"482 0 LINE",
"482 285 LINE SMOOTH",
"482 395 OFFCURVE",
"392 484 OFFCURVE",
"283 484 CURVE SMOOTH",
"82 484 LINE",
"82 399 LINE",
"283 399 LINE SMOOTH",
"345 399 OFFCURVE",
"396 348 OFFCURVE",
"396 285 CURVE SMOOTH",
"396 0 LINE"
);
},
{
closed = 1;
nodes = (
"189 189 LINE",
"433 189 LINE",
"433 275 LINE",
"189 275 LINE"
);
}
);
width = 542;
},
{
anchors = (
{
name = top;
position = "{250, 484}";
}
);
hints = (
{
horizontal = 1;
place = "{0, 85.5}";
type = Stem;
},
{
horizontal = 1;
place = "{399.38, 84.37}";
type = Stem;
},
{
place = "{48.06, 85.5}";
type = Stem;
},
{
place = "{367.56, 84.38}";
type = Stem;
}
);
layerId = "35624636-21CC-465F-9DE1-D1867EA72944";
paths = (
{
closed = 1;
nodes = (
"328 0 OFFCURVE",
"410 82 OFFCURVE",
"410 184 CURVE SMOOTH",
"410 282 OFFCURVE",
"328 365 OFFCURVE",
"228 365 CURVE SMOOTH",
"128 365 OFFCURVE",
"45 282 OFFCURVE",
"45 184 CURVE SMOOTH",
"45 82 OFFCURVE",
"128 0 OFFCURVE",
"228 0 CURVE SMOOTH"
);
},
{
closed = 1;
nodes = (
"175 84 OFFCURVE",
"130 128 OFFCURVE",
"130 184 CURVE SMOOTH",
"130 235 OFFCURVE",
"175 280 OFFCURVE",
"227 280 CURVE SMOOTH",
"282 280 OFFCURVE",
"326 235 OFFCURVE",
"326 184 CURVE SMOOTH",
"326 128 OFFCURVE",
"282 84 OFFCURVE",
"227 84 CURVE SMOOTH"
);
},
{
closed = 1;
nodes = (
"518 0 LINE",
"518 285 LINE SMOOTH",
"518 395 OFFCURVE",
"428 484 OFFCURVE",
"319 484 CURVE SMOOTH",
"88 484 LINE",
"88 399 LINE",
"319 399 LINE SMOOTH",
"381 399 OFFCURVE",
"432 348 OFFCURVE",
"432 285 CURVE SMOOTH",
"432 0 LINE"
);
},
{
closed = 1;
nodes = (
"364 142 LINE",
"463 142 LINE",
"463 227 LINE",
"364 227 LINE"
);
}
);
width = 578;
}
);
leftKerningGroup = o;
leftMetricsKey = o;
note = a;
rightMetricsKey = n;
unicode = 0061;
},
{
glyphname = b;
lastChange = "2019-07-12 12:36:57 +0000";
layers = (
{
hints = (
{
horizontal = 1;
place = "{0, 85.5}";
type = Stem;
},
{
horizontal = 1;
place = "{399.38, 84.37}";
type = Stem;
},
{
horizontal = 1;
place = "{723.38, -20}";
target = down;
type = TopGhost;
},
{
place = "{47.54, 85.5}";
type = Stem;
},
{
place = "{367.04, 85.5}";
type = Stem;
}
);
layerId = "35624636-21CC-465F-9DE1-D1867EA72944";
paths = (
{
closed = 1;
nodes = (
"60 723 LINE",
"60 721 LINE",
"60 292 LINE SMOOTH",
"59 289 OFFCURVE",
"60 285 OFFCURVE",
"60 282 CURVE SMOOTH",
"60 202 LINE SMOOTH",
"60 198 OFFCURVE",
"59 195 OFFCURVE",
"60 192 CURVE SMOOTH",
"60 3 LINE",
"60 0 LINE",
"62 0 LINE",
"103 0 LINE",
"142 0 LINE",
"145 0 LINE",
"145 3 LINE",
"145 38 LINE",
"178 14 OFFCURVE",
"218 0 OFFCURVE",
"261 0 CURVE SMOOTH",
"373 0 OFFCURVE",
"465 91 OFFCURVE",
"465 202 CURVE SMOOTH",
"465 282 LINE SMOOTH",
"465 394 OFFCURVE",
"373 484 OFFCURVE",
"261 484 CURVE SMOOTH",
"218 484 OFFCURVE",
"178 470 OFFCURVE",
"145 447 CURVE",
"145 721 LINE",
"145 723 LINE",
"142 723 LINE",
"62 723 LINE"
);
},
{
closed = 1;
nodes = (
"326 399 OFFCURVE",
"379 347 OFFCURVE",
"379 282 CURVE SMOOTH",
"379 202 LINE",
"379 199 LINE SMOOTH",
"378 137 OFFCURVE",
"325 86 OFFCURVE",
"261 86 CURVE SMOOTH",
"198 86 OFFCURVE",
"145 138 OFFCURVE",
"145 202 CURVE SMOOTH",
"145 282 LINE SMOOTH",
"145 347 OFFCURVE",
"198 399 OFFCURVE",
"261 399 CURVE SMOOTH"
);
}
);
width = 510;
}
);
leftMetricsKey = n;
note = b;
rightKerningGroup = o;
rightMetricsKey = o;
unicode = 0062;
},
{
glyphname = c;
lastChange = "2019-07-12 12:36:58 +0000";
layers = (
{
anchors = (
{
name = bottom;
position = "{247, 0}";
}
);
hints = (
{
horizontal = 1;
place = "{0, 85.5}";
type = Stem;
},
{
horizontal = 1;
place = "{399.38, 84.37}";
type = Stem;
},
{
place = "{48.06, 84.38}";
type = Stem;
},
{
place = "{369.25, 79.88}";
type = Stem;
}
);
layerId = "35624636-21CC-465F-9DE1-D1867EA72944";
paths = (
{
closed = 1;
nodes = (
"134 478 OFFCURVE",
"47 395 OFFCURVE",
"45 282 CURVE",
"45 199 LINE SMOOTH",
"47 90 OFFCURVE",
"136 0 OFFCURVE",
"247 0 CURVE SMOOTH",
"358 0 OFFCURVE",
"449 91 OFFCURVE",
"449 202 CURVE",
"446 205 LINE",
"366 205 LINE",
"363 202 LINE",
"363 138 OFFCURVE",
"311 86 OFFCURVE",
"247 86 CURVE SMOOTH",
"182 86 OFFCURVE",
"129 138 OFFCURVE",
"129 202 CURVE SMOOTH",
"129 282 LINE SMOOTH",
"129 347 OFFCURVE",
"182 399 OFFCURVE",
"247 399 CURVE SMOOTH",
"311 399 OFFCURVE",
"363 347 OFFCURVE",
"363 282 CURVE",
"366 279 LINE",
"446 279 LINE",
"449 282 LINE",
"449 394 OFFCURVE",
"358 484 OFFCURVE",
"247 484 CURVE SMOOTH",
"244 484 OFFCURVE",
"240 484 OFFCURVE",
"237 484 CURVE SMOOTH"
);
}
);
width = 494;
}
);
leftKerningGroup = o;
leftMetricsKey = o;
note = c;
rightKerningGroup = o;
rightMetricsKey = o;
unicode = 0063;
},
{
glyphname = d;
lastChange = "2019-07-12 12:36:58 +0000";
layers = (
{
hints = (
{
horizontal = 1;
place = "{-0.19, 85.5}";
type = Stem;
},
{
horizontal = 1;
place = "{399.19, 84.37}";
type = Stem;
},
{
horizontal = 1;
place = "{723.19, -20}";
target = down;
type = TopGhost;
},
{
place = "{48.06, 85.5}";
type = Stem;
},
{
place = "{366.44, 85.5}";
type = Stem;
}
);
layerId = "35624636-21CC-465F-9DE1-D1867EA72944";
paths = (
{
closed = 1;
nodes = (
"363 723 LINE",
"363 720 LINE",
"363 447 LINE",
"331 470 OFFCURVE",
"290 484 OFFCURVE",
"247 484 CURVE SMOOTH",
"136 484 OFFCURVE",
"47 395 OFFCURVE",
"45 284 CURVE SMOOTH",
"45 282 LINE",
"45 202 LINE",
"45 199 LINE SMOOTH",
"47 90 OFFCURVE",
"136 0 OFFCURVE",
"247 0 CURVE SMOOTH",
"290 0 OFFCURVE",
"331 14 OFFCURVE",
"363 37 CURVE",
"363 3 LINE",
"363 0 LINE",
"366 0 LINE",
"407 0 LINE",
"446 0 LINE",
"449 0 LINE",
"449 3 LINE",
"449 202 LINE",
"449 282 LINE",
"449 720 LINE",
"449 723 LINE",
"446 723 LINE",
"366 723 LINE"
);
},
{
closed = 1;
nodes = (
"312 399 OFFCURVE",
"363 347 OFFCURVE",
"363 282 CURVE SMOOTH",
"363 202 LINE SMOOTH",
"363 138 OFFCURVE",
"312 85 OFFCURVE",
"247 85 CURVE SMOOTH",
"183 85 OFFCURVE",
"132 137 OFFCURVE",
"131 199 CURVE SMOOTH",
"131 202 LINE",
"131 282 LINE",
"131 284 LINE SMOOTH",
"132 348 OFFCURVE",
"183 399 OFFCURVE",
"247 399 CURVE SMOOTH"
);
}
);
width = 509;
}
);
leftKerningGroup = o;
leftMetricsKey = o;
note = d;
rightMetricsKey = n;
unicode = 0064;
},
{
glyphname = e;
lastChange = "2019-07-12 12:36:58 +0000";
layers = (
{
anchors = (
{
name = top;
position = "{247, 484}";
}
);
background = {
paths = (
{
closed = 1;
nodes = (
"451 280 LINE",
"451 393 OFFCURVE",
"360 484 OFFCURVE",
"247 484 CURVE SMOOTH",
"134 484 OFFCURVE",
"43 393 OFFCURVE",
"43 280 CURVE"
);
}
);
};
hints = (
{
horizontal = 1;
place = "{0, 85.5}";
type = Stem;
},
{
horizontal = 1;
place = "{199.13, 85.5}";
type = Stem;
},
{
horizontal = 1;
place = "{399.38, 84.37}";
type = Stem;
},
{
place = "{48.06, 85.5}";
type = Stem;
},
{
place = "{366.44, 85.5}";
type = Stem;
}
);
layerId = "35624636-21CC-465F-9DE1-D1867EA72944";
paths = (
{
closed = 1;
nodes = (
"311 399 OFFCURVE",
"362 348 OFFCURVE",
"363 285 CURVE",
"131 285 LINE",
"132 348 OFFCURVE",
"183 399 OFFCURVE",
"247 399 CURVE SMOOTH"
);
},
{
closed = 1;
nodes = (
"135 484 OFFCURVE",
"47 394 OFFCURVE",
"45 285 CURVE SMOOTH",
"45 199 LINE SMOOTH",
"47 91 OFFCURVE",
"135 2 OFFCURVE",
"244 0 CURVE SMOOTH",
"449 0 LINE",
"449 86 LINE",
"244 86 LINE SMOOTH",
"182 87 OFFCURVE",
"132 138 OFFCURVE",
"131 199 CURVE",
"449 199 LINE",
"449 282 LINE SMOOTH",
"449 394 OFFCURVE",
"359 484 OFFCURVE",
"247 484 CURVE SMOOTH"
);
}
);
width = 497;
}
);
leftKerningGroup = o;
leftMetricsKey = o;
note = e;
unicode = 0065;
},
{
glyphname = f;
lastChange = "2019-07-15 08:50:14 +0000";
layers = (
{
hints = (
{
horizontal = 1;
place = "{-0.19, 21}";
target = up;
type = BottomGhost;
},
{
horizontal = 1;
place = "{278.81, 85.5}";
type = Stem;
},
{
horizontal = 1;
place = "{637.69, 85.5}";
type = Stem;
},
{
place = "{57.69, 85.5}";
type = Stem;
}
);
layerId = "35624636-21CC-465F-9DE1-D1867EA72944";
paths = (
{
closed = 1;
nodes = (
"257 723 LINE SMOOTH",
"147 723 OFFCURVE",
"58 634 OFFCURVE",
"58 524 CURVE SMOOTH",
"57.69 -0.18 LINE",
"143.19 -0.18 LINE",
"143 399 LINE",
"343 399 LINE",
"343 484 LINE",
"143 484 LINE",
"143 524 LINE SMOOTH",
"143 587 OFFCURVE",
"195 638 OFFCURVE",
"257 638 CURVE SMOOTH",
"342 638 LINE",
"342 723 LINE"
);
}
);
width = 353;
}
);
note = f;
rightMetricsKey = r;
unicode = 0066;
},
{
glyphname = g;
lastChange = "2019-07-15 08:29:18 +0000";
layers = (
{
associatedMasterId = "35624636-21CC-465F-9DE1-D1867EA72944";
components = (
{
name = period;
transform = "{1, 0, 0, -1, -82, 484}";
}
);
hints = (
{
horizontal = 1;
place = "{-200, 85.5}";
type = Stem;
},
{
horizontal = 1;
place = "{1, 85.5}";
type = Stem;
},
{
horizontal = 1;
place = "{400.38, 84.37}";
type = Stem;
},
{
place = "{48.06, 84.38}";
type = Stem;
},
{
place = "{366.44, 85.5}";
type = Stem;
}
);
layerId = "79DC5756-33DD-495A-9289-432892E79B6A";
name = "Jul 12 19, 12:50";
paths = (
{
closed = 1;
nodes = (
"364 199 LINE SMOOTH",
"364 136 OFFCURVE",
"313 85 OFFCURVE",
"251 85 CURVE SMOOTH",
"50 85 LINE",
"50 0 LINE",
"251 0 LINE SMOOTH",
"360 0 OFFCURVE",
"450 89 OFFCURVE",
"450 199 CURVE SMOOTH",
"450 484 LINE",
"364 484 LINE"
);
},
{
closed = 1;
nodes = (
"401 209 LINE",
"401 295 LINE",
"157 295 LINE",
"157 209 LINE"
);
}
);
width = 500;
},
{
hints = (
{
horizontal = 1;
place = "{-200, 85.5}";
type = Stem;
},
{
horizontal = 1;
place = "{1, 85.5}";
type = Stem;
},
{
horizontal = 1;
place = "{400.38, 84.37}";
type = Stem;
},
{
place = "{48.06, 84.38}";
type = Stem;
},
{
place = "{366.44, 85.5}";
type = Stem;
}
);
layerId = "35624636-21CC-465F-9DE1-D1867EA72944";
paths = (
{
closed = 1;
nodes = (
"313.71 400.39 OFFCURVE",
"366.46 347.67 OFFCURVE",
"366.46 282.83 CURVE SMOOTH",
"366.46 202.96 LINE SMOOTH",
"366.46 139.27 OFFCURVE",
"313.72 86.52 OFFCURVE",
"250.02 86.52 CURVE SMOOTH",
"185.17 86.52 OFFCURVE",
"132.46 139.26 OFFCURVE",
"132.46 202.96 CURVE SMOOTH",
"132.46 285.64 LINE SMOOTH",
"134 349.17 OFFCURVE",
"186.13 400.39 OFFCURVE",
"250.02 400.39 CURVE SMOOTH"
);
},
{
closed = 1;
nodes = (
"122 485 OFFCURVE",
"48 393 OFFCURVE",
"48.06 282.81 CURVE SMOOTH",
"48.06 200.13 LINE SMOOTH",
"49.57 90.74 OFFCURVE",
"139.16 1.01 OFFCURVE",
"250 1.01 CURVE SMOOTH",
"293.44 1.01 OFFCURVE",
"333.58 15.09 OFFCURVE",
"366.44 38.42 CURVE",
"366.44 -0.86 LINE SMOOTH",
"364.91 -63.28 OFFCURVE",
"312.76 -114.49 OFFCURVE",
"250 -114.49 CURVE SMOOTH",
"187 -114 OFFCURVE",
"132 -65 OFFCURVE",
"132 5 CURVE",
"48 5 LINE",
"48 -109 OFFCURVE",
"138 -200 OFFCURVE",
"250.01 -199.99 CURVE SMOOTH",
"361.79 -199.99 OFFCURVE",
"452 -109 OFFCURVE",
"451.95 1.95 CURVE SMOOTH",
"452 484 LINE",
"366 484 LINE",
"366.46 447.92 LINE",
"333.6 471.17 OFFCURVE",
"293.46 484.76 OFFCURVE",
"250.02 484.76 CURVE"
);
}
);
width = 500;
}
);
note = g;
unicode = 0067;
},
{
glyphname = h;
layers = (
{
hints = (
{
horizontal = 1;
place = "{-0.19, 21}";
target = up;
type = BottomGhost;
},
{
horizontal = 1;
place = "{399.19, 84.37}";
type = Stem;
},
{
horizontal = 1;
place = "{723.19, -20}";
target = down;
type = TopGhost;
},
{
place = "{48.1, 85.5}";
type = Stem;
},
{
place = "{366.48, 85.5}";
type = Stem;
}
);
layerId = "35624636-21CC-465F-9DE1-D1867EA72944";
paths = (
{
closed = 1;
nodes = (
"48.1 723.19 LINE",
"48.1 720.38 LINE",
"48.1 292.04 LINE SMOOTH",
"47.92 288.6 OFFCURVE",
"48.1 285.12 OFFCURVE",
"48.1 281.63 CURVE SMOOTH",
"48.1 2.63 LINE",
"48.1 -0.18 LINE",
"50.91 -0.18 LINE",
"90.29 -0.18 LINE",
"130.79 -0.18 LINE",
"133.6 -0.18 LINE",
"133.6 2.63 LINE",
"133.6 281.63 LINE SMOOTH",
"133.6 346.51 OFFCURVE",
"185.19 399.19 OFFCURVE",
"250.04 399.19 CURVE SMOOTH",
"313.93 399.19 OFFCURVE",
"364.86 348 OFFCURVE",
"366.48 284.44 CURVE SMOOTH",
"366.5 283.48 OFFCURVE",
"366.48 282.59 OFFCURVE",
"366.48 281.63 CURVE SMOOTH",
"366.48 2.63 LINE",
"366.48 -0.18 LINE",
"369.29 -0.18 LINE",
"409.79 -0.18 LINE",
"449.17 -0.18 LINE",
"451.98 -0.18 LINE",
"451.98 2.63 LINE",
"451.98 281.63 LINE SMOOTH",
"451.98 282.57 OFFCURVE",
"451.99 283.5 OFFCURVE",
"451.98 284.44 CURVE SMOOTH",
"450.48 394.89 OFFCURVE",
"360.86 483.56 OFFCURVE",
"250.04 483.56 CURVE SMOOTH",
"206.61 483.56 OFFCURVE",
"166.53 469.96 OFFCURVE",
"133.6 446.72 CURVE",
"133.6 720.38 LINE",
"133.6 723.19 LINE",
"130.79 723.19 LINE",
"50.92 723.19 LINE"
);
}
);
width = 500;
}
);
note = h;
unicode = 0068;
},
{
glyphname = i;
lastChange = "2019-07-16 11:36:28 +0000";
layers = (
{
associatedMasterId = "35624636-21CC-465F-9DE1-D1867EA72944";
hints = (
{
horizontal = 1;
place = "{0, 21}";
target = up;
type = BottomGhost;
},
{
horizontal = 1;
place = "{483.75, -20}";
target = down;
type = TopGhost;
},
{
horizontal = 1;
place = "{558, 85.5}";
type = Stem;
},
{
place = "{57.25, 85.5}";
type = Stem;
}
);
layerId = "FF1A0907-DC1A-48BD-AD97-28FD478D4C8F";
name = "Jul 5 19, 08:47";
paths = (
{
closed = 1;
nodes = (
"208 483 LINE",
"208 481 LINE",
"208 3 LINE",
"208 0 LINE",
"211 0 LINE",
"250 0 LINE",
"290 0 LINE",
"293 0 LINE",
"293 3 LINE",
"293 481 LINE",
"293 483 LINE",
"290 483 LINE",
"211 483 LINE"
);
},
{
closed = 1;
nodes = (
"208 644 LINE",
"208 641 LINE",
"208 561 LINE",
"208 558 LINE",
"211 558 LINE",
"250 558 LINE",
"290 558 LINE",
"293 558 LINE",
"293 561 LINE",
"293 641 LINE",
"293 644 LINE",
"290 644 LINE",
"211 644 LINE"
);
},
{
closed = 1;
nodes = (
"49 0 LINE",
"446 0 LINE",
"446 85 LINE",
"49 85 LINE"
);
},
{
closed = 1;
nodes = (
"69 400 LINE",
"290 400 LINE",
"290 483 LINE",
"69 483 LINE"
);
}
);
width = 500;
},
{
components = (
{
name = dotlessi;
transform = "{1, 0, 0, 1, 1, 0}";
}
);
hints = (
{
horizontal = 1;
place = "{0, 21}";
target = up;
type = BottomGhost;
},
{
horizontal = 1;
place = "{483.75, -20}";
target = down;
type = TopGhost;
},
{
horizontal = 1;
place = "{558, 85.5}";
type = Stem;
},
{
place = "{57.25, 85.5}";
type = Stem;
}
);
layerId = "35624636-21CC-465F-9DE1-D1867EA72944";
paths = (
{
closed = 1;
nodes = (
"61 639 LINE",
"61 553 LINE",
"147 553 LINE",
"147 639 LINE"
);
}
);
width = 207;
}
);
note = i;
unicode = 0069;
},
{
glyphname = j;
lastChange = "2019-07-16 11:32:16 +0000";
layers = (
{
hints = (
{
horizontal = 1;
place = "{-274.19, 79.88}";
type = Stem;
},
{
horizontal = 1;
place = "{560, 85.5}";
type = Stem;
},
{
place = "{167.44, 85.5}";
type = Stem;
}
);
layerId = "35624636-21CC-465F-9DE1-D1867EA72944";
paths = (
{
closed = 1;
nodes = (
"105 486 LINE",
"105 -63 LINE",
"191 -63 LINE",
"191 486 LINE"
);
},
{
closed = 1;
nodes = (
"105 -63 LINE",
"105 -92 OFFCURVE",
"82 -114 OFFCURVE",
"53 -114 CURVE",
"53 -200 LINE",
"129 -200 OFFCURVE",
"191 -139 OFFCURVE",
"191 -63 CURVE"
);
},
{
closed = 1;
nodes = (
"10 -200 LINE",
"53 -200 LINE",
"53 -114 LINE",
"10 -114 LINE"
);
},
{
closed = 1;
nodes = (
"105 639 LINE",
"105 553 LINE",
"191 553 LINE",
"191 639 LINE"
);
}
);
width = 251;
},
{
associatedMasterId = "35624636-21CC-465F-9DE1-D1867EA72944";
hints = (
{
horizontal = 1;
place = "{-274.19, 79.88}";
type = Stem;
},
{
horizontal = 1;
place = "{560, 85.5}";
type = Stem;
},
{
place = "{167.44, 85.5}";
type = Stem;
}
);
layerId = "95190E0C-8577-48AD-AD0D-1E4BA8A9CBD8";
name = "Jul 12 19, 09:11";
paths = (
{
closed = 1;
nodes = (
"120 486 LINE",
"120 -1 LINE SMOOTH",
"120 -61 OFFCURVE",
"69 -115 OFFCURVE",
"0 -115 CURVE",
"0 -200 LINE",
"114 -200 OFFCURVE",
"206 -110 OFFCURVE",
"206 2 CURVE SMOOTH",
"206 486 LINE"
);
},
{
closed = 1;
nodes = (
"120 646 LINE",
"120 560 LINE",
"206 560 LINE",
"206 646 LINE"
);
}
);
width = 266;
}
);
leftKerningGroup = j;
note = j;
rightMetricsKey = i;
unicode = 006A;
},
{
glyphname = k;
lastChange = "2019-07-12 12:33:56 +0000";
layers = (
{
hints = (
{
horizontal = 1;
place = "{-0.19, 21}";
target = up;
type = BottomGhost;
},
{
horizontal = 1;
place = "{483.56, -20}";
target = down;
type = TopGhost;
},
{
horizontal = 1;
place = "{723.19, -20}";
target = down;
type = TopGhost;
},
{
place = "{55.39, 85.5}";
type = Stem;
}
);
layerId = "35624636-21CC-465F-9DE1-D1867EA72944";
paths = (
{
closed = 1;
nodes = (
"433 484 LINE",
"334 484 LINE",
"141 154 LINE",
"141 723 LINE",
"55 723 LINE",
"55.39 -0.18 LINE",
"140 0 LINE"
);
},
{
closed = 1;
nodes = (
"261 210 LINE",
"365 0 LINE",
"452 0 LINE",
"304 296 LINE"
);
}
);
width = 470;
},
{
associatedMasterId = "35624636-21CC-465F-9DE1-D1867EA72944";
hints = (
{
horizontal = 1;
place = "{-0.19, 21}";
target = up;
type = BottomGhost;
},
{
horizontal = 1;
place = "{483.56, -20}";
target = down;
type = TopGhost;
},
{
horizontal = 1;
place = "{723.19, -20}";
target = down;
type = TopGhost;
},
{
place = "{55.39, 85.5}";
type = Stem;
}
);
layerId = "6B1E0A20-F667-4F9D-9AA7-D1D32DB3DA61";
name = "Jul 4 19, 22:33";
paths = (
{
closed = 1;
nodes = (
"55.39 723.19 LINE",
"55.39 720.38 LINE",
"55.39 2.63 LINE",
"55.39 -0.18 LINE",
"58.2 -0.18 LINE",
"98.7 -0.18 LINE",
"138.07 -0.18 LINE",
"140.88 -0.18 LINE",
"140.88 2.63 LINE",
"237.91 195.67 LINE",
"334.38 1.5 LINE",
"337.19 2.63 LINE",
"337.19 -0.18 LINE",
"417.07 -0.18 LINE",
"417.07 2.63 LINE",
"419.6 3.76 LINE",
"281.23 282.48 LINE",
"380.23 479.64 LINE",
"377.7 480.77 LINE",
"377.7 483.58 LINE",
"297.83 483.58 LINE",
"297.83 480.77 LINE",
"295.02 481.9 LINE",
"140.9 173.93 LINE",
"140.9 720.4 LINE",
"140.9 723.21 LINE",
"138.09 723.21 LINE",
"58.22 723.21 LINE"
);
}
);
width = 430;
}
);
note = k;
rightKerningGroup = k;
unicode = 006B;
},
{
glyphname = l;
lastChange = "2019-07-11 15:37:29 +0000";
layers = (
{
hints = (
{
horizontal = 1;
place = "{-0.19, 21}";
target = up;
type = BottomGhost;
},
{
horizontal = 1;
place = "{723.19, -20}";
target = down;
type = TopGhost;
},
{
place = "{57.25, 85.5}";
type = Stem;
}
);
layerId = "35624636-21CC-465F-9DE1-D1867EA72944";
paths = (
{
closed = 1;
nodes = (
"60 723 LINE",
"60 0 LINE",
"146 0 LINE",
"146 723 LINE"
);
}
);
width = 206;
}
);
leftMetricsKey = n;
note = l;
rightMetricsKey = n;
unicode = 006C;
},
{
glyphname = m;
lastChange = "2019-07-05 13:41:33 +0000";
layers = (
{
hints = (
{
horizontal = 1;
place = "{0, 21}";
target = up;
type = BottomGhost;
},
{
horizontal = 1;
place = "{399.38, 84.37}";
type = Stem;
},
{
place = "{50.81, 85.5}";
type = Stem;
},
{
place = "{370.31, 85.5}";
type = Stem;
},
{
place = "{688.69, 85.5}";
type = Stem;
}
);
layerId = "35624636-21CC-465F-9DE1-D1867EA72944";
paths = (
{
closed = 1;
nodes = (
"60 484 LINE",
"60 481 LINE",
"60 3 LINE",
"60 0 LINE",
"63 0 LINE",
"103 0 LINE",
"143 0 LINE",
"145 0 LINE",
"145 3 LINE",
"145 282 LINE SMOOTH",
"145 347 OFFCURVE",
"198 399 OFFCURVE",
"263 399 CURVE SMOOTH",
"327 399 OFFCURVE",
"379 347 OFFCURVE",
"379 282 CURVE SMOOTH",
"379 3 LINE",
"379 0 LINE",
"382 0 LINE",
"462 0 LINE",
"465 0 LINE",
"465 3 LINE",
"465 282 LINE SMOOTH",
"465 283 OFFCURVE",
"465 284 OFFCURVE",
"465 285 CURVE SMOOTH",
"466 348 OFFCURVE",
"517 399 OFFCURVE",
"581 399 CURVE SMOOTH",
"645 399 OFFCURVE",
"696 348 OFFCURVE",
"698 285 CURVE SMOOTH",
"698 284 OFFCURVE",
"698 283 OFFCURVE",
"698 282 CURVE SMOOTH",
"698 3 LINE",
"698 0 LINE",
"701 0 LINE",
"780 0 LINE",
"783 0 LINE",
"783 3 LINE",
"783 282 LINE",
"783 285 LINE SMOOTH",
"782 395 OFFCURVE",
"692 484 OFFCURVE",
"581 484 CURVE SMOOTH",
"516 484 OFFCURVE",
"459 453 OFFCURVE",
"422 406 CURVE",
"385 453 OFFCURVE",
"327 484 OFFCURVE",
"263 484 CURVE SMOOTH",
"219 484 OFFCURVE",
"179 470 OFFCURVE",
"145 446 CURVE",
"145 481 LINE",
"145 484 LINE",
"143 484 LINE",
"63 484 LINE"
);
}
);
width = 843;
}
);
leftMetricsKey = n;
note = m;
rightMetricsKey = n;
unicode = 006D;
},
{
glyphname = n;
lastChange = "2019-07-12 12:38:25 +0000";
layers = (
{
anchors = (
{
name = top;
position = "{262, 484}";
}
);
hints = (
{
horizontal = 1;
place = "{0, 21}";
target = up;
type = BottomGhost;
},
{
horizontal = 1;
place = "{398.25, 85.5}";
type = Stem;
},
{
place = "{48.1, 85.5}";
type = Stem;
},
{
place = "{367.6, 84.38}";
type = Stem;
}
);
layerId = "35624636-21CC-465F-9DE1-D1867EA72944";
paths = (
{
closed = 1;
nodes = (
"60 484 LINE",
"60 481 LINE",
"60 292 LINE SMOOTH",
"60 289 OFFCURVE",
"60 285 OFFCURVE",
"60 282 CURVE SMOOTH",
"60 3 LINE",
"60 0 LINE",
"63 0 LINE",
"103 0 LINE",
"143 0 LINE",
"146 0 LINE",
"146 3 LINE",
"146 282 LINE SMOOTH",
"146 347 OFFCURVE",
"198 398 OFFCURVE",
"262 398 CURVE SMOOTH",
"326 398 OFFCURVE",
"378 348 OFFCURVE",
"380 285 CURVE SMOOTH",
"380 284 OFFCURVE",
"380 283 OFFCURVE",
"380 282 CURVE SMOOTH",
"380 3 LINE",
"380 0 LINE",
"382 0 LINE",
"422 0 LINE",
"461 0 LINE",
"464 0 LINE",
"464 3 LINE",
"464 282 LINE SMOOTH",
"464 283 OFFCURVE",
"464 284 OFFCURVE",
"464 285 CURVE SMOOTH",
"462 395 OFFCURVE",
"373 484 OFFCURVE",
"262 484 CURVE SMOOTH",
"219 484 OFFCURVE",
"179 470 OFFCURVE",
"146 447 CURVE",
"146 481 LINE",
"146 484 LINE",
"143 484 LINE",
"63 484 LINE"
);
}
);
width = 524;
}
);
leftKerningGroup = n;
note = n;
rightKerningGroup = n;
unicode = 006E;
},
{
glyphname = o;
lastChange = "2019-07-12 12:36:53 +0000";
layers = (
{
anchors = (
{
name = top;
position = "{246, 484}";
}
);
hints = (
{
horizontal = 1;
place = "{0, 85.5}";
type = Stem;
},
{
horizontal = 1;
place = "{398.25, 85.5}";
type = Stem;
},
{
place = "{47.5, 85.5}";
type = Stem;
},
{
place = "{367, 85.5}";
type = Stem;
}
);
layerId = "35624636-21CC-465F-9DE1-D1867EA72944";
paths = (
{
closed = 1;
nodes = (
"311 398 OFFCURVE",
"364 347 OFFCURVE",
"364 282 CURVE SMOOTH",
"364 199 LINE SMOOTH",
"362 137 OFFCURVE",
"310 86 OFFCURVE",
"246 86 CURVE SMOOTH",
"183 86 OFFCURVE",
"130 138 OFFCURVE",
"130 202 CURVE SMOOTH",
"130 282 LINE SMOOTH",
"130 347 OFFCURVE",
"183 398 OFFCURVE",
"246 398 CURVE SMOOTH"
);
},
{
closed = 1;
nodes = (
"136 484 OFFCURVE",
"45 394 OFFCURVE",
"45 282 CURVE SMOOTH",
"45 199 LINE SMOOTH",
"46 89 OFFCURVE",
"137 0 OFFCURVE",
"246 0 CURVE SMOOTH",
"357 0 OFFCURVE",
"448 89 OFFCURVE",
"450 199 CURVE SMOOTH",
"450 169 OFFCURVE",
"450 202 OFFCURVE",
"450 282 CURVE SMOOTH",
"450 394 OFFCURVE",
"358 484 OFFCURVE",
"246 484 CURVE SMOOTH"
);
}
);
width = 495;
}
);
leftKerningGroup = o;
note = o;
rightKerningGroup = o;
unicode = 006F;
},
{
glyphname = p;
lastChange = "2019-07-12 12:36:58 +0000";
layers = (
{
hints = (
{
horizontal = 1;
place = "{-200.5, 21}";
target = up;
type = BottomGhost;
},
{
horizontal = 1;
place = "{0, 85.5}";
type = Stem;
},
{
horizontal = 1;
place = "{398.25, 85.5}";
type = Stem;
},
{
place = "{48.06, 84.38}";
type = Stem;
},
{
place = "{366.44, 85.5}";
type = Stem;
}
);
layerId = "35624636-21CC-465F-9DE1-D1867EA72944";
paths = (
{
closed = 1;
nodes = (
"326 398 OFFCURVE",
"378 347 OFFCURVE",
"378 282 CURVE SMOOTH",
"378 202 LINE",
"378 199 LINE SMOOTH",
"377 137 OFFCURVE",
"325 86 OFFCURVE",
"262 86 CURVE SMOOTH",
"197 86 OFFCURVE",
"144 138 OFFCURVE",
"144 202 CURVE SMOOTH",
"144 282 LINE SMOOTH",
"144 347 OFFCURVE",
"197 398 OFFCURVE",
"262 398 CURVE SMOOTH"
);
},
{
closed = 1;
nodes = (
"60 484 LINE",
"60 481 LINE",
"60 282 LINE",
"60 202 LINE",
"60 -198 LINE",
"60 -200 LINE",
"63 -200 LINE",
"142 -200 LINE",
"144 -200 LINE",
"144 -198 LINE",
"144 37 LINE",
"177 14 OFFCURVE",
"218 0 OFFCURVE",
"262 0 CURVE SMOOTH",
"373 0 OFFCURVE",
"464 90 OFFCURVE",
"464 202 CURVE SMOOTH",
"464 282 LINE SMOOTH",
"464 394 OFFCURVE",
"373 484 OFFCURVE",
"262 484 CURVE SMOOTH",
"218 484 OFFCURVE",
"177 470 OFFCURVE",
"144 446 CURVE",
"144 481 LINE",
"144 484 LINE",
"142 484 LINE",
"102 484 LINE",
"63 484 LINE"
);
}
);
width = 509;
}
);
leftMetricsKey = n;
note = p;
rightKerningGroup = o;
rightMetricsKey = o;
unicode = 0070;
},
{
glyphname = q;
lastChange = "2019-07-05 13:27:25 +0000";
layers = (
{
hints = (
{
horizontal = 1;
place = "{-199.5, 21}";
target = up;
type = BottomGhost;
},
{
horizontal = 1;
place = "{0, 85.5}";
type = Stem;
},
{
horizontal = 1;
place = "{398.25, 85.5}";
type = Stem;
},
{
place = "{48.06, 85.5}";
type = Stem;
},
{
place = "{366.44, 85.5}";
type = Stem;
}
);
layerId = "35624636-21CC-465F-9DE1-D1867EA72944";
paths = (
{
closed = 1;
nodes = (
"314.88 398.25 OFFCURVE",
"366.44 346.69 OFFCURVE",
"366.44 281.81 CURVE SMOOTH",
"366.44 201.94 LINE SMOOTH",
"366.44 138.21 OFFCURVE",
"314.85 85.5 OFFCURVE",
"250 85.5 CURVE SMOOTH",
"185.15 85.5 OFFCURVE",
"133.56 138.21 OFFCURVE",
"133.56 201.94 CURVE SMOOTH",
"133.56 281.81 LINE",
"133.56 284.62 LINE SMOOTH",
"135.03 348.17 OFFCURVE",
"186.06 398.25 OFFCURVE",
"250 398.25 CURVE SMOOTH"
);
},
{
closed = 1;
nodes = (
"138.24 483.75 OFFCURVE",
"48.06 393.57 OFFCURVE",
"48.06 281.81 CURVE SMOOTH",
"48.06 201.94 LINE",
"48.06 199.13 LINE SMOOTH",
"49.56 88.68 OFFCURVE",
"139.18 0.01 OFFCURVE",
"250 0.01 CURVE SMOOTH",
"293.44 0.01 OFFCURVE",
"333.58 13.61 OFFCURVE",
"366.44 36.85 CURVE",
"366.44 -196.68 LINE",
"366.44 -199.49 LINE",
"369.25 -199.49 LINE",
"449.13 -199.49 LINE",
"451.94 -199.49 LINE",
"451.94 -196.68 LINE",
"451.94 201.95 LINE",
"451.94 281.82 LINE",
"451.94 480.95 LINE",
"451.94 483.76 LINE",
"449.13 483.76 LINE",
"409.76 483.76 LINE",
"369.26 483.76 LINE",
"366.45 483.76 LINE",
"366.45 480.95 LINE",
"366.45 446.92 LINE",
"333.59 470.11 OFFCURVE",
"293.45 483.76 OFFCURVE",
"250.01 483.76 CURVE SMOOTH"
);
}
);
width = 500;
}
);
leftKerningGroup = o;
note = q;
unicode = 0071;
},
{
glyphname = r;
lastChange = "2019-07-12 12:43:17 +0000";
layers = (
{
hints = (
{
horizontal = 1;
place = "{0, 21}";
target = up;
type = BottomGhost;
},
{
horizontal = 1;
place = "{398.25, 85.5}";
type = Stem;
},
{
place = "{57.69, 85.5}";
type = Stem;
}
);
layerId = "35624636-21CC-465F-9DE1-D1867EA72944";
paths = (
{
closed = 1;
nodes = (
"58 484 LINE",
"58 3 LINE",
"58 0 LINE",
"61 0 LINE",
"100 0 LINE",
"140 0 LINE",
"143 0 LINE",
"143 3 LINE",
"143 282 LINE SMOOTH",
"143 346 OFFCURVE",
"193 397 OFFCURVE",
"257 398 CURVE SMOOTH",
"342 398 LINE",
"342 481 LINE",
"342 484 LINE",
"340 484 LINE",
"260 484 LINE",
"257 484 LINE SMOOTH",
"214 483 OFFCURVE",
"175 470 OFFCURVE",
"143 447 CURVE",
"143 484 LINE"
);
}
);
width = 352;
}
);
note = r;
rightKerningGroup = r;
unicode = 0072;
},
{
glyphname = s;
lastChange = "2019-07-12 12:42:17 +0000";
layers = (
{
hints = (
{
place = "{47.5, 85.78}";
type = Stem;
},
{
place = "{367, 85.5}";
type = Stem;
}
);
layerId = "35624636-21CC-465F-9DE1-D1867EA72944";
paths = (
{
closed = 1;
nodes = (
"249 484 LINE SMOOTH",
"139 484 OFFCURVE",
"50 393 OFFCURVE",
"50 282 CURVE SMOOTH",
"50 199 LINE",
"364 199 LINE",
"362 138 OFFCURVE",
"312 87 OFFCURVE",
"249 86 CURVE SMOOTH",
"50 86 LINE",
"50 0 LINE",
"249 0 LINE SMOOTH",
"360 2 OFFCURVE",
"450 91 OFFCURVE",
"450 202 CURVE SMOOTH",
"450 285 LINE",
"135 285 LINE",
"137 347 OFFCURVE",
"187 398 OFFCURVE",
"249 398 CURVE SMOOTH",
"450 398 LINE",
"450 484 LINE"
);
}
);
width = 500;
}
);
leftKerningGroup = o;
note = s;
rightKerningGroup = o;
unicode = 0073;
},
{
glyphname = t;
lastChange = "2019-07-16 11:31:09 +0000";
layers = (
{
associatedMasterId = "35624636-21CC-465F-9DE1-D1867EA72944";
hints = (
{
horizontal = 1;
place = "{0.19, 85.5}";
type = Stem;
},
{
horizontal = 1;
place = "{398.44, 85.5}";
type = Stem;
},
{
horizontal = 1;
place = "{723.56, -20}";
target = down;
type = TopGhost;
},
{
place = "{57.69, 85.5}";
type = Stem;
}
);
layerId = "C21B3F4D-A124-4AF7-B680-67BC88ECC560";
name = "Jul 16 19, 13:31";
paths = (
{
closed = 1;
nodes = (
"162 86 OFFCURVE",
"146 101 OFFCURVE",
"146 137 CURVE SMOOTH",
"146 398 LINE",
"303 398 LINE",
"303 484 LINE",
"146 484 LINE",
"146 591 LINE",
"60 591 LINE",
"60 137 LINE SMOOTH",
"60 61 OFFCURVE",
"122 0 OFFCURVE",
"198 0 CURVE SMOOTH",
"343 0 LINE",
"343 86 LINE",
"198 86 LINE SMOOTH"
);
}
);
width = 353;
},
{
hints = (
{
horizontal = 1;
place = "{0.19, 85.5}";
type = Stem;
},
{
horizontal = 1;
place = "{398.44, 85.5}";
type = Stem;
},
{
horizontal = 1;
place = "{723.56, -20}";
target = down;
type = TopGhost;
},
{
place = "{57.69, 85.5}";
type = Stem;
}
);
layerId = "35624636-21CC-465F-9DE1-D1867EA72944";
paths = (
{
closed = 1;
nodes = (
"58 585 LINE",
"58 199 LINE SMOOTH",
"59 90 OFFCURVE",
"148 2 OFFCURVE",
"258 0 CURVE SMOOTH",
"342 0 LINE",
"342 86 LINE",
"258 86 LINE SMOOTH",
"194 87 OFFCURVE",
"143 139 OFFCURVE",
"143 202 CURVE SMOOTH",
"143 398 LINE",
"303 398 LINE",
"302.95 483.95 LINE",
"143 484 LINE",
"143 585 LINE"
);
}
);
width = 352;
}
);
note = t;
rightMetricsKey = r;
unicode = 0074;
},
{
glyphname = u;
lastChange = "2019-07-12 12:36:25 +0000";
layers = (
{
associatedMasterId = "35624636-21CC-465F-9DE1-D1867EA72944";
hints = (
{
horizontal = 1;
place = "{0, 85.5}";
type = Stem;
},
{
horizontal = 1;
place = "{483.75, -20}";
target = down;
type = TopGhost;
},
{
place = "{48.06, 85.5}";
type = Stem;
},
{
place = "{366.44, 85.5}";
type = Stem;
}
);
layerId = "26C2C75D-9A3B-455D-BB7B-A6D6EC772360";
name = "Jul 12 19, 12:25";
paths = (
{
closed = 1;
nodes = (
"285 155 LINE SMOOTH",
"285 116 OFFCURVE",
"254 86 OFFCURVE",
"216 86 CURVE SMOOTH",
"177 86 OFFCURVE",
"146 116 OFFCURVE",
"146 155 CURVE SMOOTH",
"146 484 LINE",
"60 484 LINE",
"60 155 LINE",
"60 152 LINE SMOOTH",
"62 67 OFFCURVE",
"131 0 OFFCURVE",
"215 0 CURVE",
"215 0 OFFCURVE",
"215 0 OFFCURVE",
"216 0 CURVE SMOOTH",
"300 0 OFFCURVE",
"369 67 OFFCURVE",
"371 151 CURVE SMOOTH",
"371 155 LINE",
"371 484 LINE",
"285 484 LINE"
);
}
);
width = 431;
},
{
anchors = (
{
name = top;
position = "{262, 484}";
}
);
hints = (
{
horizontal = 1;
place = "{0, 85.5}";
type = Stem;
},
{
horizontal = 1;
place = "{483.75, -20}";
target = down;
type = TopGhost;
},
{
place = "{48.06, 85.5}";
type = Stem;
},
{
place = "{366.44, 85.5}";
type = Stem;
}
);
layerId = "35624636-21CC-465F-9DE1-D1867EA72944";
paths = (
{
closed = 1;
nodes = (
"60 484 LINE",
"60 202 LINE",
"60 199 LINE SMOOTH",
"62 89 OFFCURVE",
"151 0 OFFCURVE",
"262 0 CURVE SMOOTH",
"373 0 OFFCURVE",
"462 89 OFFCURVE",
"464 199 CURVE SMOOTH",
"464 200 OFFCURVE",
"464 201 OFFCURVE",
"464 202 CURVE SMOOTH",
"464 484 LINE",
"378 484 LINE",
"378 202 LINE SMOOTH",
"378 138 OFFCURVE",
"327 86 OFFCURVE",
"262 86 CURVE SMOOTH",
"197 86 OFFCURVE",
"146 138 OFFCURVE",
"146 202 CURVE SMOOTH",
"146 484 LINE"
);
}
);
width = 524;
}
);
leftKerningGroup = u;
leftMetricsKey = "=|J";
note = u;
rightKerningGroup = u;
rightMetricsKey = J;
unicode = 0075;
},
{
glyphname = v;
lastChange = "2019-07-12 12:40:32 +0000";
layers = (
{
hints = (
{
horizontal = 1;
place = "{0.31, 21}";
target = up;
type = BottomGhost;
},
{
horizontal = 1;
place = "{484.06, -20}";
target = down;
type = TopGhost;
}
);
layerId = "35624636-21CC-465F-9DE1-D1867EA72944";
paths = (
{
closed = 1;
nodes = (
"221 108 LINE",
"93 484 LINE",
"8 484 LINE",
"179 0 LINE",
"262 0 LINE",
"433 484 LINE",
"348 484 LINE"
);
}
);
width = 441;
},
{
associatedMasterId = "35624636-21CC-465F-9DE1-D1867EA72944";
hints = (
{
horizontal = 1;
place = "{0.31, 21}";
target = up;
type = BottomGhost;
},
{
horizontal = 1;
place = "{484.06, -20}";
target = down;
type = TopGhost;
}
);
layerId = "1E51DE8C-EFF7-46A4-844F-67A592CDF368";
name = "Jul 5 19, 15:44";
paths = (
{
closed = 1;
nodes = (
"13 484 LINE",
"13 481 LINE",
"10 480 LINE",
"209 2 LINE",
"212 3 LINE",
"212 0 LINE",
"292 0 LINE",
"292 3 LINE",
"294 2 LINE",
"494 480 LINE",
"491 481 LINE",
"491 484 LINE",
"411 484 LINE",
"411 481 LINE",
"409 482 LINE",
"252 107 LINE",
"95 482 LINE",
"93 481 LINE",
"93 484 LINE"
);
}
);
width = 504;
}
);
leftKerningGroup = v;
leftMetricsKey = w;
note = v;
rightKerningGroup = v;
rightMetricsKey = w;
unicode = 0076;
},
{
glyphname = w;
lastChange = "2019-07-12 12:21:33 +0000";
layers = (
{
hints = (
{
horizontal = 1;
place = "{-0.69, 21}";
target = up;
type = BottomGhost;
},
{
horizontal = 1;
place = "{483.06, -20}";
target = down;
type = TopGhost;
}
);
layerId = "35624636-21CC-465F-9DE1-D1867EA72944";
paths = (
{
closed = 1;
nodes = (
"450 106 LINE",
"394 242 LINE",
"495 484 LINE",
"409 484 LINE",
"351 345 LINE",
"293 484 LINE",
"207 484 LINE",
"308 242 LINE",
"252 106 LINE",
"94 484 LINE",
"8 484 LINE",
"210 0 LINE",
"293 0 LINE",
"351 139 LINE",
"409 0 LINE",
"492 0 LINE",
"694 484 LINE",
"608 484 LINE"
);
}
);
width = 702;
}
);
leftKerningGroup = v;
note = w;
rightKerningGroup = v;
unicode = 0077;
},
{
glyphname = x;
lastChange = "2019-07-11 15:38:19 +0000";
layers = (
{
associatedMasterId = "35624636-21CC-465F-9DE1-D1867EA72944";
hints = (
{
horizontal = 1;
place = "{0.31, 21}";
target = up;
type = BottomGhost;
},
{
horizontal = 1;
place = "{484.06, -20}";
target = down;
type = TopGhost;
},
{
place = "{53.31, 318.38}";
type = Stem;
}
);
layerId = "B36C66F1-5AB0-49A7-ABA2-0DF787F76101";
name = "Jul 5 19, 15:36";
paths = (
{
closed = 1;
nodes = (
"239 243 LINE",
"358 2 LINE",
"361 3 LINE",
"361 0 LINE",
"451 0 LINE",
"451 3 LINE",
"453 5 LINE",
"335 242 LINE",
"453 480 LINE",
"451 482 LINE",
"451 484 LINE",
"361 484 LINE",
"361 481 LINE",
"358 483 LINE"
);
},
{
closed = 1;
nodes = (
"146 483 LINE",
"143 481 LINE",
"143 484 LINE",
"53 484 LINE",
"53 482 LINE",
"51 480 LINE",
"169 242 LINE",
"51 5 LINE",
"53 3 LINE",
"53 0 LINE",
"143 0 LINE",
"143 3 LINE",
"146 2 LINE",
"266 243 LINE"
);
}
);
width = 504;
},
{
associatedMasterId = "35624636-21CC-465F-9DE1-D1867EA72944";
components = (
{
name = comma;
transform = "{1, 0, 0, 1, 221, 390}";
},
{
name = comma;
transform = "{-1, 0, 0, -1, 218, 92}";
}
);
hints = (
{
horizontal = 1;
place = "{0.31, 21}";
target = up;
type = BottomGhost;
},
{
horizontal = 1;
place = "{484.06, -20}";
target = down;
type = TopGhost;
},
{
place = "{53.31, 318.38}";
type = Stem;
}
);
layerId = "C41A5307-9B68-4361-BFFA-2D92FCD8DE8F";
name = "Jul 8 19, 11:36";
paths = (
{
closed = 1;
nodes = (
"53.31 484.06 LINE",
"53.31 481.53 LINE",
"50.78 480.12 LINE",
"169.19 242.18 LINE",
"212.5 155.54 LINE",
"289 1.98 LINE",
"291.81 3.39 LINE",
"291.81 0.3 LINE",
"371.69 0.3 LINE",
"371.69 3.11 LINE",
"374.22 4.52 LINE",
"255.81 242.46 LINE",
"212.5 329.1 LINE",
"136 482.66 LINE",
"133.19 481.25 LINE",
"133.19 484.06 LINE"
);
}
);
width = 425;
},
{
hints = (
{
horizontal = 1;
place = "{0.31, 21}";
target = up;
type = BottomGhost;
},
{
horizontal = 1;
place = "{484.06, -20}";
target = down;
type = TopGhost;
},
{
place = "{53.31, 318.38}";
type = Stem;
}
);
layerId = "35624636-21CC-465F-9DE1-D1867EA72944";
paths = (
{
closed = 1;
nodes = (
"32 484 LINE",
"32 482 LINE",
"30 480 LINE",
"148 242 LINE",
"30 5 LINE",
"32 3 LINE",
"32 0 LINE",
"112 0 LINE",
"112 3 LINE",
"115 2 LINE",
"192 156 LINE",
"268 2 LINE",
"271 3 LINE",
"271 0 LINE",
"351 0 LINE",
"351 3 LINE",
"353 5 LINE",
"235 242 LINE",
"353 480 LINE",
"351 482 LINE",
"351 484 LINE",
"271 484 LINE",
"271 481 LINE",
"268 483 LINE",
"192 329 LINE",
"115 483 LINE",
"112 481 LINE",
"112 484 LINE"
);
}
);
width = 383;
}
);
note = x;
unicode = 0078;
},
{
glyphname = y;
lastChange = "2019-07-12 12:39:14 +0000";
layers = (
{
anchors = (
{
name = top;
position = "{218, 483}";
}
);
hints = (
{
horizontal = 1;
place = "{484.19, -20}";
target = down;
type = TopGhost;
}
);
layerId = "35624636-21CC-465F-9DE1-D1867EA72944";
paths = (
{
closed = 1;
nodes = (
"79 -199 LINE",
"172 -199 LINE",
"456 484 LINE",
"363 484 LINE"
);
},
{
closed = 1;
nodes = (
"292 91 LINE",
"105 484 LINE",
"8 484 LINE",
"248 -14 LINE"
);
}
);
width = 464;
},
{
anchors = (
{
name = top;
position = "{218, 483}";
}
);
associatedMasterId = "35624636-21CC-465F-9DE1-D1867EA72944";
hints = (
{
horizontal = 1;
place = "{484.19, -20}";
target = down;
type = TopGhost;
}
);
layerId = "F4EAFF7F-E251-46AB-8D5C-567F5BBCE54E";
name = "Jul 5 19, 08:37";
paths = (
{
closed = 1;
nodes = (
"13 484 LINE",
"13 481 LINE",
"10 480 LINE",
"185 131 LINE",
"51 -195 LINE",
"53 -196 LINE",
"53 -199 LINE",
"132 -199 LINE",
"132 -196 LINE",
"135 -197 LINE",
"414 480 LINE",
"411 481 LINE",
"411 484 LINE",
"332 484 LINE",
"332 481 LINE",
"330 483 LINE",
"224 226 LINE",
"95 483 LINE",
"93 482 LINE",
"93 484 LINE"
);
}
);
width = 424;
}
);
leftKerningGroup = v;
leftMetricsKey = v;
note = y;
rightKerningGroup = v;
rightMetricsKey = v;
unicode = 0079;
},
{
glyphname = z;
lastChange = "2019-07-15 08:34:10 +0000";
layers = (
{
associatedMasterId = "35624636-21CC-465F-9DE1-D1867EA72944";
hints = (
{
horizontal = 1;
place = "{-0.69, 85.5}";
type = Stem;
},
{
horizontal = 1;
place = "{397.56, 85.5}";
type = Stem;
},
{
place = "{49.94, 322.31}";
type = Stem;
}
);
layerId = "223344C5-2746-4995-9D46-3AE6078D0909";
name = "Jul 5 19, 09:16";
paths = (
{
closed = 1;
nodes = (
"49.94 483.06 LINE",
"49.94 480.25 LINE",
"49.94 400.38 LINE",
"49.94 397.57 LINE",
"52.75 397.57 LINE",
"303 398 LINE",
"50.22 3.54 LINE",
"52.75 2.13 LINE",
"52.75 -0.68 LINE",
"129.81 -0.68 LINE",
"132.62 -0.68 LINE",
"447 -1 LINE",
"450 -1 LINE",
"450 2 LINE",
"450 82 LINE",
"450 85 LINE",
"447 85 LINE",
"327 85 LINE",
"197 85 LINE",
"450 479 LINE",
"447 480 LINE",
"447 483 LINE",
"370 483 LINE",
"367 483 LINE",
"173.14 483.07 LINE",
"52.77 483.07 LINE"
);
}
);
width = 500;
},
{
associatedMasterId = "35624636-21CC-465F-9DE1-D1867EA72944";
hints = (
{
horizontal = 1;
place = "{-0.69, 85.5}";
type = Stem;
},
{
horizontal = 1;
place = "{397.56, 85.5}";
type = Stem;
},
{
place = "{49.94, 322.31}";
type = Stem;
}
);
layerId = "9F12ADE5-CF2F-4704-9604-E2522F503559";
name = "Jul 15 19, 10:34";
paths = (
{
closed = 1;
nodes = (
"40 484 LINE",
"40 398 LINE",
"268 398 LINE",
"42 85 LINE",
"42 0 LINE",
"365 0 LINE",
"365 85 LINE",
"142 85 LINE",
"366 398 LINE",
"367 484 LINE"
);
}
);
width = 405;
},
{
hints = (
{
horizontal = 1;
place = "{-0.69, 85.5}";
type = Stem;
},
{
horizontal = 1;
place = "{397.56, 85.5}";
type = Stem;
},
{
place = "{49.94, 322.31}";
type = Stem;
}
);
layerId = "35624636-21CC-465F-9DE1-D1867EA72944";
paths = (
{
closed = 1;
nodes = (
"40 484 LINE",
"40 399 LINE",
"238 399 LINE",
"40 5 LINE",
"43 0 LINE",
"365 0 LINE",
"365 86 LINE",
"167 86 LINE",
"365 480 LINE",
"362 481 LINE",
"362 484 LINE"
);
}
);
width = 405;
}
);
note = z;
unicode = 007A;
},
{
glyphname = braceleft;
lastChange = "2019-07-05 08:35:13 +0000";
layers = (
{
layerId = "35624636-21CC-465F-9DE1-D1867EA72944";
paths = (
{
closed = 1;
nodes = (
"272 526 LINE",
"272 581 LINE",
"272 584 LINE SMOOTH",
"272 647 OFFCURVE",
"323 698 OFFCURVE",
"385 698 CURVE SMOOTH",
"388 698 LINE",
"388 783 LINE",
"385 783 LINE SMOOTH",
"276 783 OFFCURVE",
"186 694 OFFCURVE",
"186 584 CURVE SMOOTH",
"186 581 LINE",
"186 526 LINE"
);
},
{
closed = 1;
nodes = (
"186 573 LINE",
"186 518 LINE",
"186 515 LINE SMOOTH",
"186 452 OFFCURVE",
"135 401 OFFCURVE",
"73 401 CURVE SMOOTH",
"70 401 LINE",
"70 316 LINE",
"73 316 LINE SMOOTH",
"182 316 OFFCURVE",
"272 405 OFFCURVE",
"272 515 CURVE SMOOTH",
"272 518 LINE",
"272 573 LINE"
);
},
{
closed = 1;
nodes = (
"186 136 LINE",
"186 133 LINE SMOOTH",
"186 23 OFFCURVE",
"276 -66 OFFCURVE",
"385 -66 CURVE SMOOTH",
"388 -66 LINE",
"388 19 LINE",
"385 19 LINE SMOOTH",
"323 19 OFFCURVE",
"272 70 OFFCURVE",
"272 133 CURVE SMOOTH",
"272 136 LINE",
"272 191 LINE",
"186 191 LINE"
);
},
{
closed = 1;
nodes = (
"272 199 LINE",
"272 202 LINE SMOOTH",
"272 312 OFFCURVE",
"182 401 OFFCURVE",
"73 401 CURVE SMOOTH",
"70 401 LINE",
"70 316 LINE",
"73 316 LINE SMOOTH",
"135 316 OFFCURVE",
"186 265 OFFCURVE",
"186 202 CURVE SMOOTH",
"186 199 LINE",
"186 144 LINE",
"272 144 LINE"
);
}
);
width = 448;
}
);
leftMetricsKey = bracketleft;
unicode = 007B;
},
{
glyphname = sterling;
lastChange = "2019-07-12 12:02:40 +0000";
layers = (
{
layerId = "35624636-21CC-465F-9DE1-D1867EA72944";
paths = (
{
closed = 1;
nodes = (
"257 337 LINE",
"257 521 LINE",
"257 524 LINE SMOOTH",
"257 587 OFFCURVE",
"308 638 OFFCURVE",
"370 638 CURVE SMOOTH",
"373 638 LINE",
"393 638 LINE",
"449 638 LINE",
"449 638 LINE",
"449 641 LINE",
"449 721 LINE",
"449 723 LINE",
"449 723 LINE",
"373 723 LINE",
"370 723 LINE SMOOTH",
"261 723 OFFCURVE",
"171 634 OFFCURVE",
"171 524 CURVE SMOOTH",
"171 521 LINE",
"171 337 LINE"
);
},
{
closed = 1;
nodes = (
"171 387 LINE",
"171 203 LINE",
"171 200 LINE SMOOTH",
"171 137 OFFCURVE",
"120 86 OFFCURVE",
"58 86 CURVE SMOOTH",
"55 86 LINE",
"55 1 LINE",
"58 1 LINE SMOOTH",
"167 1 OFFCURVE",
"257 90 OFFCURVE",
"257 200 CURVE SMOOTH",
"257 203 LINE",
"257 387 LINE"
);
},
{
closed = 1;
nodes = (
"55 0 LINE",
"449 0 LINE",
"449 84 LINE",
"55 84 LINE"
);
},
{
closed = 1;
nodes = (
"50 309 LINE",
"449 309 LINE",
"449 311 LINE",
"449 391 LINE",
"449 394 LINE",
"449 394 LINE",
"50 394 LINE"
);
}
);
width = 499;
}
);
unicode = 00A3;
},
{
glyphname = dieresis;
lastChange = "2019-07-04 20:14:12 +0000";
layers = (
{
anchors = (
{
name = _top;
position = "{190, 577}";
}
);
layerId = "35624636-21CC-465F-9DE1-D1867EA72944";
paths = (
{
closed = 1;
nodes = (
"140 607 OFFCURVE",
"167 634 OFFCURVE",
"167 668 CURVE SMOOTH",
"167 701 OFFCURVE",
"140 728 OFFCURVE",
"107 728 CURVE SMOOTH",
"74 728 OFFCURVE",
"46 701 OFFCURVE",
"46 668 CURVE SMOOTH",
"46 634 OFFCURVE",
"74 607 OFFCURVE",
"107 607 CURVE SMOOTH"
);
},
{
closed = 1;
nodes = (
"306 607 OFFCURVE",
"334 634 OFFCURVE",
"334 668 CURVE SMOOTH",
"334 701 OFFCURVE",
"306 728 OFFCURVE",
"274 728 CURVE SMOOTH",
"240 728 OFFCURVE",
"213 701 OFFCURVE",
"213 668 CURVE SMOOTH",
"213 634 OFFCURVE",
"240 607 OFFCURVE",
"274 607 CURVE SMOOTH"
);
}
);
width = 380;
}
);
unicode = 00A8;
},
{
glyphname = degree;
lastChange = "2019-07-02 10:53:08 +0000";
layers = (
{
layerId = "35624636-21CC-465F-9DE1-D1867EA72944";
paths = (
{
closed = 1;
nodes = (
"189 723 OFFCURVE",
"98 633 OFFCURVE",
"98 521 CURVE SMOOTH",
"98 409 OFFCURVE",
"189 319 OFFCURVE",
"299 319 CURVE SMOOTH",
"411 319 OFFCURVE",
"503 409 OFFCURVE",
"503 521 CURVE SMOOTH",
"503 633 OFFCURVE",
"411 723 OFFCURVE",
"299 723 CURVE SMOOTH"
);
},
{
closed = 1;
nodes = (
"367 643 OFFCURVE",
"423 589 OFFCURVE",
"423 521 CURVE SMOOTH",
"423 453 OFFCURVE",
"367 399 OFFCURVE",
"299 399 CURVE SMOOTH",
"233 399 OFFCURVE",
"177 453 OFFCURVE",
"177 521 CURVE SMOOTH",
"177 589 OFFCURVE",
"233 643 OFFCURVE",
"299 643 CURVE SMOOTH"
);
}
);
width = 600;
}
);
unicode = 00B0;
},
{
glyphname = acute;
lastChange = "2019-07-06 07:11:52 +0000";
layers = (
{
anchors = (
{
name = _top;
position = "{231, 484}";
}
);
layerId = "35624636-21CC-465F-9DE1-D1867EA72944";
paths = (
{
closed = 1;
nodes = (
"307 686 LINE",
"307 683 LINE",
"307 619 OFFCURVE",
"255 567 OFFCURVE",
"190 567 CURVE",
"188 567 LINE",
"188 481 LINE",
"190 481 LINE",
"302 481 OFFCURVE",
"392 571 OFFCURVE",
"392 683 CURVE",
"392 686 LINE"
);
}
);
width = 505;
},
{
anchors = (
{
name = _top;
position = "{254, 483}";
}
);
associatedMasterId = "35624636-21CC-465F-9DE1-D1867EA72944";
layerId = "96C055DE-E037-4625-A226-2407298D3424";
name = "Jul 4 19, 15:10";
paths = (
{
closed = 1;
nodes = (
"50 604 LINE",
"50 601 LINE",
"50 521 LINE",
"50 519 LINE",
"53 519 LINE",
"453 519 LINE",
"455 519 LINE",
"455 521 LINE",
"455 601 LINE",
"455 604 LINE",
"453 604 LINE",
"53 604 LINE"
);
}
);
width = 505;
}
);
unicode = 00B4;
},
{
glyphname = cedilla;
lastChange = "2019-07-04 20:11:32 +0000";
layers = (
{
anchors = (
{
name = _bottom;
position = "{251, 3}";
}
);
layerId = "35624636-21CC-465F-9DE1-D1867EA72944";
paths = (
{
closed = 1;
nodes = (
"208 20 LINE",
"208 2 LINE SMOOTH",
"208 -61 OFFCURVE",
"155 -114 OFFCURVE",
"90 -114 CURVE SMOOTH",
"87 -114 LINE",
"87 -117 LINE",
"87 -197 LINE",
"87 -200 LINE",
"90 -200 LINE SMOOTH",
"202 -200 OFFCURVE",
"293 -109 OFFCURVE",
"293 2 CURVE SMOOTH",
"293 20 LINE"
);
}
);
width = 380;
}
);
unicode = 00B8;
},
{
glyphname = AE;
lastChange = "2019-07-16 11:39:08 +0000";
layers = (
{
anchors = (
{
name = top;
position = "{173, 723}";
}
);
components = (
{
alignment = -1;
locked = 1;
name = E;
transform = "{1, 0, 0, 1, 230, 0}";
}
);
hints = (
{
horizontal = 1;
place = "{1, 21}";
target = up;
type = BottomGhost;
},
{
horizontal = 1;
place = "{239.5, 85.5}";
type = Stem;
},
{
horizontal = 1;
place = "{724.38, -20}";
target = down;
type = TopGhost;
},
{
place = "{881.81, 79.88}";
type = Stem;
}
);
layerId = "35624636-21CC-465F-9DE1-D1867EA72944";
paths = (
{
closed = 1;
nodes = (
"421 723 LINE",
"180 723 LINE",
"20 0 LINE",
"105 0 LINE",
"159 240 LINE",
"374 240 LINE",
"374 325 LINE",
"178 325 LINE",
"247 639 LINE",
"421 639 LINE"
);
}
);
width = 704;
}
);
leftKerningGroup = A;
leftMetricsKey = A;
rightKerningGroup = E;
rightMetricsKey = E;
unicode = 00C6;
},
{
glyphname = germandbls;
lastChange = "2019-07-12 12:36:58 +0000";
layers = (
{
hints = (
{
place = "{47.5, 85.78}";
type = Stem;
},
{
place = "{367, 85.5}";
type = Stem;
}
);
layerId = "35624636-21CC-465F-9DE1-D1867EA72944";
paths = (
{
closed = 1;
nodes = (
"420 401 LINE",
"504 401 LINE",
"504 520 LINE",
"420 520 LINE"
);
},
{
closed = 1;
nodes = (
"70 723 LINE",
"70 0 LINE",
"156 0 LINE",
"156 723 LINE"
);
},
{
closed = 1;
nodes = (
"450 484 LINE SMOOTH",
"340 484 OFFCURVE",
"251 393 OFFCURVE",
"251 282 CURVE SMOOTH",
"251 202 LINE",
"251 199 LINE",
"253 199 LINE",
"402 199 LINE",
"420 199 LINE",
"418 138 OFFCURVE",
"368 86 OFFCURVE",
"305 86 CURVE SMOOTH",
"304 86 OFFCURVE",
"303 86 OFFCURVE",
"302 86 CURVE",
"253 86 LINE",
"253 83 LINE",
"253 3 LINE",
"253 0 LINE",
"302 0 LINE",
"303 0 OFFCURVE",
"304 0 OFFCURVE",
"305 0 CURVE SMOOTH",
"416 0 OFFCURVE",
"506 91 OFFCURVE",
"506 202 CURVE SMOOTH",
"506 282 LINE",
"506 285 LINE",
"503 285 LINE",
"336 285 LINE",
"338 347 OFFCURVE",
"388 398 OFFCURVE",
"450 398 CURVE SMOOTH",
"452 398 LINE",
"453 398 LINE",
"501 398 LINE",
"504 398 LINE",
"504 401 LINE",
"504 481 LINE",
"504 484 LINE",
"501 484 LINE",
"452 484 LINE"
);
},
{
closed = 1;
nodes = (
"302 637 LINE",
"367 637 OFFCURVE",
"420 585 OFFCURVE",
"420 520 CURVE",
"504 520 LINE",
"504 632 OFFCURVE",
"414 722 OFFCURVE",
"302 722 CURVE SMOOTH",
"299 722 OFFCURVE",
"295 722 OFFCURVE",
"292 722 CURVE"
);
},
{
closed = 1;
nodes = (
"149 637 LINE",
"302 637 LINE",
"302 723 LINE",
"149 723 LINE"
);
}
);
width = 556;
},
{
associatedMasterId = "35624636-21CC-465F-9DE1-D1867EA72944";
components = (
{
alignment = -1;
name = L;
transform = "{1, 0, 0, -1, 0, 721}";
}
);
hints = (
{
place = "{47.5, 85.78}";
type = Stem;
},
{
place = "{367, 85.5}";
type = Stem;
}
);
layerId = "76960D5F-BD55-4D11-A0B7-8256F3F92C8B";
name = "Jul 4 19, 22:13";
paths = (
{
closed = 1;
nodes = (
"411 484 LINE SMOOTH",
"301 484 OFFCURVE",
"212 393 OFFCURVE",
"212 282 CURVE SMOOTH",
"212 202 LINE",
"212 199 LINE",
"214 199 LINE",
"413 199 LINE",
"431 199 LINE",
"429 138 OFFCURVE",
"379 87 OFFCURVE",
"316 86 CURVE SMOOTH",
"315 85 OFFCURVE",
"314 86 OFFCURVE",
"313 86 CURVE SMOOTH",
"204 86 LINE",
"202 86 LINE",
"202 83 LINE",
"202 3 LINE",
"202 0 LINE",
"204 0 LINE",
"214 0 LINE",
"313 0 LINE SMOOTH",
"314 0 OFFCURVE",
"315 0 OFFCURVE",
"316 0 CURVE SMOOTH",
"427 2 OFFCURVE",
"517 91 OFFCURVE",
"517 202 CURVE SMOOTH",
"517 282 LINE",
"517 285 LINE",
"514 285 LINE",
"297 285 LINE",
"299 347 OFFCURVE",
"349 398 OFFCURVE",
"411 398 CURVE SMOOTH",
"413 398 LINE",
"414 398 LINE",
"474 398 LINE",
"477 398 LINE",
"477 401 LINE",
"477 481 LINE",
"477 484 LINE",
"474 484 LINE",
"413 484 LINE"
);
},
{
closed = 1;
nodes = (
"408 398 LINE",
"477 398 LINE",
"477 723 LINE",
"408 723 LINE"
);
}
);
width = 545;
}
);
leftMetricsKey = H;
rightMetricsKey = B;
unicode = 00DF;
},
{
glyphname = agrave;
lastChange = "2019-07-12 12:36:58 +0000";
layers = (
{
components = (
{
name = a;
},
{
name = grave;
transform = "{1, 0, 0, 1, -98, 0}";
}
);
layerId = "35624636-21CC-465F-9DE1-D1867EA72944";
paths = (
{
closed = 1;
nodes = (
"270 454 LINE",
"294 454 LINE",
"294 507 LINE",
"270 507 LINE"
);
}
);
width = 578;
}
);
leftKerningGroup = o;
leftMetricsKey = o;
rightKerningGroup = n;
rightMetricsKey = n;
unicode = 00E0;
},
{
glyphname = aacute;
lastChange = "2019-07-12 12:36:58 +0000";
layers = (
{
components = (
{
name = a;
},
{
name = acute;
transform = "{1, 0, 0, 1, 20, 0}";
}
);
layerId = "35624636-21CC-465F-9DE1-D1867EA72944";
paths = (
{
closed = 1;
nodes = (
"208 456 LINE",
"232 456 LINE",
"232 500 LINE",
"208 500 LINE"
);
}
);
width = 578;
}
);
leftKerningGroup = o;
leftMetricsKey = a;
rightKerningGroup = n;
rightMetricsKey = a;
unicode = 00E1;
},
{
glyphname = ae;
lastChange = "2019-07-15 08:34:46 +0000";
layers = (
{
anchors = (
{
name = top;
position = "{250, 484}";
}
);
components = (
{
alignment = -1;
name = e;
transform = "{1, 0, 0, 1, 387, 0}";
}
);
hints = (
{
place = "{50.81, 85.5}";
type = Stem;
},
{
place = "{369.19, 85.5}";
type = Stem;
},
{
place = "{688.69, 85.5}";
type = Stem;
},
{
horizontal = 1;
place = "{0, 85.5}";
type = Stem;
},
{
horizontal = 1;
place = "{399.38, 84.37}";
type = Stem;
},
{
place = "{48.06, 85.5}";
type = Stem;
},
{
place = "{367.56, 84.38}";
type = Stem;
}
);
layerId = "35624636-21CC-465F-9DE1-D1867EA72944";
paths = (
{
closed = 1;
nodes = (
"328 0 OFFCURVE",
"410 82 OFFCURVE",
"410 184 CURVE SMOOTH",
"410 282 OFFCURVE",
"328 365 OFFCURVE",
"228 365 CURVE SMOOTH",
"128 365 OFFCURVE",
"45 282 OFFCURVE",
"45 184 CURVE SMOOTH",
"45 82 OFFCURVE",
"128 0 OFFCURVE",
"228 0 CURVE SMOOTH"
);
},
{
closed = 1;
nodes = (
"175 84 OFFCURVE",
"130 128 OFFCURVE",
"130 184 CURVE SMOOTH",
"130 235 OFFCURVE",
"175 280 OFFCURVE",
"227 280 CURVE SMOOTH",
"282 280 OFFCURVE",
"326 235 OFFCURVE",
"326 184 CURVE SMOOTH",
"326 128 OFFCURVE",
"282 84 OFFCURVE",
"227 84 CURVE SMOOTH"
);
},
{
closed = 1;
nodes = (
"518 169 LINE",
"518 285 LINE SMOOTH",
"518 395 OFFCURVE",
"428 484 OFFCURVE",
"319 484 CURVE SMOOTH",
"88 484 LINE",
"88 399 LINE",
"319 399 LINE SMOOTH",
"381 399 OFFCURVE",
"432 348 OFFCURVE",
"432 285 CURVE SMOOTH",
"432 169 LINE"
);
},
{
closed = 1;
nodes = (
"364 142 LINE",
"463 142 LINE",
"463 227 LINE",
"364 227 LINE"
);
}
);
width = 884;
}
);
leftKerningGroup = o;
leftMetricsKey = o;
note = ae;
rightKerningGroup = e;
rightMetricsKey = e;
unicode = 00E6;
},
{
glyphname = egrave;
lastChange = "2019-07-06 07:12:26 +0000";
layers = (
{
components = (
{
name = e;
},
{
name = grave;
transform = "{1, 0, 0, 1, -99, 0}";
}
);
layerId = "35624636-21CC-465F-9DE1-D1867EA72944";
paths = (
{
closed = 1;
nodes = (
"270 454 LINE",
"293 454 LINE",
"293 538 LINE",
"270 538 LINE"
);
}
);
width = 500;
}
);
leftKerningGroup = o;
rightKerningGroup = o;
unicode = 00E8;
},
{
glyphname = eacute;
lastChange = "2019-07-12 12:30:57 +0000";
layers = (
{
components = (
{
name = e;
},
{
name = acute;
transform = "{1, 0, 0, 1, 19, 0}";
}
);
hints = (
{
horizontal = 1;
place = "{0, 85.5}";
type = Stem;
},
{
horizontal = 1;
place = "{199.13, 85.5}";
type = Stem;
},
{
horizontal = 1;
place = "{399.38, 84.37}";
type = Stem;
},
{
horizontal = 1;
place = "{518.63, 85.5}";
type = Stem;
},
{
place = "{47.5, 85.5}";
type = Stem;
},
{
place = "{367, 85.5}";
type = Stem;
}
);
layerId = "35624636-21CC-465F-9DE1-D1867EA72944";
paths = (
{
closed = 1;
nodes = (
"207 457 LINE",
"223 457 LINE",
"223 511 LINE",
"207 511 LINE"
);
}
);
width = 500;
},
{
associatedMasterId = "35624636-21CC-465F-9DE1-D1867EA72944";
hints = (
{
horizontal = 1;
place = "{0, 85.5}";
type = Stem;
},
{
horizontal = 1;
place = "{199.13, 85.5}";
type = Stem;
},
{
horizontal = 1;
place = "{399.38, 84.37}";
type = Stem;
},
{
horizontal = 1;
place = "{518.63, 85.5}";
type = Stem;
},
{
place = "{47.5, 85.5}";
type = Stem;
},
{
place = "{367, 85.5}";
type = Stem;
}
);
layerId = "0460C8FB-688A-400D-A575-54A428BDDC02";
name = "Jul 4 19, 15:06";
paths = (
{
closed = 1;
nodes = (
"313.31 399.38 OFFCURVE",
"365.47 348.16 OFFCURVE",
"367 284.63 CURVE",
"133 284.63 LINE",
"134.54 348.16 OFFCURVE",
"186.68 399.38 OFFCURVE",
"250.56 399.38 CURVE SMOOTH"
);
},
{
closed = 1;
nodes = (
"240.15 483.76 LINE SMOOTH",
"133.18 478.36 OFFCURVE",
"47.49 390.11 OFFCURVE",
"47.49 281.82 CURVE SMOOTH",
"47.49 201.95 LINE",
"47.49 199.14 LINE SMOOTH",
"49 90.67 OFFCURVE",
"138.19 1.52 OFFCURVE",
"247.74 0.01 CURVE SMOOTH",
"248.68 0 OFFCURVE",
"249.61 0.01 OFFCURVE",
"250.55 0.01 CURVE SMOOTH",
"349.55 0.01 LINE",
"449.68 0.01 LINE",
"452.49 0.01 LINE",
"452.49 2.82 LINE",
"452.49 82.7 LINE",
"452.49 85.51 LINE",
"449.68 85.51 LINE",
"250.55 85.51 LINE SMOOTH",
"249.59 85.51 OFFCURVE",
"248.7 85.49 OFFCURVE",
"247.74 85.51 CURVE SMOOTH",
"185.17 87.02 OFFCURVE",
"134.51 137.66 OFFCURVE",
"132.99 199.14 CURVE",
"250.55 199.14 LINE",
"449.68 199.14 LINE",
"452.49 199.14 LINE",
"452.49 201.95 LINE",
"452.49 281.82 LINE SMOOTH",
"452.49 393.6 OFFCURVE",
"361.21 483.76 OFFCURVE",
"250.55 483.76 CURVE SMOOTH"
);
},
{
closed = 1;
nodes = (
"47.49 604.14 LINE",
"47.49 601.33 LINE",
"47.49 521.46 LINE",
"47.49 518.65 LINE",
"50.3 518.65 LINE",
"250.55 518.65 LINE",
"449.68 518.65 LINE",
"452.49 518.65 LINE",
"452.49 521.46 LINE",
"452.49 601.33 LINE",
"452.49 604.14 LINE",
"449.68 604.14 LINE",
"50.3 604.14 LINE"
);
}
);
width = 500;
}
);
leftKerningGroup = o;
note = eacute;
rightKerningGroup = o;
unicode = 00E9;
},
{
glyphname = oslash;
lastChange = "2019-07-12 12:36:58 +0000";
layers = (
{
components = (
{
name = o;
}
);
layerId = "35624636-21CC-465F-9DE1-D1867EA72944";
paths = (
{
closed = 1;
nodes = (
"151 0 LINE",
"438 483 LINE",
"348 483 LINE",
"60 0 LINE"
);
}
);
width = 495;
}
);
leftKerningGroup = o;
leftMetricsKey = o;
rightKerningGroup = o;
rightMetricsKey = o;
unicode = 00F8;
},
{
glyphname = dotlessi;
lastChange = "2019-07-11 14:54:40 +0000";
layers = (
{
anchors = (
{
name = top;
position = "{103, 483}";
}
);
layerId = "35624636-21CC-465F-9DE1-D1867EA72944";
paths = (
{
closed = 1;
nodes = (
"60 484 LINE",
"60 0 LINE",
"146 0 LINE",
"146 484 LINE"
);
}
);
width = 206;
}
);
leftMetricsKey = n;
rightMetricsKey = n;
unicode = 0131;
},
{
glyphname = oe;
lastChange = "2019-07-12 12:36:58 +0000";
layers = (
{
hints = (
{
horizontal = 1;
place = "{0, 85.5}";
type = Stem;
},
{
horizontal = 1;
place = "{199.13, 85.5}";
type = Stem;
},
{
horizontal = 1;
place = "{399.38, 84.37}";
type = Stem;
},
{
place = "{50.81, 85.5}";
type = Stem;
},
{
place = "{369.19, 85.78}";
type = Stem;
},
{
place = "{688.69, 85.5}";
type = Stem;
}
);
layerId = "35624636-21CC-465F-9DE1-D1867EA72944";
paths = (
{
closed = 1;
nodes = (
"629 399 OFFCURVE",
"681 348 OFFCURVE",
"683 285 CURVE",
"449 285 LINE",
"451 348 OFFCURVE",
"502 399 OFFCURVE",
"565 399 CURVE SMOOTH"
);
},
{
closed = 1;
nodes = (
"312 399 OFFCURVE",
"363 347 OFFCURVE",
"363 282 CURVE SMOOTH",
"363 202 LINE SMOOTH",
"363 138 OFFCURVE",
"312 86 OFFCURVE",
"247 86 CURVE SMOOTH",
"182 86 OFFCURVE",
"130 138 OFFCURVE",
"130 202 CURVE SMOOTH",
"130 282 LINE",
"130 285 LINE SMOOTH",
"132 348 OFFCURVE",
"183 399 OFFCURVE",
"247 399 CURVE SMOOTH"
);
},
{
closed = 1;
nodes = (
"236 484 LINE SMOOTH",
"129 478 OFFCURVE",
"45 390 OFFCURVE",
"45 282 CURVE SMOOTH",
"45 202 LINE",
"45 199 LINE SMOOTH",
"46 90 OFFCURVE",
"136 0 OFFCURVE",
"247 0 CURVE SMOOTH",
"312 0 OFFCURVE",
"369 31 OFFCURVE",
"406 78 CURVE",
"443 32 OFFCURVE",
"499 1 OFFCURVE",
"562 0 CURVE SMOOTH",
"563 0 OFFCURVE",
"564 0 OFFCURVE",
"565 0 CURVE SMOOTH",
"665 0 LINE",
"765 0 LINE",
"768 0 LINE",
"768 3 LINE",
"768 83 LINE",
"768 86 LINE",
"765 86 LINE",
"565 86 LINE SMOOTH",
"564 86 OFFCURVE",
"563 85 OFFCURVE",
"562 86 CURVE SMOOTH",
"501 87 OFFCURVE",
"451 138 OFFCURVE",
"449 199 CURVE",
"565 199 LINE",
"765 199 LINE",
"768 199 LINE",
"768 202 LINE",
"768 282 LINE SMOOTH",
"768 394 OFFCURVE",
"677 484 OFFCURVE",
"565 484 CURVE SMOOTH",
"501 484 OFFCURVE",
"443 453 OFFCURVE",
"406 406 CURVE",
"369 454 OFFCURVE",
"312 484 OFFCURVE",
"247 484 CURVE SMOOTH"
);
}
);
width = 816;
}
);
leftKerningGroup = o;
leftMetricsKey = e;
note = oe;
rightKerningGroup = o;
rightMetricsKey = e;
unicode = 0153;
},
{
glyphname = quoteright;
lastChange = "2019-07-12 12:46:09 +0000";
layers = (
{
layerId = "35624636-21CC-465F-9DE1-D1867EA72944";
paths = (
{
closed = 1;
nodes = (
"170 723 LINE",
"170 720 LINE",
"167 720 LINE",
"167 656 OFFCURVE",
"115 604 OFFCURVE",
"50 604 CURVE",
"50 601 LINE",
"48 601 LINE",
"48 521 LINE",
"50 521 LINE",
"50 518 LINE",
"162 518 OFFCURVE",
"252 608 OFFCURVE",
"252 720 CURVE",
"250 720 LINE",
"250 723 LINE"
);
}
);
width = 300;
}
);
leftKerningGroup = quote;
note = quoteright;
rightKerningGroup = quote;
unicode = 2019;
},
{
glyphname = R.alt;
lastChange = "2019-07-16 12:22:43 +0000";
layers = (
{
layerId = "35624636-21CC-465F-9DE1-D1867EA72944";
paths = (
{
closed = 1;
nodes = (
"300 250 LINE",
"389 2 LINE",
"392 3 LINE",
"392 0 LINE",
"472 0 LINE",
"472 3 LINE",
"475 4 LINE",
"389 250 LINE"
);
},
{
closed = 1;
nodes = (
"361 239 OFFCURVE",
"475 344 OFFCURVE",
"475 481 CURVE SMOOTH",
"475 614 OFFCURVE",
"365 722 OFFCURVE",
"232 722 CURVE SMOOTH",
"152 722 LINE",
"72 722 LINE",
"70 722 LINE",
"70 719 LINE",
"70 3 LINE",
"70 0 LINE",
"72 0 LINE",
"113 0 LINE",
"152 0 LINE",
"155 0 LINE",
"155 3 LINE",
"155 239 LINE",
"193 239 LINE",
"232 239 LINE SMOOTH"
);
},
{
closed = 1;
nodes = (
"155 637 LINE",
"192 637 LINE",
"193 637 LINE",
"232 637 LINE SMOOTH",
"256 637 OFFCURVE",
"279 631 OFFCURVE",
"300 622 CURVE SMOOTH",
"352 596 OFFCURVE",
"389 543 OFFCURVE",
"389 481 CURVE SMOOTH",
"389 394 OFFCURVE",
"315 324 OFFCURVE",
"232 324 CURVE SMOOTH",
"155 324 LINE",
"155 527 LINE"
);
}
);
width = 522;
}
);
},
{
glyphname = A.small;
lastChange = "2019-07-16 11:14:41 +0000";
layers = (
{
anchors = (
{
name = top;
position = "{222, 484}";
}
);
components = (
{
name = v;
transform = "{1, 0, 0, -1, 0, 484}";
}
);
hints = (
{
horizontal = 1;
place = "{1, 21}";
target = up;
type = BottomGhost;
},
{
horizontal = 1;
place = "{239.5, 85.5}";
type = Stem;
},
{
horizontal = 1;
place = "{724.38, -20}";
target = down;
type = TopGhost;
},
{
place = "{369.81, 79.88}";
type = Stem;
},
{
horizontal = 1;
place = "{1, 21}";
target = up;
type = BottomGhost;
},
{
horizontal = 1;
place = "{239.5, 85.5}";
type = Stem;
},
{
horizontal = 1;
place = "{724.38, -20}";
target = down;
type = TopGhost;
},
{
place = "{369.81, 79.88}";
type = Stem;
}
);
layerId = "35624636-21CC-465F-9DE1-D1867EA72944";
paths = (
{
closed = 1;
nodes = (
"329 216 LINE",
"115 216 LINE",
"82 131 LINE",
"362 131 LINE"
);
}
);
width = 444;
}
);
leftKerningGroup = A.small;
rightKerningGroup = A.small;
},
{
glyphname = AE.small;
lastChange = "2019-07-16 11:40:24 +0000";
layers = (
{
components = (
{
locked = 1;
name = E.small;
transform = "{1, 0, 0, 1, 250, 0}";
}
);
layerId = "35624636-21CC-465F-9DE1-D1867EA72944";
paths = (
{
closed = 1;
nodes = (
"354 484 LINE",
"113 484 LINE",
"8 0 LINE",
"93 0 LINE",
"137 192 LINE",
"352 192 LINE",
"352 277 LINE",
"156 277 LINE",
"180 400 LINE",
"354 400 LINE"
);
}
);
width = 724;
}
);
leftKerningGroup = A.small;
leftMetricsKey = A.small;
rightMetricsKey = E.small;
},
{
glyphname = B.small;
lastChange = "2019-07-12 12:24:43 +0000";
layers = (
{
hints = (
{
horizontal = 1;
place = "{0, 85.5}";
type = Stem;
},
{
place = "{48.06, 85.5}";
type = Stem;
},
{
horizontal = 1;
place = "{723.38, -20}";
target = down;
type = TopGhost;
},
{
horizontal = 1;
place = "{484, -85.5}";
type = Stem;
},
{
place = "{48.06, -85.5}";
type = Stem;
},
{
horizontal = 1;
place = "{-239.38, 21}";
target = up;
type = BottomGhost;
}
);
layerId = "35624636-21CC-465F-9DE1-D1867EA72944";
paths = (
{
closed = 1;
nodes = (
"457 278 OFFCURVE",
"471 310 OFFCURVE",
"471 346 CURVE SMOOTH",
"471 422 OFFCURVE",
"409 484 OFFCURVE",
"333 484 CURVE SMOOTH",
"332 484 LINE",
"70 484 LINE",
"70 0 LINE",
"332 0 LINE SMOOTH",
"413 0 OFFCURVE",
"480 66 OFFCURVE",
"480 148 CURVE SMOOTH",
"480 189 OFFCURVE",
"462 227 OFFCURVE",
"435 254 CURVE"
);
},
{
closed = 1;
nodes = (
"333 398 LINE SMOOTH",
"363 398 OFFCURVE",
"385 376 OFFCURVE",
"385 346 CURVE SMOOTH",
"385 318 OFFCURVE",
"363 295 OFFCURVE",
"333 295 CURVE SMOOTH",
"156 295 LINE",
"156 398 LINE",
"332 398 LINE"
);
},
{
closed = 1;
nodes = (
"156 86 LINE",
"156 209 LINE",
"332 209 LINE SMOOTH",
"366 209 OFFCURVE",
"394 182 OFFCURVE",
"394 148 CURVE SMOOTH",
"394 114 OFFCURVE",
"366 86 OFFCURVE",
"332 86 CURVE SMOOTH"
);
}
);
width = 530;
},
{
associatedMasterId = "35624636-21CC-465F-9DE1-D1867EA72944";
hints = (
{
horizontal = 1;
place = "{0, 85.5}";
type = Stem;
},
{
place = "{48.06, 85.5}";
type = Stem;
},
{
horizontal = 1;
place = "{723.38, -20}";
target = down;
type = TopGhost;
},
{
horizontal = 1;
place = "{484, -85.5}";
type = Stem;
},
{
place = "{48.06, -85.5}";
type = Stem;
},
{
horizontal = 1;
place = "{-239.38, 21}";
target = up;
type = BottomGhost;
}
);
layerId = "2798AA0C-B86D-4815-BE68-EE24937BF116";
name = "Jul 11 19, 15:53";
paths = (
{
closed = 1;
nodes = (
"156 86 LINE",
"156 398 LINE",
"332 398 LINE",
"332 484 LINE",
"70 484 LINE",
"70 0 LINE",
"332 0 LINE",
"332 86 LINE"
);
},
{
closed = 1;
nodes = (
"366 209 OFFCURVE",
"394 182 OFFCURVE",
"394 148 CURVE SMOOTH",
"394 114 OFFCURVE",
"366 86 OFFCURVE",
"332 86 CURVE SMOOTH",
"306 86 OFFCURVE",
"262 0 OFFCURVE",
"332 0 CURVE SMOOTH",
"413 0 OFFCURVE",
"480 66 OFFCURVE",
"480 148 CURVE SMOOTH",
"480 229 OFFCURVE",
"413 295 OFFCURVE",
"332 295 CURVE",
"332 209 LINE"
);
},
{
closed = 1;
nodes = (
"156 86 LINE",
"156 398 LINE",
"332 398 LINE",
"332 484 LINE",
"70 484 LINE",
"70 0 LINE",
"332 0 LINE",
"332 86 LINE"
);
},
{
closed = 1;
nodes = (
"366 209 OFFCURVE",
"394 182 OFFCURVE",
"394 148 CURVE SMOOTH",
"394 114 OFFCURVE",
"366 86 OFFCURVE",
"332 86 CURVE SMOOTH",
"306 86 OFFCURVE",
"262 0 OFFCURVE",
"332 0 CURVE SMOOTH",
"413 0 OFFCURVE",
"480 66 OFFCURVE",
"480 148 CURVE SMOOTH",
"480 229 OFFCURVE",
"413 295 OFFCURVE",
"332 295 CURVE",
"332 209 LINE"
);
},
{
closed = 1;
nodes = (
"137 207 LINE",
"343 207 LINE",
"343 289 LINE",
"137 289 LINE"
);
}
);
width = 510;
}
);
leftMetricsKey = H;
},
{
glyphname = C.small;
lastChange = "2019-07-15 08:05:40 +0000";
layers = (
{
anchors = (
{
name = bottom;
position = "{310, 0}";
}
);
hints = (
{
horizontal = 1;
place = "{0, 85.5}";
type = Stem;
},
{
horizontal = 1;
place = "{637.88, 85.5}";
type = Stem;
},
{
place = "{48.06, 85.5}";
type = Stem;
}
);
layerId = "35624636-21CC-465F-9DE1-D1867EA72944";
paths = (
{
closed = 1;
nodes = (
"244 484 LINE SMOOTH",
"135 484 OFFCURVE",
"45 395 OFFCURVE",
"45 285 CURVE SMOOTH",
"45 282 LINE",
"45 202 LINE",
"45 199 LINE SMOOTH",
"47 90 OFFCURVE",
"136 0 OFFCURVE",
"247 0 CURVE SMOOTH",
"442 0 LINE",
"445 0 LINE",
"445 3 LINE",
"445 83 LINE",
"445 86 LINE",
"442 86 LINE",
"346 86 LINE",
"247 86 LINE SMOOTH",
"182 86 OFFCURVE",
"131 138 OFFCURVE",
"131 202 CURVE SMOOTH",
"131 282 LINE",
"131 285 LINE SMOOTH",
"131 348 OFFCURVE",
"182 399 OFFCURVE",
"244 399 CURVE SMOOTH",
"247 399 LINE",
"347 399 LINE",
"442 399 LINE",
"445 399 LINE",
"445 402 LINE",
"445 482 LINE",
"445 484 LINE",
"442 484 LINE",
"247 484 LINE"
);
}
);
width = 475;
}
);
leftKerningGroup = o;
leftMetricsKey = o;
},
{
glyphname = D.small;
lastChange = "2019-07-15 08:05:46 +0000";
layers = (
{
hints = (
{
horizontal = 1;
place = "{0, 85.5}";
type = Stem;
},
{
horizontal = 1;
place = "{637.88, 85.5}";
type = Stem;
},
{
place = "{48.06, 85.5}";
type = Stem;
},
{
place = "{366.44, 85.5}";
type = Stem;
}
);
layerId = "35624636-21CC-465F-9DE1-D1867EA72944";
paths = (
{
closed = 1;
nodes = (
"70 484 LINE",
"70 0 LINE",
"268 0 LINE SMOOTH",
"379 0 OFFCURVE",
"470 90 OFFCURVE",
"470 199 CURVE SMOOTH",
"470 285 LINE SMOOTH",
"470 395 OFFCURVE",
"380 484 OFFCURVE",
"271 484 CURVE SMOOTH"
);
},
{
closed = 1;
nodes = (
"156 399 LINE",
"271 399 LINE SMOOTH",
"333 399 OFFCURVE",
"384 348 OFFCURVE",
"384 285 CURVE SMOOTH",
"384 199 LINE SMOOTH",
"384 137 OFFCURVE",
"332 86 OFFCURVE",
"268 86 CURVE SMOOTH",
"156 86 LINE"
);
}
);
width = 515;
}
);
rightKerningGroup = o;
rightMetricsKey = o;
},
{
glyphname = E.small;
lastChange = "2019-07-12 07:16:27 +0000";
layers = (
{
anchors = (
{
name = top;
position = "{271, 484}";
}
);
layerId = "35624636-21CC-465F-9DE1-D1867EA72944";
paths = (
{
closed = 1;
nodes = (
"70 484 LINE",
"70 482 LINE",
"70 3 LINE",
"70 0 LINE",
"73 0 LINE",
"451 0 LINE",
"454 0 LINE",
"454 3 LINE",
"454 83 LINE",
"454 86 LINE",
"451 86 LINE",
"156 86 LINE",
"156 193 LINE",
"372 193 LINE",
"375 193 LINE",
"375 195 LINE",
"375 275 LINE",
"375 278 LINE",
"372 278 LINE",
"156 278 LINE",
"156 399 LINE",
"451 399 LINE",
"454 399 LINE",
"454 402 LINE",
"454 482 LINE",
"454 484 LINE",
"451 484 LINE",
"73 484 LINE"
);
}
);
width = 474;
}
);
leftMetricsKey = E;
rightMetricsKey = E;
},
{
glyphname = F.small;
lastChange = "2019-07-10 16:16:42 +0000";
layers = (
{
hints = (
{
horizontal = 1;
place = "{0, 21}";
target = up;
type = BottomGhost;
},
{
horizontal = 1;
place = "{319.5, 85.5}";
type = Stem;
},
{
horizontal = 1;
place = "{637.88, 85.5}";
type = Stem;
},
{
place = "{47.5, 85.5}";
type = Stem;
}
);
layerId = "35624636-21CC-465F-9DE1-D1867EA72944";
paths = (
{
closed = 1;
nodes = (
"70 484 LINE",
"70 0 LINE",
"155 0 LINE",
"155 181 LINE",
"395 181 LINE",
"395 266 LINE",
"155 266 LINE",
"155 399 LINE",
"475 399 LINE",
"475 484 LINE"
);
}
);
width = 485;
}
);
},
{
glyphname = G.small;
lastChange = "2019-07-11 13:52:52 +0000";
layers = (
{
hints = (
{
horizontal = 1;
place = "{0.19, 85.5}";
type = Stem;
},
{
horizontal = 1;
place = "{319.69, 85.5}";
type = Stem;
},
{
horizontal = 1;
place = "{638.06, 85.5}";
type = Stem;
},
{
place = "{48.06, 84.38}";
type = Stem;
},
{
place = "{366.44, 85.5}";
type = Stem;
}
);
layerId = "35624636-21CC-465F-9DE1-D1867EA72944";
paths = (
{
closed = 1;
nodes = (
"249 484 LINE SMOOTH",
"140 484 OFFCURVE",
"50 394 OFFCURVE",
"50 284 CURVE SMOOTH",
"50 282 LINE",
"50 202 LINE",
"50 199 LINE SMOOTH",
"52 90 OFFCURVE",
"141 0 OFFCURVE",
"252 0 CURVE SMOOTH",
"451 0 LINE",
"454 0 LINE",
"454 3 LINE",
"454 83 LINE",
"454 86 LINE",
"454 198 LINE",
"454 201 LINE",
"454 280 LINE",
"454 283 LINE",
"451 283 LINE",
"368 283 LINE",
"212 283 LINE",
"209 283 LINE",
"209 280 LINE",
"209 201 LINE",
"209 198 LINE",
"212 198 LINE",
"332 198 LINE",
"368 198 LINE",
"368 86 LINE",
"351 86 LINE",
"252 86 LINE SMOOTH",
"187 86 OFFCURVE",
"134 138 OFFCURVE",
"134 202 CURVE SMOOTH",
"134 282 LINE",
"134 284 LINE SMOOTH",
"134 347 OFFCURVE",
"187 398 OFFCURVE",
"249 398 CURVE SMOOTH",
"252 398 LINE",
"351 398 LINE",
"451 398 LINE",
"454 398 LINE",
"454 401 LINE",
"454 481 LINE",
"454 484 LINE",
"451 484 LINE",
"252 484 LINE"
);
}
);
width = 504;
}
);
},
{
glyphname = H.small;
lastChange = "2019-07-08 09:30:53 +0000";
layers = (
{
hints = (
{
horizontal = 1;
place = "{0, 21}";
target = up;
type = BottomGhost;
},
{
horizontal = 1;
place = "{319.5, 85.5}";
type = Stem;
},
{
horizontal = 1;
place = "{723.38, -20}";
target = down;
type = TopGhost;
},
{
place = "{48.06, 84.38}";
type = Stem;
},
{
place = "{366.44, 85.5}";
type = Stem;
}
);
layerId = "35624636-21CC-465F-9DE1-D1867EA72944";
paths = (
{
closed = 1;
nodes = (
"70 484 LINE",
"70 482 LINE",
"70 3 LINE",
"70 0 LINE",
"73 0 LINE",
"112 0 LINE",
"152 0 LINE",
"154 0 LINE",
"154 3 LINE",
"154 197 LINE",
"311 197 LINE",
"388 197 LINE",
"388 3 LINE",
"388 0 LINE",
"391 0 LINE",
"431 0 LINE",
"471 0 LINE",
"474 0 LINE",
"474 3 LINE",
"474 482 LINE",
"474 484 LINE",
"471 484 LINE",
"391 484 LINE",
"388 484 LINE",
"388 482 LINE",
"388 282 LINE",
"154 282 LINE",
"154 482 LINE",
"154 484 LINE",
"152 484 LINE",
"73 484 LINE"
);
}
);
width = 544;
}
);
},
{
glyphname = I.small;
lastChange = "2019-07-11 15:31:31 +0000";
layers = (
{
anchors = (
{
name = top;
position = "{113, 484}";
}
);
hints = (
{
horizontal = 1;
place = "{0.19, 21}";
target = up;
type = BottomGhost;
},
{
place = "{57.25, 85.5}";
type = Stem;
},
{
horizontal = 1;
place = "{723.56, -20}";
target = down;
type = TopGhost;
}
);
layerId = "35624636-21CC-465F-9DE1-D1867EA72944";
paths = (
{
closed = 1;
nodes = (
"73 3 LINE"
);
},
{
closed = 1;
nodes = (
"70 484 LINE",
"70 0 LINE",
"156 0 LINE",
"156 484 LINE"
);
}
);
width = 226;
}
);
},
{
glyphname = J.small;
lastChange = "2019-07-12 12:20:34 +0000";
layers = (
{
hints = (
{
horizontal = 1;
place = "{0, 85.5}";
type = Stem;
},
{
horizontal = 1;
place = "{723.38, -20}";
target = down;
type = TopGhost;
},
{
place = "{50.88, 78.75}";
type = Stem;
},
{
place = "{366.44, 85.5}";
type = Stem;
}
);
layerId = "35624636-21CC-465F-9DE1-D1867EA72944";
paths = (
{
closed = 1;
nodes = (
"265 484 LINE",
"265 155 LINE",
"351 155 LINE",
"351 484 LINE"
);
},
{
closed = 1;
nodes = (
"265 155 LINE",
"265 116 OFFCURVE",
"234 86 OFFCURVE",
"195 86 CURVE SMOOTH",
"157 86 OFFCURVE",
"124 116 OFFCURVE",
"124 155 CURVE",
"40 155 LINE",
"40 69 OFFCURVE",
"110 0 OFFCURVE",
"195 0 CURVE SMOOTH",
"281 0 OFFCURVE",
"351 69 OFFCURVE",
"351 155 CURVE"
);
},
{
closed = 1;
nodes = (
"40 155 LINE",
"124 155 LINE",
"124 327 LINE",
"40 327 LINE"
);
}
);
width = 411;
},
{
associatedMasterId = "35624636-21CC-465F-9DE1-D1867EA72944";
hints = (
{
horizontal = 1;
place = "{0, 85.5}";
type = Stem;
},
{
horizontal = 1;
place = "{723.38, -20}";
target = down;
type = TopGhost;
},
{
place = "{50.88, 78.75}";
type = Stem;
},
{
place = "{366.44, 85.5}";
type = Stem;
}
);
layerId = "B4641959-6B60-432A-811F-68B701708962";
name = "Jul 12 19, 13:23";
paths = (
{
closed = 1;
nodes = (
"328 484 LINE",
"328 202 LINE SMOOTH",
"328 137 OFFCURVE",
"276 86 OFFCURVE",
"212 86 CURVE SMOOTH",
"147 86 OFFCURVE",
"94 137 OFFCURVE",
"94 202 CURVE SMOOTH",
"94 205 LINE",
"10 205 LINE",
"10 202 LINE SMOOTH",
"10 90 OFFCURVE",
"100 0 OFFCURVE",
"212 0 CURVE SMOOTH",
"323 0 OFFCURVE",
"414 90 OFFCURVE",
"414 202 CURVE SMOOTH",
"414 484 LINE"
);
}
);
width = 474;
}
);
},
{
glyphname = K.small;
lastChange = "2019-07-10 16:18:11 +0000";
layers = (
{
hints = (
{
horizontal = 1;
place = "{-0.19, 21}";
target = up;
type = BottomGhost;
},
{
horizontal = 1;
place = "{483.56, -20}";
target = down;
type = TopGhost;
},
{
horizontal = 1;
place = "{723.19, -20}";
target = down;
type = TopGhost;
},
{
place = "{55.39, 85.5}";
type = Stem;
}
);
layerId = "35624636-21CC-465F-9DE1-D1867EA72944";
paths = (
{
closed = 1;
nodes = (
"430 480 LINE",
"428 481 LINE",
"428 484 LINE",
"336 484 LINE",
"336 481 LINE",
"333 482 LINE",
"141 154 LINE",
"141 481 LINE",
"141 484 LINE",
"138 484 LINE",
"58 484 LINE",
"55 484 LINE",
"55 481 LINE",
"55 3 LINE",
"55 0 LINE",
"58 0 LINE",
"99 0 LINE",
"138 0 LINE",
"141 0 LINE",
"141 3 LINE"
);
},
{
closed = 1;
nodes = (
"261 210 LINE",
"364 2 LINE",
"367 3 LINE",
"367 0 LINE",
"447 0 LINE",
"447 3 LINE",
"450 4 LINE",
"304 296 LINE"
);
}
);
width = 470;
}
);
},
{
glyphname = L.small;
lastChange = "2019-07-12 12:20:44 +0000";
layers = (
{
hints = (
{
horizontal = 1;
place = "{0, 85.5}";
type = Stem;
},
{
place = "{48.06, 85.5}";
type = Stem;
},
{
horizontal = 1;
place = "{723.38, -20}";
target = down;
type = TopGhost;
}
);
layerId = "35624636-21CC-465F-9DE1-D1867EA72944";
paths = (
{
closed = 1;
nodes = (
"70 484 LINE",
"70 0 LINE",
"474 0 LINE",
"474 86 LINE",
"156 86 LINE",
"156 484 LINE"
);
}
);
width = 494;
}
);
rightKerningGroup = L;
},
{
glyphname = M.small;
lastChange = "2019-07-15 08:37:09 +0000";
layers = (
{
layerId = "35624636-21CC-465F-9DE1-D1867EA72944";
paths = (
{
closed = 1;
nodes = (
"500 484 LINE",
"382 126 LINE",
"264 484 LINE",
"181 484 LINE",
"20 0 LINE",
"104 0 LINE",
"223 360 LINE",
"342 0 LINE",
"422 0 LINE",
"541 360 LINE",
"660 0 LINE",
"744 0 LINE",
"583 484 LINE"
);
}
);
width = 764;
}
);
leftKerningGroup = A.small;
leftMetricsKey = M;
rightKerningGroup = A.small;
rightMetricsKey = M;
},
{
glyphname = N.small;
lastChange = "2019-07-11 14:08:26 +0000";
layers = (
{
anchors = (
{
name = top;
position = "{272, 484}";
}
);
hints = (
{
horizontal = 1;
place = "{0, 21}";
target = up;
type = BottomGhost;
},
{
horizontal = 1;
place = "{722.25, -20}";
target = down;
type = TopGhost;
},
{
place = "{48.06, 84.38}";
type = Stem;
},
{
place = "{366.44, 85.5}";
type = Stem;
}
);
layerId = "35624636-21CC-465F-9DE1-D1867EA72944";
paths = (
{
closed = 1;
nodes = (
"70 484 LINE",
"70 0 LINE",
"154 0 LINE",
"154 349 LINE",
"389 0 LINE",
"474 0 LINE",
"474 484 LINE",
"388 484 LINE",
"388 144 LINE",
"152 484 LINE"
);
}
);
width = 544;
}
);
},
{
glyphname = P.small;
lastChange = "2019-07-11 13:59:01 +0000";
layers = (
{
hints = (
{
horizontal = 1;
place = "{-2.81, 21}";
target = up;
type = BottomGhost;
},
{
horizontal = 1;
place = "{235.69, 85.5}";
type = Stem;
},
{
horizontal = 1;
place = "{635.06, 85.5}";
type = Stem;
},
{
place = "{48.06, 84.38}";
type = Stem;
},
{
place = "{366.44, 85.5}";
type = Stem;
}
);
layerId = "35624636-21CC-465F-9DE1-D1867EA72944";
paths = (
{
closed = 1;
nodes = (
"332 484 LINE",
"70 484 LINE",
"70 0 LINE",
"156 0 LINE",
"156 86 LINE",
"156 86 LINE",
"156 398 LINE",
"332 398 LINE"
);
},
{
closed = 1;
nodes = (
"332 189 LINE",
"413 189 OFFCURVE",
"480 255 OFFCURVE",
"480 336 CURVE SMOOTH",
"480 418 OFFCURVE",
"413 484 OFFCURVE",
"332 484 CURVE SMOOTH",
"262 484 OFFCURVE",
"306 398 OFFCURVE",
"332 398 CURVE SMOOTH",
"366 398 OFFCURVE",
"394 370 OFFCURVE",
"394 336 CURVE SMOOTH",
"394 302 OFFCURVE",
"366 275 OFFCURVE",
"332 275 CURVE"
);
},
{
closed = 1;
nodes = (
"332 484 LINE",
"70 484 LINE",
"70 0 LINE",
"156 0 LINE",
"156 86 LINE",
"156 86 LINE",
"156 398 LINE",
"332 398 LINE"
);
},
{
closed = 1;
nodes = (
"332 189 LINE",
"413 189 OFFCURVE",
"480 255 OFFCURVE",
"480 336 CURVE SMOOTH",
"480 418 OFFCURVE",
"413 484 OFFCURVE",
"332 484 CURVE SMOOTH",
"262 484 OFFCURVE",
"306 398 OFFCURVE",
"332 398 CURVE SMOOTH",
"366 398 OFFCURVE",
"394 370 OFFCURVE",
"394 336 CURVE SMOOTH",
"394 302 OFFCURVE",
"366 275 OFFCURVE",
"332 275 CURVE"
);
},
{
closed = 1;
nodes = (
"332 189 LINE",
"332 275 LINE",
"137 275 LINE",
"137 189 LINE"
);
}
);
width = 510;
},
{
associatedMasterId = "35624636-21CC-465F-9DE1-D1867EA72944";
hints = (
{
horizontal = 1;
place = "{-2.81, 21}";
target = up;
type = BottomGhost;
},
{
horizontal = 1;
place = "{235.69, 85.5}";
type = Stem;
},
{
horizontal = 1;
place = "{635.06, 85.5}";
type = Stem;
},
{
place = "{48.06, 84.38}";
type = Stem;
},
{
place = "{366.44, 85.5}";
type = Stem;
}
);
layerId = "8B6659A7-ADCE-4D32-872A-3949F64BE085";
name = "Jul 11 19, 15:53";
paths = (
{
closed = 1;
nodes = (
"112 0 LINE"
);
},
{
closed = 1;
nodes = (
"214 484 LINE",
"152 484 LINE",
"73 484 LINE",
"70 484 LINE",
"70 481 LINE",
"70 0 LINE",
"70 -3 LINE",
"73 -3 LINE",
"112 -3 LINE",
"152 -3 LINE",
"154 -3 LINE",
"154 0 LINE",
"154 398 LINE",
"214 398 LINE"
);
},
{
closed = 1;
nodes = (
"214 399 LINE",
"273 399 LINE SMOOTH",
"338 399 OFFCURVE",
"390 346 OFFCURVE",
"390 282 CURVE SMOOTH",
"390 217 OFFCURVE",
"338 165 OFFCURVE",
"273 165 CURVE SMOOTH",
"134 165 LINE",
"134 79 LINE",
"273 79 LINE SMOOTH",
"385 79 OFFCURVE",
"475 170 OFFCURVE",
"475 282 CURVE SMOOTH",
"475 393 OFFCURVE",
"385 484 OFFCURVE",
"273 484 CURVE SMOOTH",
"214 484 LINE"
);
}
);
width = 505;
}
);
rightMetricsKey = P;
},
{
glyphname = Q.small;
lastChange = "2019-07-12 12:36:58 +0000";
layers = (
{
layerId = "35624636-21CC-465F-9DE1-D1867EA72944";
paths = (
{
closed = 1;
nodes = (
"311 398 OFFCURVE",
"364 347 OFFCURVE",
"364 282 CURVE SMOOTH",
"364 199 LINE SMOOTH",
"362 137 OFFCURVE",
"310 86 OFFCURVE",
"246 86 CURVE SMOOTH",
"183 86 OFFCURVE",
"130 138 OFFCURVE",
"130 202 CURVE SMOOTH",
"130 282 LINE SMOOTH",
"130 347 OFFCURVE",
"183 398 OFFCURVE",
"246 398 CURVE SMOOTH"
);
},
{
closed = 1;
nodes = (
"136 484 OFFCURVE",
"45 394 OFFCURVE",
"45 282 CURVE SMOOTH",
"45 199 LINE SMOOTH",
"46 89 OFFCURVE",
"137 0 OFFCURVE",
"246 0 CURVE SMOOTH",
"357 0 OFFCURVE",
"448 89 OFFCURVE",
"450 199 CURVE SMOOTH",
"450 169 OFFCURVE",
"450 202 OFFCURVE",
"450 282 CURVE SMOOTH",
"450 394 OFFCURVE",
"358 484 OFFCURVE",
"246 484 CURVE SMOOTH"
);
},
{
closed = 1;
nodes = (
"280 240 LINE",
"190 240 LINE",
"358 0 LINE",
"447 0 LINE"
);
}
);
width = 495;
}
);
leftKerningGroup = o;
leftMetricsKey = o;
rightKerningGroup = o;
rightMetricsKey = o;
},
{
glyphname = R.small;
lastChange = "2019-07-16 12:23:35 +0000";
layers = (
{
associatedMasterId = "35624636-21CC-465F-9DE1-D1867EA72944";
components = (
{
name = I.small;
}
);
layerId = "E51A3204-E70C-44C6-9FF2-A5482CCEAF31";
name = "Jul 12 19, 12:32";
paths = (
{
closed = 1;
nodes = (
"504 86 LINE",
"427 86 LINE SMOOTH",
"365 86 OFFCURVE",
"315 137 OFFCURVE",
"313 199 CURVE",
"504 199 LINE",
"504 282 LINE SMOOTH",
"504 393 OFFCURVE",
"414 484 OFFCURVE",
"303 484 CURVE SMOOTH",
"142 484 LINE",
"142 398 LINE",
"303 398 LINE SMOOTH",
"366 398 OFFCURVE",
"416 346 OFFCURVE",
"418 285 CURVE",
"228 285 LINE",
"228 202 LINE SMOOTH",
"228 91 OFFCURVE",
"317 0 OFFCURVE",
"427 0 CURVE SMOOTH",
"504 0 LINE"
);
}
);
width = 524;
},
{
associatedMasterId = "35624636-21CC-465F-9DE1-D1867EA72944";
components = (
{
name = P.small;
}
);
layerId = "68438CA2-F2F2-4F02-A943-80BE0511D5A2";
name = "Jul 12 19, 13:21";
paths = (
{
closed = 1;
nodes = (
"76 406 LINE",
"387 2 LINE",
"390 3 LINE",
"390 0 LINE",
"480 0 LINE",
"480 3 LINE",
"483 4 LINE",
"150 434 LINE"
);
}
);
width = 503;
},
{
associatedMasterId = "35624636-21CC-465F-9DE1-D1867EA72944";
components = (
{
name = P.small;
}
);
layerId = "77176D75-3BF7-4AE6-AC74-B7FCC094E99B";
name = "Jul 12 19, 13:22";
paths = (
{
closed = 1;
nodes = (
"138 440 LINE",
"335 0 LINE",
"422 0 LINE",
"225 440 LINE"
);
}
);
width = 510;
},
{
components = (
{
name = P.small;
}
);
layerId = "35624636-21CC-465F-9DE1-D1867EA72944";
paths = (
{
closed = 1;
nodes = (
"141 440 LINE",
"338 0 LINE",
"425 0 LINE",
"228 440 LINE"
);
}
);
width = 527;
}
);
rightMetricsKey = R;
},
{
glyphname = T.small;
lastChange = "2019-07-10 16:17:06 +0000";
layers = (
{
layerId = "35624636-21CC-465F-9DE1-D1867EA72944";
paths = (
{
closed = 1;
nodes = (
"20 486 LINE",
"20 484 LINE",
"20 404 LINE",
"20 401 LINE",
"22 401 LINE",
"179 401 LINE",
"179 3 LINE",
"179 0 LINE",
"182 0 LINE",
"223 0 LINE",
"262 0 LINE",
"265 0 LINE",
"265 3 LINE",
"265 401 LINE",
"422 401 LINE",
"425 401 LINE",
"425 404 LINE",
"425 484 LINE",
"425 486 LINE",
"422 486 LINE",
"22 486 LINE"
);
}
);
width = 445;
}
);
rightMetricsKey = T;
},
{
glyphname = Y.small;
lastChange = "2019-07-16 11:22:29 +0000";
layers = (
{
anchors = (
{
name = top;
position = "{212, 484}";
}
);
layerId = "35624636-21CC-465F-9DE1-D1867EA72944";
paths = (
{
closed = 1;
nodes = (
"170 133 LINE",
"170 0 LINE",
"255 0 LINE",
"255 134 LINE"
);
},
{
closed = 1;
nodes = (
"330 484 LINE",
"212 219 LINE",
"94 484 LINE",
"8 484 LINE",
"212 26 LINE",
"416 484 LINE"
);
}
);
width = 424;
}
);
leftKerningGroup = v;
leftMetricsKey = v;
rightKerningGroup = v;
rightMetricsKey = v;
},
{
glyphname = R.alt.small;
lastChange = "2019-07-16 12:24:01 +0000";
layers = (
{
components = (
{
name = P.small;
}
);
layerId = "35624636-21CC-465F-9DE1-D1867EA72944";
paths = (
{
closed = 1;
nodes = (
"340 189 LINE",
"378 0 LINE",
"465 0 LINE",
"427 189 LINE"
);
}
);
width = 527;
}
);
},
{
glyphname = a.alt;
lastChange = "2019-07-16 11:42:42 +0000";
layers = (
{
anchors = (
{
name = top;
position = "{246, 484}";
}
);
background = {
paths = (
{
closed = 1;
nodes = (
"397 285 LINE",
"97 285 LINE",
"97 199 LINE",
"397 199 LINE"
);
}
);
};
layerId = "35624636-21CC-465F-9DE1-D1867EA72944";
paths = (
{
closed = 1;
nodes = (
"312 399 OFFCURVE",
"365 347 OFFCURVE",
"365 282 CURVE SMOOTH",
"365 202 LINE SMOOTH",
"365 138 OFFCURVE",
"312 86 OFFCURVE",
"247 86 CURVE SMOOTH",
"183 86 OFFCURVE",
"131 138 OFFCURVE",
"131 202 CURVE SMOOTH",
"131 282 LINE SMOOTH",
"131 347 OFFCURVE",
"183 399 OFFCURVE",
"247 399 CURVE SMOOTH"
);
},
{
closed = 1;
nodes = (
"237 484 LINE SMOOTH",
"131 478 OFFCURVE",
"47 392 OFFCURVE",
"45 285 CURVE SMOOTH",
"45 284 OFFCURVE",
"45 283 OFFCURVE",
"45 282 CURVE SMOOTH",
"45 202 LINE",
"45 199 LINE SMOOTH",
"47 90 OFFCURVE",
"136 0 OFFCURVE",
"247 0 CURVE SMOOTH",
"291 0 OFFCURVE",
"332 14 OFFCURVE",
"365 38 CURVE",
"365 3 LINE",
"365 0 LINE",
"367 0 LINE",
"407 0 LINE",
"446 0 LINE",
"449 0 LINE",
"449 3 LINE",
"449 481 LINE",
"449 484 LINE",
"446 484 LINE",
"367 484 LINE",
"365 484 LINE",
"365 481 LINE",
"365 446 LINE",
"332 470 OFFCURVE",
"291 484 OFFCURVE",
"247 484 CURVE SMOOTH"
);
}
);
width = 509;
},
{
associatedMasterId = "35624636-21CC-465F-9DE1-D1867EA72944";
background = {
paths = (
{
closed = 1;
nodes = (
"350 285 LINE",
"50 285 LINE",
"50 199 LINE",
"350 199 LINE"
);
}
);
};
layerId = "44733B86-9FFF-4093-8836-76AEDEBE1698";
name = "Jul 12 19, 09:19";
paths = (
{
closed = 1;
nodes = (
"368 199 LINE",
"367 136 OFFCURVE",
"316 85 OFFCURVE",
"252 85 CURVE SMOOTH",
"182 85 OFFCURVE",
"128 145 OFFCURVE",
"137 216 CURVE",
"50 202 LINE",
"50 90 OFFCURVE",
"140 0 OFFCURVE",
"252 0 CURVE SMOOTH",
"364 0 OFFCURVE",
"452 90 OFFCURVE",
"454 199 CURVE"
);
},
{
closed = 1;
nodes = (
"454 199 LINE",
"454 285 LINE SMOOTH",
"452 393 OFFCURVE",
"364 482 OFFCURVE",
"255 484 CURVE SMOOTH",
"50 484 LINE",
"50 398 LINE",
"255 398 LINE SMOOTH",
"317 397 OFFCURVE",
"367 346 OFFCURVE",
"368 285 CURVE SMOOTH",
"368 199 LINE"
);
},
{
closed = 1;
nodes = (
"452 312 OFFCURVE",
"364 402 OFFCURVE",
"252 402 CURVE SMOOTH",
"140 402 OFFCURVE",
"50 312 OFFCURVE",
"50 200 CURVE",
"137 186 LINE",
"128 257 OFFCURVE",
"182 317 OFFCURVE",
"252 317 CURVE SMOOTH",
"316 317 OFFCURVE",
"367 266 OFFCURVE",
"368 203 CURVE",
"454 203 LINE"
);
},
{
closed = 1;
nodes = (
"367 0 LINE",
"454 0 LINE",
"454 284 LINE",
"367 284 LINE"
);
}
);
width = 514;
}
);
leftKerningGroup = o;
leftMetricsKey = o;
rightMetricsKey = n;
},
{
glyphname = one.osf;
lastChange = "2019-07-16 11:48:43 +0000";
layers = (
{
hints = (
{
horizontal = 1;
place = "{-239, 21}";
target = up;
type = BottomGhost;
},
{
horizontal = 1;
place = "{484.38, -20}";
target = down;
type = TopGhost;
},
{
place = "{211.98, 85.5}";
type = Stem;
}
);
layerId = "35624636-21CC-465F-9DE1-D1867EA72944";
paths = (
{
closed = 1;
nodes = (
"210 484 LINE",
"210 0 LINE",
"295 0 LINE",
"295 484 LINE"
);
},
{
closed = 1;
nodes = (
"50 0 LINE",
"448 0 LINE",
"448 85 LINE",
"50 85 LINE"
);
},
{
closed = 1;
nodes = (
"210 484 LINE",
"210 484 LINE",
"51 204 LINE",
"53 202 LINE",
"53 200 LINE",
"133 200 LINE",
"133 202 LINE",
"135 201 LINE",
"218 347 LINE"
);
}
);
width = 498;
}
);
},
{
glyphname = two.osf;
lastChange = "2019-07-16 11:48:48 +0000";
layers = (
{
hints = (
{
horizontal = 1;
place = "{0, 85.5}";
type = Stem;
},
{
horizontal = 1;
place = "{637.88, 85.5}";
type = Stem;
},
{
place = "{50.31, 79.88}";
type = Stem;
},
{
place = "{367, 85.5}";
type = Stem;
}
);
layerId = "35624636-21CC-465F-9DE1-D1867EA72944";
paths = (
{
closed = 1;
nodes = (
"134 87 LINE",
"48 5 LINE",
"50 3 LINE",
"50 0 LINE",
"127 0 LINE",
"130 0 LINE",
"290 0 LINE",
"450 0 LINE",
"452 0 LINE",
"452 3 LINE",
"452 83 LINE",
"452 86 LINE",
"450 86 LINE",
"232 86 LINE",
"232 86 LINE"
);
},
{
closed = 1;
nodes = (
"243 80 LINE",
"353 80 OFFCURVE",
"443 171 OFFCURVE",
"443 282 CURVE SMOOTH",
"443 394 OFFCURVE",
"351 484 OFFCURVE",
"241 484 CURVE SMOOTH",
"129 484 OFFCURVE",
"37 396 OFFCURVE",
"38 279 CURVE",
"123 279 LINE",
"123 349 OFFCURVE",
"177 398 OFFCURVE",
"241 398 CURVE SMOOTH",
"304 398 OFFCURVE",
"357 347 OFFCURVE",
"357 282 CURVE SMOOTH",
"357 218 OFFCURVE",
"306 166 OFFCURVE",
"243 166 CURVE"
);
}
);
width = 500;
}
);
},
{
glyphname = three.osf;
lastChange = "2019-07-16 11:49:03 +0000";
layers = (
{
layerId = "35624636-21CC-465F-9DE1-D1867EA72944";
paths = (
{
closed = 1;
nodes = (
"67 482 LINE",
"67 402 LINE",
"67 399 LINE",
"69 399 LINE",
"209 399 LINE",
"293 399 LINE",
"169 205 LINE",
"167 205 LINE",
"167 202 LINE",
"167 122 LINE",
"167 119 LINE",
"170 119 LINE",
"231 119 LINE",
"250 119 LINE SMOOTH",
"315 119 OFFCURVE",
"367 68 OFFCURVE",
"367 3 CURVE SMOOTH",
"367 -62 OFFCURVE",
"315 -113 OFFCURVE",
"250 -113 CURVE SMOOTH",
"186 -113 OFFCURVE",
"134 -62 OFFCURVE",
"134 3 CURVE",
"131 3 LINE",
"131 6 LINE",
"51 6 LINE",
"51 3 LINE",
"48 3 LINE",
"48 -109 OFFCURVE",
"138 -199 OFFCURVE",
"250 -199 CURVE SMOOTH",
"362 -199 OFFCURVE",
"452 -109 OFFCURVE",
"452 3 CURVE SMOOTH",
"452 112 OFFCURVE",
"366 205 OFFCURVE",
"257 205 CURVE SMOOTH",
"255 205 LINE",
"429 480 LINE",
"427 482 LINE",
"427 484 LINE",
"351 484 LINE",
"348 484 LINE",
"69 484 LINE",
"67 484 LINE"
);
}
);
width = 499;
}
);
leftMetricsKey = three;
rightMetricsKey = three;
},
{
glyphname = four.osf;
lastChange = "2019-07-16 11:49:12 +0000";
layers = (
{
layerId = "35624636-21CC-465F-9DE1-D1867EA72944";
paths = (
{
closed = 1;
nodes = (
"327 485 LINE",
"327 482 LINE",
"327 85 LINE",
"127 85 LINE",
"253 401 LINE",
"250 402 LINE",
"250 405 LINE",
"171 405 LINE",
"171 402 LINE",
"168 403 LINE",
"8 4 LINE",
"11 3 LINE",
"11 0 LINE",
"88 0 LINE",
"91 0 LINE",
"290 0 LINE",
"327 0 LINE",
"327 -197 LINE",
"327 -200 LINE",
"330 -200 LINE",
"370 -200 LINE",
"410 -200 LINE",
"413 -200 LINE",
"413 -197 LINE",
"413 0 LINE",
"489 0 LINE",
"492 0 LINE",
"492 3 LINE",
"492 83 LINE",
"492 85 LINE",
"489 85 LINE",
"413 85 LINE",
"413 482 LINE",
"413 485 LINE",
"410 485 LINE",
"330 485 LINE"
);
}
);
width = 500;
}
);
leftKerningGroup = A.small;
leftMetricsKey = four;
rightMetricsKey = four;
},
{
glyphname = five.osf;
lastChange = "2019-07-16 11:49:18 +0000";
layers = (
{
hints = (
{
horizontal = 1;
place = "{-223, 85.5}";
type = Stem;
},
{
horizontal = 1;
place = "{95.38, 85.5}";
type = Stem;
},
{
horizontal = 1;
place = "{414.88, 85.5}";
type = Stem;
},
{
place = "{88, 85.5}";
type = Stem;
},
{
place = "{367, 85.5}";
type = Stem;
},
{
place = "{50.31, 79.88}";
type = Stem;
}
);
layerId = "35624636-21CC-465F-9DE1-D1867EA72944";
paths = (
{
closed = 1;
nodes = (
"88 484 LINE",
"88 118 LINE",
"253 118 LINE SMOOTH",
"316 118 OFFCURVE",
"367 66 OFFCURVE",
"367 2 CURVE SMOOTH",
"367 -63 OFFCURVE",
"314 -114 OFFCURVE",
"251 -114 CURVE SMOOTH",
"187 -114 OFFCURVE",
"133 -65 OFFCURVE",
"133 5 CURVE",
"48 5 LINE",
"47 -112 OFFCURVE",
"139 -200 OFFCURVE",
"251 -200 CURVE SMOOTH",
"361 -200 OFFCURVE",
"453 -110 OFFCURVE",
"453 2 CURVE SMOOTH",
"453 113 OFFCURVE",
"363 204 OFFCURVE",
"253 204 CURVE SMOOTH",
"174 204 LINE",
"174 399 LINE",
"412 399 LINE",
"412 484 LINE"
);
}
);
width = 500;
}
);
},
{
glyphname = six.osf;
lastChange = "2019-07-16 11:49:21 +0000";
layers = (
{
components = (
{
name = six;
transform = "{1, 0, 0, 1, -3, 0}";
}
);
layerId = "35624636-21CC-465F-9DE1-D1867EA72944";
width = 494;
},
{
associatedMasterId = "35624636-21CC-465F-9DE1-D1867EA72944";
layerId = "15228F3F-A15F-466B-BB57-CDADB1E22C41";
name = "Jul 15 19, 11:50";
paths = (
{
closed = 1;
nodes = (
"311 318 OFFCURVE",
"364 267 OFFCURVE",
"364 202 CURVE SMOOTH",
"364 199 LINE SMOOTH",
"364 137 OFFCURVE",
"310 86 OFFCURVE",
"246 86 CURVE SMOOTH",
"183 86 OFFCURVE",
"130 138 OFFCURVE",
"130 202 CURVE SMOOTH",
"130 202 LINE SMOOTH",
"130 267 OFFCURVE",
"183 318 OFFCURVE",
"246 318 CURVE SMOOTH"
);
},
{
closed = 1;
nodes = (
"136 404 OFFCURVE",
"45 314 OFFCURVE",
"45 202 CURVE SMOOTH",
"45 199 LINE SMOOTH",
"45 89 OFFCURVE",
"137 0 OFFCURVE",
"246 0 CURVE SMOOTH",
"357 0 OFFCURVE",
"448 89 OFFCURVE",
"450 199 CURVE SMOOTH",
"450 169 OFFCURVE",
"450 122 OFFCURVE",
"450 202 CURVE SMOOTH",
"450 314 OFFCURVE",
"358 404 OFFCURVE",
"246 404 CURVE SMOOTH"
);
},
{
closed = 1;
nodes = (
"240 484 LINE",
"96 337 LINE",
"135 281 LINE",
"341 484 LINE"
);
}
);
width = 495;
}
);
leftMetricsKey = o;
rightMetricsKey = o;
},
{
glyphname = seven.osf;
lastChange = "2019-07-16 11:49:26 +0000";
layers = (
{
hints = (
{
horizontal = 1;
place = "{-239.69, 21}";
target = up;
type = BottomGhost;
},
{
horizontal = 1;
place = "{398.19, 85.5}";
type = Stem;
}
);
layerId = "35624636-21CC-465F-9DE1-D1867EA72944";
paths = (
{
closed = 1;
nodes = (
"157 -200 LINE",
"452 483 LINE",
"46 483 LINE",
"46 397 LINE",
"318 397 LINE",
"61 -200 LINE"
);
}
);
width = 498;
}
);
leftMetricsKey = seven;
rightKerningGroup = v;
rightMetricsKey = seven;
},
{
glyphname = bullet;
lastChange = "2019-07-04 13:22:45 +0000";
layers = (
{
layerId = "35624636-21CC-465F-9DE1-D1867EA72944";
paths = (
{
closed = 1;
nodes = (
"370 198 OFFCURVE",
"433 261 OFFCURVE",
"433 340 CURVE SMOOTH",
"433 418 OFFCURVE",
"370 481 OFFCURVE",
"292 481 CURVE SMOOTH",
"213 481 OFFCURVE",
"150 418 OFFCURVE",
"150 340 CURVE SMOOTH",
"150 261 OFFCURVE",
"213 198 OFFCURVE",
"292 198 CURVE SMOOTH"
);
}
);
width = 583;
}
);
unicode = 2022;
},
{
glyphname = endash;
lastChange = "2019-07-04 19:47:03 +0000";
layers = (
{
layerId = "35624636-21CC-465F-9DE1-D1867EA72944";
paths = (
{
closed = 1;
nodes = (
"90 323 LINE",
"90 320 LINE",
"90 240 LINE",
"90 238 LINE",
"93 238 LINE",
"555 238 LINE",
"557 238 LINE",
"557 240 LINE",
"557 320 LINE",
"557 323 LINE",
"555 323 LINE",
"93 323 LINE"
);
}
);
width = 647;
}
);
unicode = 2013;
},
{
glyphname = emdash;
lastChange = "2019-07-04 19:47:12 +0000";
layers = (
{
layerId = "35624636-21CC-465F-9DE1-D1867EA72944";
paths = (
{
closed = 1;
nodes = (
"90 323 LINE",
"90 320 LINE",
"90 240 LINE",
"90 238 LINE",
"93 238 LINE",
"949 238 LINE",
"951 238 LINE",
"951 240 LINE",
"951 320 LINE",
"951 323 LINE",
"949 323 LINE",
"93 323 LINE"
);
}
);
width = 1041;
}
);
unicode = 2014;
},
{
glyphname = guilsinglright;
lastChange = "2019-07-05 07:31:11 +0000";
layers = (
{
layerId = "35624636-21CC-465F-9DE1-D1867EA72944";
paths = (
{
closed = 1;
nodes = (
"214 275 LINE",
"50 69 LINE",
"52 68 LINE",
"52 66 LINE",
"142 66 LINE",
"142 68 LINE",
"145 68 LINE",
"311 275 LINE"
);
},
{
closed = 1;
nodes = (
"145 481 LINE",
"142 480 LINE",
"142 483 LINE",
"52 483 LINE",
"52 480 LINE",
"50 480 LINE",
"214 275 LINE",
"311 275 LINE"
);
}
);
width = 361;
}
);
unicode = 203A;
},
{
glyphname = euro;
lastChange = "2019-07-02 11:22:56 +0000";
layers = (
{
hints = (
{
horizontal = 1;
place = "{0, 85.5}";
type = Stem;
},
{
horizontal = 1;
place = "{637.88, 85.5}";
type = Stem;
},
{
place = "{48.06, 85.5}";
type = Stem;
}
);
layerId = "35624636-21CC-465F-9DE1-D1867EA72944";
paths = (
{
closed = 1;
nodes = (
"339 723 LINE SMOOTH",
"230 723 OFFCURVE",
"140 634 OFFCURVE",
"140 524 CURVE SMOOTH",
"140 521 LINE",
"140 202 LINE",
"140 199 LINE SMOOTH",
"140 90 OFFCURVE",
"231 0 OFFCURVE",
"342 0 CURVE SMOOTH",
"451 0 LINE",
"454 0 LINE",
"454 3 LINE",
"454 83 LINE",
"454 86 LINE",
"451 86 LINE",
"351 86 LINE",
"342 86 LINE SMOOTH",
"277 86 OFFCURVE",
"226 138 OFFCURVE",
"226 202 CURVE SMOOTH",
"226 521 LINE",
"226 524 LINE SMOOTH",
"226 587 OFFCURVE",
"277 638 OFFCURVE",
"339 638 CURVE SMOOTH",
"342 638 LINE",
"352 638 LINE",
"451 638 LINE",
"454 638 LINE",
"454 641 LINE",
"454 721 LINE",
"454 723 LINE",
"451 723 LINE",
"342 723 LINE"
);
},
{
closed = 1;
nodes = (
"31 399 LINE",
"442 399 LINE",
"445 399 LINE",
"445 401 LINE",
"445 481 LINE",
"445 484 LINE",
"442 484 LINE",
"31 484 LINE"
);
},
{
closed = 1;
nodes = (
"31 229 LINE",
"442 229 LINE",
"445 229 LINE",
"445 231 LINE",
"445 311 LINE",
"445 314 LINE",
"442 314 LINE",
"31 314 LINE"
);
}
);
width = 502;
}
);
unicode = 20AC;
},
{
glyphname = vtf;
lastChange = "2019-07-02 11:01:16 +0000";
layers = (
{
hints = (
{
horizontal = 1;
place = "{0, 85.5}";
type = Stem;
},
{
horizontal = 1;
place = "{279, 85.5}";
type = Stem;
},
{
horizontal = 1;
place = "{398.25, 85.5}";
type = Stem;
},
{
horizontal = 1;
place = "{637.88, 85.5}";
type = Stem;
},
{
place = "{456.55, 85.5}";
type = Stem;
},
{
place = "{655.67, 85.5}";
type = Stem;
}
);
layerId = "35624636-21CC-465F-9DE1-D1867EA72944";
paths = (
{
closed = 1;
nodes = (
"542.05 398.25 LINE",
"655.68 398.25 LINE",
"655.68 85.5 LINE",
"593.26 87.04 OFFCURVE",
"542.06 139.18 OFFCURVE",
"542.06 201.94 CURVE SMOOTH"
);
},
{
closed = 1;
nodes = (
"456.56 723.38 LINE",
"456.56 720.57 LINE",
"456.56 481.51 LINE",
"300.19 106.32 LINE",
"143.82 482.07 LINE",
"141.01 480.95 LINE",
"141.01 483.76 LINE",
"61.14 483.76 LINE",
"61.14 480.95 LINE",
"58.61 479.82 LINE",
"257.45 1.7 LINE",
"260.26 2.83 LINE",
"260.26 0.02 LINE",
"340.14 0.02 LINE",
"340.14 2.83 LINE",
"342.67 1.71 LINE",
"456.58 274.8 LINE",
"456.58 201.96 LINE",
"456.58 199.15 LINE SMOOTH",
"458.1 88.67 OFFCURVE",
"548.8 0.02 OFFCURVE",
"658.52 0.02 CURVE SMOOTH",
"699.02 0.02 LINE",
"738.4 0.02 LINE",
"741.21 0.02 LINE",
"741.21 2.83 LINE",
"741.21 279.02 LINE",
"818.27 279.02 LINE",
"898.15 279.02 LINE",
"900.96 279.02 LINE",
"900.96 281.83 LINE",
"900.96 361.71 LINE",
"900.96 364.52 LINE",
"898.15 364.52 LINE",
"741.21 364.52 LINE",
"741.21 521.46 LINE SMOOTH",
"741.21 584.23 OFFCURVE",
"792.41 636.39 OFFCURVE",
"855.96 637.9 CURVE SMOOTH",
"858.77 637.9 LINE",
"898.15 637.9 LINE",
"938.65 637.9 LINE",
"941.46 637.9 LINE",
"941.46 640.71 LINE",
"941.46 720.58 LINE",
"941.46 723.39 LINE",
"938.65 723.39 LINE",
"858.78 723.39 LINE",
"855.97 723.39 LINE SMOOTH",
"746.44 721.9 OFFCURVE",
"657.23 633.79 OFFCURVE",
"655.72 524.27 CURVE SMOOTH",
"655.72 521.46 LINE",
"655.72 483.77 LINE",
"619.16 483.77 LINE",
"542.1 483.77 LINE",
"542.1 720.58 LINE",
"542.1 723.39 LINE",
"539.29 723.39 LINE",
"499.91 723.39 LINE",
"459.41 723.39 LINE"
);
}
);
width = 1000;
}
);
note = copyright;
unicode = 00A9;
},
{
glyphname = ampersand.small;
lastChange = "2019-07-16 11:54:06 +0000";
layers = (
{
hints = (
{
horizontal = 1;
place = "{0, 85.5}";
type = Stem;
},
{
place = "{481.94, 85.5}";
type = Stem;
},
{
horizontal = 1;
place = "{723.38, 21}";
target = up;
type = BottomGhost;
},
{
horizontal = 1;
place = "{484, -85.5}";
type = Stem;
},
{
place = "{481.94, -85.5}";
type = Stem;
},
{
horizontal = 1;
place = "{-239.38, 21}";
target = up;
type = BottomGhost;
}
);
layerId = "35624636-21CC-465F-9DE1-D1867EA72944";
paths = (
{
closed = 1;
nodes = (
"394 484 LINE",
"198 484 LINE",
"197 484 LINE SMOOTH",
"121 484 OFFCURVE",
"59 422 OFFCURVE",
"59 346 CURVE SMOOTH",
"59 310 OFFCURVE",
"73 278 OFFCURVE",
"95 254 CURVE",
"68 227 OFFCURVE",
"50 189 OFFCURVE",
"50 148 CURVE SMOOTH",
"50 66 OFFCURVE",
"117 0 OFFCURVE",
"198 0 CURVE SMOOTH",
"394 0 LINE",
"394 86 LINE",
"198 86 LINE SMOOTH",
"164 86 OFFCURVE",
"136 114 OFFCURVE",
"136 148 CURVE SMOOTH",
"136 182 OFFCURVE",
"164 209 OFFCURVE",
"198 209 CURVE SMOOTH",
"464 209 LINE",
"464 295 LINE",
"197 295 LINE SMOOTH",
"167 295 OFFCURVE",
"145 318 OFFCURVE",
"145 346 CURVE SMOOTH",
"145 376 OFFCURVE",
"167 398 OFFCURVE",
"197 398 CURVE SMOOTH",
"198 398 LINE",
"394 398 LINE"
);
},
{
closed = 1;
nodes = (
"394 0 LINE",
"394 334 LINE",
"308 334 LINE",
"308 0 LINE"
);
}
);
width = 484;
}
);
leftMetricsKey = "=|B.small";
rightMetricsKey = E.small;
},
{
glyphname = circumflex;
lastChange = "2019-07-05 13:40:46 +0000";
layers = (
{
anchors = (
{
name = _top;
position = "{236, 484}";
}
);
layerId = "35624636-21CC-465F-9DE1-D1867EA72944";
paths = (
{
closed = 1;
nodes = (
"357 479 LINE",
"279 654 LINE",
"194 655 LINE",
"116 479 LINE",
"201 479 LINE",
"236 557 LINE",
"271 479 LINE"
);
}
);
width = 461;
}
);
unicode = 02C6;
},
{
glyphname = ring;
lastChange = "2019-07-12 12:30:18 +0000";
layers = (
{
anchors = (
{
name = _top;
position = "{134, 484}";
}
);
layerId = "35624636-21CC-465F-9DE1-D1867EA72944";
paths = (
{
closed = 1;
nodes = (
"72 713 OFFCURVE",
"20 661 OFFCURVE",
"20 598 CURVE SMOOTH",
"20 535 OFFCURVE",
"72 484 OFFCURVE",
"134 484 CURVE SMOOTH",
"197 484 OFFCURVE",
"249 535 OFFCURVE",
"249 598 CURVE SMOOTH",
"249 661 OFFCURVE",
"197 713 OFFCURVE",
"134 713 CURVE SMOOTH"
);
},
{
closed = 1;
nodes = (
"153 632 OFFCURVE",
"168 617 OFFCURVE",
"168 598 CURVE SMOOTH",
"168 580 OFFCURVE",
"153 565 OFFCURVE",
"134 565 CURVE SMOOTH",
"116 565 OFFCURVE",
"100 580 OFFCURVE",
"100 598 CURVE SMOOTH",
"100 617 OFFCURVE",
"116 632 OFFCURVE",
"134 632 CURVE SMOOTH"
);
}
);
width = 269;
}
);
unicode = 02DA;
},
{
glyphname = tilde;
lastChange = "2019-07-05 13:25:26 +0000";
layers = (
{
anchors = (
{
name = _top;
position = "{184, 483}";
}
);
layerId = "35624636-21CC-465F-9DE1-D1867EA72944";
paths = (
{
closed = 1;
nodes = (
"165 644 OFFCURVE",
"155 577 OFFCURVE",
"125 577 CURVE SMOOTH",
"113 577 OFFCURVE",
"103 587 OFFCURVE",
"103 599 CURVE SMOOTH",
"103 642 LINE",
"30 642 LINE",
"30 598 LINE SMOOTH",
"30 546 OFFCURVE",
"73 504 OFFCURVE",
"125 504 CURVE SMOOTH",
"189 504 OFFCURVE",
"199 571 OFFCURVE",
"229 571 CURVE SMOOTH",
"241 571 OFFCURVE",
"251 561 OFFCURVE",
"251 549 CURVE SMOOTH",
"251 502 LINE",
"324 502 LINE",
"324 550 LINE SMOOTH",
"324 602 OFFCURVE",
"281 644 OFFCURVE",
"229 644 CURVE SMOOTH"
);
}
);
width = 354;
}
);
unicode = 02DC;
},
{
glyphname = st.liga;
lastChange = "2019-07-05 13:39:17 +0000";
layers = (
{
components = (
{
name = t;
transform = "{1, 0, 0, 1, 500, 0}";
}
);
hints = (
{
place = "{47.5, 85.78}";
type = Stem;
},
{
place = "{367, 85.5}";
type = Stem;
}
);
layerId = "35624636-21CC-465F-9DE1-D1867EA72944";
paths = (
{
closed = 1;
nodes = (
"249 484 LINE SMOOTH",
"139 484 OFFCURVE",
"50 393 OFFCURVE",
"50 282 CURVE SMOOTH",
"50 202 LINE",
"50 199 LINE",
"52 199 LINE",
"251 199 LINE",
"364 199 LINE",
"362 138 OFFCURVE",
"312 87 OFFCURVE",
"249 86 CURVE SMOOTH",
"248 85 OFFCURVE",
"247 86 OFFCURVE",
"246 86 CURVE SMOOTH",
"52 86 LINE",
"50 86 LINE",
"50 83 LINE",
"50 3 LINE",
"50 0 LINE",
"52 0 LINE",
"147 0 LINE",
"246 0 LINE SMOOTH",
"247 0 OFFCURVE",
"248 0 OFFCURVE",
"249 0 CURVE SMOOTH",
"360 2 OFFCURVE",
"450 91 OFFCURVE",
"450 202 CURVE SMOOTH",
"450 282 LINE",
"450 285 LINE",
"447 285 LINE",
"135 285 LINE",
"137 347 OFFCURVE",
"187 398 OFFCURVE",
"249 398 CURVE SMOOTH",
"251 398 LINE",
"347 398 LINE",
"679 398 LINE",
"682 398 LINE",
"682 401 LINE",
"682 481 LINE",
"682 484 LINE",
"679 484 LINE",
"251 484 LINE"
);
}
);
width = 852;
}
);
},
{
glyphname = rt.liga;
lastChange = "2019-07-06 07:11:02 +0000";
layers = (
{
components = (
{
name = t;
transform = "{1, 0, 0, 1, 352, 0}";
}
);
hints = (
{
horizontal = 1;
place = "{0, 21}";
target = up;
type = BottomGhost;
},
{
horizontal = 1;
place = "{398.25, 85.5}";
type = Stem;
},
{
place = "{57.69, 85.5}";
type = Stem;
}
);
layerId = "35624636-21CC-465F-9DE1-D1867EA72944";
paths = (
{
closed = 1;
nodes = (
"58 484 LINE",
"58 3 LINE",
"58 0 LINE",
"61 0 LINE",
"100 0 LINE",
"140 0 LINE",
"143 0 LINE",
"143 3 LINE",
"143 282 LINE SMOOTH",
"143 346 OFFCURVE",
"193 398 OFFCURVE",
"257 398 CURVE SMOOTH",
"510 398 LINE",
"510 481 LINE",
"510 484 LINE",
"508 484 LINE",
"260 484 LINE",
"257 484 LINE SMOOTH",
"214 483 OFFCURVE",
"175 470 OFFCURVE",
"143 447 CURVE",
"143 484 LINE"
);
}
);
width = 704;
}
);
},
